<svg id="Layer_1" data-name="Layer 1" xmlns="http://www.w3.org/2000/svg" viewBox="0 0 324 219.73"><defs><style>.cls-1{fill:#fff;}.cls-2{fill:#df1995;}</style></defs><path class="cls-1" d="M159.08,129.25c0,14.53-10,24.35-24.93,24.35-14.14,0-23.37-9.62-23.37-24V72.3h-22v63.82c0,23.37,15.32,38.68,38.29,38.68,13.55,0,24.55-5.5,32-15.71v13.36h22V72.3h-22Z" transform="translate(-18.29 -69.95)"/><path class="cls-1" d="M217.79,117.07c0-15.51,10.61-25.92,26.51-25.92,15.12,0,24.94,10.21,24.94,25.53v55.77h22v-63c0-23.76-15.9-39.46-39.66-39.46-14.34,0-25.92,5.69-33.78,16.29V72.3h-22V172.45h22Z" transform="translate(-18.29 -69.95)"/><path class="cls-1" d="M40.28,86.24V72.3h-22V172.45h22V117.07c0-15.51,10.6-25.92,26.51-25.92a28.93,28.93,0,0,1,7.26,1V70C59.72,70,48.14,75.64,40.28,86.24Z" transform="translate(-18.29 -69.95)"/><path class="cls-2" d="M291,187.18H217.72V208H269v15.12h-27.1c-20.61,0-36.13,14.34-36.13,33.19,0,19,15.52,33.38,36.13,33.38,12.57,0,23.18-5.31,29.65-13.75v11.39h29.26v-20H291Zm-22,67.55c0,9.81-9.42,16.1-23.37,16.1-9.81,0-17.28-6.29-17.28-14.73,0-8.25,7.47-14.53,17.28-14.53H269Z" transform="translate(-18.29 -69.95)"/><path class="cls-2" d="M326.58,136.32A15.51,15.51,0,0,0,310.87,152a15.34,15.34,0,0,0,15.71,15.51c9,0,15.71-6.68,15.71-15.51A15.39,15.39,0,0,0,326.58,136.32Z" transform="translate(-18.29 -69.95)"/><path class="cls-1" d="M326.58,108.43a15.27,15.27,0,0,0,15.71-15.71c0-8.83-6.68-15.51-15.71-15.51a15.61,15.61,0,1,0,0,31.22Z" transform="translate(-18.29 -69.95)"/><rect class="cls-2" x="297.3" y="117.23" width="21.99" height="100.14"/></svg>