<svg width="40" height="30" viewBox="0 0 40 30" fill="none" xmlns="http://www.w3.org/2000/svg">
<g clip-path="url(#clip0_1_23)">
<path d="M16.3454 5.71331V3.98367C16.5122 3.97192 16.6815 3.96265 16.8533 3.95708C21.5621 3.80867 24.6519 8.02177 24.6519 8.02177C24.6519 8.02177 21.3153 12.677 17.7373 12.677C17.222 12.677 16.7609 12.5935 16.3454 12.4532V7.20858C18.1787 7.4312 18.5474 8.24439 19.6494 10.0897L22.1008 8.01373C22.1008 8.01373 20.3112 5.65642 17.2953 5.65642C16.9671 5.65642 16.6532 5.67992 16.3454 5.7127M16.3454 0V2.58364C16.5147 2.57003 16.6833 2.55952 16.8533 2.55334C23.4022 2.33195 27.6685 7.94818 27.6685 7.94818C27.6685 7.94818 22.7681 13.9342 17.6628 13.9342C17.1949 13.9342 16.7572 13.8909 16.3454 13.8173V15.414C16.6975 15.4592 17.0619 15.4851 17.4424 15.4851C22.1938 15.4851 25.6295 13.048 28.9564 10.1633C29.5073 10.6066 31.7661 11.6864 32.2302 12.1594C29.0666 14.8197 21.6945 16.9637 17.515 16.9637C17.1124 16.9637 16.7252 16.9396 16.3447 16.9025V19.1466H34.4022V0H16.3454ZM16.3454 12.4538V13.8173C11.9511 13.0301 10.7315 8.44227 10.7315 8.44227C10.7315 8.44227 12.8412 6.09424 16.3454 5.71393V7.20982C16.3454 7.20982 16.3411 7.2092 16.3386 7.2092C14.4997 6.9872 13.0629 8.71313 13.0629 8.71313C13.0629 8.71313 13.8681 11.6183 16.3454 12.4544M8.54052 8.24315C8.54052 8.24315 11.1446 4.38315 16.3454 3.98367V2.58364C10.5856 3.04805 5.59785 7.94818 5.59785 7.94818C5.59785 7.94818 8.42293 16.1518 16.3454 16.9031V15.4146C10.5314 14.68 8.54052 8.24377 8.54052 8.24377V8.24315Z" fill="#76B900"/>
<path d="M39.2348 29.2938V29.1269H39.3401C39.3973 29.1269 39.4755 29.1313 39.4755 29.2028C39.4755 29.28 39.4355 29.2938 39.3678 29.2938H39.2348ZM39.2348 29.411H39.305L39.4675 29.7021H39.646L39.4663 29.3991C39.5592 29.3922 39.6362 29.3471 39.6362 29.2191C39.6362 29.0605 39.5284 29.0097 39.3468 29.0097H39.084V29.7027H39.2348V29.4117M40 29.3565C40 28.9494 39.6897 28.7136 39.3437 28.7136C38.9978 28.7136 38.6856 28.9494 38.6856 29.3565C38.6856 29.7635 38.9959 30 39.3437 30C39.6916 30 40 29.7629 40 29.3565ZM39.8104 29.3565C39.8104 29.6531 39.5962 29.852 39.3437 29.852V29.8494C39.084 29.852 38.874 29.6525 38.874 29.3559C38.874 29.0592 39.084 28.8616 39.3437 28.8616C39.6035 28.8616 39.8104 29.0598 39.8104 29.3559V29.3565Z" fill="black"/>
<path d="M15.923 22.4713V29.7729H17.9478V22.4713H15.923ZM0 22.4613V29.7729H2.04202V24.2212H3.62416C4.14806 24.2212 4.52174 24.3548 4.77414 24.6288C5.09427 24.9763 5.22478 25.537 5.22478 26.5624V29.7729H7.20339V25.7333C7.20339 22.8502 5.39962 22.4613 3.63463 22.4613H0ZM19.1821 22.4713V29.7729H22.4653C24.2142 29.7729 24.7855 29.4763 25.403 28.8121C25.8395 28.3455 26.1214 27.3219 26.1214 26.2024C26.1214 25.1764 25.8826 24.2607 25.4664 23.6906C24.7166 22.6708 23.6362 22.472 22.0232 22.472H19.1828L19.1821 22.4713ZM21.1897 24.0612H22.0602C23.3228 24.0612 24.1391 24.6389 24.1391 26.1378C24.1391 27.6368 23.3228 28.2144 22.0602 28.2144H21.1897V24.0612ZM13.0044 22.4713L11.3151 28.2583L9.69665 22.472H7.51181L9.82347 29.7729H12.7409L15.071 22.4713H13.005H13.0044ZM27.0627 29.7729H29.0869V22.472H27.0621V29.7729H27.0627ZM32.7369 22.4738L29.9106 29.7698H31.9064L32.3534 28.4803H35.698L36.1216 29.7698H38.2886L35.4407 22.4732H32.7369V22.4738ZM34.0506 23.8053L35.277 27.2235H32.7861L34.0513 23.8053H34.0506Z" fill="white"/>
</g>
<defs>
<clipPath id="clip0_1_23">
<rect width="40" height="30" fill="white"/>
</clipPath>
</defs>
</svg>
