<svg width="22" height="19" viewBox="0 0 22 19" fill="none" xmlns="http://www.w3.org/2000/svg">
<path d="M3.125 1.375V3.625H9.875V5.875H3.125V13.75H9.875V16H3.125C1.85938 16 0.875 15.0156 0.875 13.75V4.75V1.375C0.875 0.777344 1.36719 0.25 2 0.25C2.59766 0.25 3.125 0.777344 3.125 1.375ZM11 7V1.375C11 0.777344 11.4922 0.25 12.125 0.25H14.4453C14.7617 0.25 15.043 0.390625 15.2539 0.601562L15.7109 1.05859C15.9219 1.26953 16.2031 1.375 16.5195 1.375H20C20.5977 1.375 21.125 1.90234 21.125 2.5V7C21.125 7.63281 20.5977 8.125 20 8.125H12.125C11.4922 8.125 11 7.63281 11 7ZM11 17.125V11.5C11 10.9023 11.4922 10.375 12.125 10.375H14.4453C14.7617 10.375 15.043 10.5156 15.2539 10.7266L15.7109 11.1836C15.9219 11.3945 16.2031 11.5 16.5195 11.5H20C20.5977 11.5 21.125 12.0273 21.125 12.625V17.125C21.125 17.7578 20.5977 18.25 20 18.25H12.125C11.4922 18.25 11 17.7578 11 17.125Z" fill="#00263E"/>
</svg>
