<svg width="200" height="111" viewBox="0 0 200 111" fill="none" xmlns="http://www.w3.org/2000/svg">
<rect width="200" height="110" fill="white"/>
<rect width="200" height="110" fill="url(#paint0_linear_28_17)"/>
<path d="M87 38.75C84.8906 38.75 83.25 40.4688 83.25 42.5V62.5H82V42.5C82 39.7656 84.1875 37.5 87 37.5H117C119.734 37.5 122 39.7656 122 42.5V62.5H120.75V42.5C120.75 40.4688 119.031 38.75 117 38.75H87ZM125.438 66.25H78.4844C78.3281 66.25 78.25 66.4062 78.25 66.5625C78.25 69.1406 80.3594 71.25 82.9375 71.25H120.984C123.562 71.25 125.75 69.1406 125.75 66.5625C125.75 66.4062 125.594 66.25 125.438 66.25ZM78.4844 65H125.438C126.297 65 127 65.7031 127 66.5625C127 69.8438 124.266 72.5 120.984 72.5H82.9375C79.6562 72.5 77 69.8438 77 66.5625C77 65.7031 77.625 65 78.4844 65ZM98.0156 47.3438L93.4844 51.875L98.0156 56.4844C98.25 56.7188 98.25 57.1094 98.0156 57.3438C97.7812 57.5781 97.3906 57.5781 97.1562 57.3438L92.1562 52.3438C91.9219 52.1094 91.9219 51.7188 92.1562 51.4844L97.1562 46.4844C97.3906 46.25 97.7812 46.25 98.0156 46.4844C98.25 46.7188 98.25 47.1094 98.0156 47.3438ZM106.766 46.4844L111.766 51.4844C112 51.7188 112 52.1094 111.766 52.3438L106.766 57.3438C106.531 57.5781 106.141 57.5781 105.906 57.3438C105.672 57.1094 105.672 56.7188 105.906 56.4844L110.438 51.875L105.906 47.3438C105.672 47.1094 105.672 46.7188 105.906 46.4844C106.141 46.25 106.531 46.25 106.766 46.4844Z" fill="#76B900"/>
<rect y="109" width="200" height="2" fill="#76B900"/>
<defs>
<linearGradient id="paint0_linear_28_17" x1="100" y1="0" x2="100" y2="116.769" gradientUnits="userSpaceOnUse">
<stop stop-color="#76B900" stop-opacity="0.2"/>
<stop offset="0.65" stop-color="#76B900" stop-opacity="0.02"/>
</linearGradient>
</defs>
</svg>
