<svg width="200" height="112" viewBox="0 0 200 112" fill="none" xmlns="http://www.w3.org/2000/svg">
<rect width="200" height="110" fill="white"/>
<rect width="200" height="110" fill="url(#paint0_linear_28_42)"/>
<rect y="110" width="200" height="2" fill="#76B900"/>
<path d="M113.062 40.8594L113.141 40.9375C113.766 41.5625 114.391 42.2656 114.938 43.0469C115.719 44.0625 115.719 45.4688 115.016 46.4844L114 48.0469C113.844 48.2031 113.844 48.4375 113.922 48.75L114 48.9062C114.156 49.2188 114.312 49.375 114.547 49.375L116.344 49.7656C117.594 50 118.609 50.9375 118.766 52.2656C118.922 53.2031 119 54.0625 119 55V55.0781C118.922 56.0156 118.922 56.875 118.766 57.8125C118.609 59.1406 117.594 60.0781 116.344 60.3125L114.547 60.7031C114.312 60.7031 114.156 60.8594 114 61.1719L113.922 61.3281C113.844 61.6406 113.844 61.875 114 62.0312L115.016 63.5938C115.719 64.6094 115.719 66.0156 114.938 67.1094C113.844 68.5938 112.516 69.8438 111.031 71.0156C109.938 71.7969 108.531 71.7969 107.516 71.0938L105.953 70.0781C105.797 69.9219 105.562 69.9219 105.25 70L105.094 70.0781C104.859 70.2344 104.625 70.3906 104.625 70.625L104.234 72.4219C104 73.5938 103.062 74.6875 101.734 74.8438C100.797 75 99.9375 75 99 75C97.9844 75 97.125 75 96.1875 74.8438C94.8594 74.6875 93.9219 73.5938 93.6875 72.4219L93.2969 70.625C93.2969 70.3906 93.1406 70.2344 92.8281 70.0781L92.6719 70C92.3594 69.9219 92.125 69.9219 91.9688 70.0781L90.4062 71.0938C89.3906 71.7188 87.9844 71.7969 86.8906 71.0156C85.4062 69.9219 84.1562 68.5938 82.9844 67.1094C82.2031 66.0156 82.2031 64.6094 82.9062 63.5938L83.9219 62.0312C84.0781 61.875 84.0781 61.6406 84 61.3281L83.9219 61.1719C83.7656 60.8594 83.6094 60.7031 83.375 60.7031L81.5781 60.3125C80.4062 60.0781 79.3125 59.1406 79.1562 57.8125C79 56.875 79 56.0156 79 55C79 54.0625 79 53.2031 79.1562 52.2656C79.3125 50.9375 80.4062 50 81.5781 49.7656L83.375 49.375C83.6094 49.375 83.7656 49.1406 83.9219 48.9062L84 48.75C84.0781 48.4375 84.0781 48.2031 83.9219 48.0469L82.9062 46.4844C82.2812 45.4688 82.2031 44.0625 82.9844 42.9688C83.5312 42.2656 84.1562 41.5625 84.7812 40.9375L84.8594 40.8594C85.4844 40.2344 86.1875 39.6094 86.8906 39.0625C87.9844 38.2812 89.3906 38.2812 90.4062 38.9844L91.9688 40C92.125 40.1562 92.3594 40.1562 92.6719 40.0781L92.8281 40C93.1406 39.8438 93.2969 39.6875 93.2969 39.4531L93.6875 37.6562C93.9219 36.4062 94.8594 35.3906 96.1875 35.2344C97.125 35.0781 97.9844 35 99 35C99.9375 35 100.797 35.0781 101.734 35.2344C103.062 35.3906 104 36.4062 104.234 37.6562L104.625 39.4531C104.703 39.6875 104.859 39.8438 105.094 40L105.25 40.0781C105.562 40.1562 105.797 40.1562 106.031 40L107.516 38.9844C108.531 38.2812 109.938 38.2812 111.031 39.0625C111.734 39.6094 112.438 40.2344 113.062 40.8594ZM113.922 43.75C113.453 43.0469 112.828 42.4219 112.281 41.7969L112.203 41.7188C111.578 41.1719 110.953 40.5469 110.25 40.0781C109.625 39.6094 108.844 39.6094 108.219 40.0781L106.656 41.0938C106.109 41.4062 105.406 41.4844 104.781 41.1719H104.625C104 40.8594 103.531 40.3906 103.375 39.6875L103.062 37.8906C102.906 37.1875 102.281 36.5625 101.578 36.4844C100.719 36.3281 99.8594 36.3281 98.9219 36.3281C98.0625 36.3281 97.2031 36.3281 96.3438 36.4844C95.5625 36.5625 95.0156 37.1875 94.8594 37.8906L94.5469 39.6875C94.3906 40.3906 93.9219 40.8594 93.2969 41.1719H93.1406C92.5156 41.4844 91.8125 41.4062 91.2656 41.0938L89.7031 40.0781C89.0781 39.6094 88.2969 39.6094 87.6719 40.0781C86.9688 40.5469 86.3438 41.1719 85.7188 41.7188L85.6406 41.7969C85.0938 42.4219 84.4688 43.0469 84 43.75C83.5312 44.375 83.5312 45.1562 84 45.7812L85.0156 47.2656C85.3281 47.8906 85.4062 48.5938 85.0938 49.2188V49.375C84.7812 50 84.3125 50.4688 83.6094 50.5469L81.8125 50.9375C81.1094 51.0938 80.4844 51.6406 80.4062 52.4219C80.25 53.2812 80.25 54.1406 80.25 55C80.25 55.9375 80.25 56.7969 80.4062 57.6562C80.4844 58.3594 81.1094 58.9844 81.8125 59.0625L83.6094 59.4531C84.3125 59.6094 84.7812 60.0781 85.0938 60.7031V60.8594C85.4062 61.4844 85.3281 62.1875 85.0156 62.7344L84 64.2969C83.5312 64.9219 83.5312 65.7031 84 66.3281C85.0156 67.7344 86.2656 68.9062 87.6719 70C88.2969 70.4688 89.0781 70.4688 89.7031 70L91.2656 68.9844C91.8125 68.5938 92.5156 68.5938 93.1406 68.8281L93.2969 68.9062C93.9219 69.1406 94.3906 69.6875 94.5469 70.3906L94.8594 72.1875C95.0156 72.8906 95.6406 73.5156 96.3438 73.5938C97.2031 73.6719 98.0625 73.75 99 73.75C99.8594 73.75 100.719 73.6719 101.578 73.5938C102.359 73.5156 102.906 72.8906 103.062 72.1875L103.375 70.3906C103.531 69.6875 104 69.1406 104.625 68.9062L104.781 68.8281C105.406 68.5938 106.109 68.5938 106.656 68.9844L108.219 70C108.844 70.4688 109.625 70.4688 110.25 70C111.656 68.9062 112.906 67.7344 113.922 66.3281C114.391 65.7031 114.391 64.9219 114 64.2969L112.984 62.7344C112.594 62.1875 112.516 61.4844 112.828 60.8594V60.7031C113.141 60.0781 113.609 59.6094 114.312 59.4531L116.109 59.0625C116.812 58.9844 117.438 58.3594 117.516 57.6562C117.672 56.7969 117.75 55.9375 117.75 55.0781V55C117.75 54.1406 117.672 53.2812 117.516 52.4219C117.438 51.6406 116.812 51.0938 116.109 50.9375L114.312 50.625C113.609 50.4688 113.141 50 112.828 49.375V49.2188C112.516 48.5938 112.594 47.8906 112.984 47.3438L114 45.7812C114.391 45.1562 114.391 44.375 113.922 43.75ZM100.797 47.6562L98.2969 62.6562C98.2969 62.9688 97.9844 63.2031 97.5938 63.125C97.2812 63.125 97.0469 62.8125 97.125 62.4219L99.625 47.4219C99.625 47.1094 99.9375 46.875 100.328 46.9531C100.641 46.9531 100.875 47.2656 100.797 47.6562ZM93.1406 52.3438L90.4844 55L93.1406 57.7344C93.375 57.9688 93.375 58.3594 93.1406 58.5938C92.9062 58.8281 92.5156 58.8281 92.2812 58.5938L89.1562 55.4688C88.9219 55.2344 88.9219 54.8438 89.1562 54.6094L92.2812 51.4844C92.5156 51.25 92.9062 51.25 93.1406 51.4844C93.375 51.7188 93.375 52.1094 93.1406 52.3438ZM105.641 51.4844L108.766 54.6094C109 54.8438 109 55.2344 108.766 55.4688L105.641 58.5938C105.406 58.8281 105.016 58.8281 104.781 58.5938C104.547 58.3594 104.547 57.9688 104.781 57.7344L107.438 55L104.781 52.3438C104.547 52.1094 104.547 51.7188 104.781 51.4844C105.016 51.25 105.406 51.25 105.641 51.4844Z" fill="#76B900"/>
<defs>
<linearGradient id="paint0_linear_28_42" x1="100" y1="0" x2="100" y2="116.769" gradientUnits="userSpaceOnUse">
<stop stop-color="#76B900" stop-opacity="0.2"/>
<stop offset="0.65" stop-color="#76B900" stop-opacity="0.02"/>
</linearGradient>
</defs>
</svg>
