<svg width="200" height="112" viewBox="0 0 200 112" fill="none" xmlns="http://www.w3.org/2000/svg">
<rect width="200" height="110" fill="white"/>
<rect width="200" height="110" fill="url(#paint0_linear_28_42)"/>
<rect y="109" width="200" height="3" fill="#76B900"/>
<path d="M96.6172 42.9297C96.4062 43.9141 95.6328 44.6875 94.7891 45.0391L94.7188 45.1094C93.8047 45.4609 92.75 45.4609 91.9062 44.8984L90.4297 43.9141C90.3594 43.8438 90.2891 43.8438 90.1484 43.8438C89.5156 44.2656 88.9531 44.8281 88.3906 45.3906H88.3203C87.7578 45.9531 87.2656 46.5859 86.7734 47.2188C86.7734 47.3594 86.7734 47.4297 86.8438 47.5L87.8281 48.9766C88.3906 49.8203 88.3906 50.875 88.0391 51.7188V51.8594C87.6875 52.7031 86.9141 53.4766 85.8594 53.6172L84.1719 53.9688C84.1016 54.0391 83.9609 54.0391 83.8906 54.1094C83.75 54.8828 83.75 55.7266 83.75 56.5C83.75 57.3438 83.75 58.1875 83.8906 58.9609C83.9609 59.0312 84.1016 59.0312 84.1719 59.1016L85.8594 59.4531C86.9141 59.5938 87.6875 60.3672 88.0391 61.2109V61.3516C88.4609 62.1953 88.3906 63.25 87.8281 64.0938L86.8438 65.5703C86.7734 65.6406 86.7734 65.7109 86.7734 65.8516C87.6875 67.1172 88.8828 68.3125 90.1484 69.2266C90.2891 69.2266 90.3594 69.2266 90.4297 69.1562L91.9062 68.1719C92.75 67.6094 93.8047 67.6094 94.7188 67.9609H94.7891C95.6328 68.3125 96.4062 69.0859 96.6172 70.1406L96.9688 71.8281C96.9688 71.8984 96.9688 72.0391 97.0391 72.1094C97.8828 72.1797 98.6562 72.25 99.5 72.25C100.273 72.25 101.117 72.1797 101.891 72.1094C101.961 72.0391 101.961 71.8984 102.031 71.8281L102.383 70.1406C102.594 69.0859 103.297 68.3125 104.141 67.9609H104.281C105.125 67.5391 106.18 67.6094 107.023 68.1719L108.5 69.1562C108.57 69.2266 108.641 69.2266 108.781 69.2266C110.047 68.3125 111.242 67.1172 112.156 65.8516C112.156 65.7109 112.156 65.6406 112.086 65.5703L111.102 64.0938C110.539 63.25 110.539 62.1953 110.891 61.2812V61.2109C111.312 60.3672 112.016 59.5938 113.07 59.3828L114.758 59.0312C114.828 59.0312 114.969 58.9609 115.039 58.8906C115.109 58.1172 115.18 57.3438 115.18 56.5C115.18 55.6562 115.109 54.8828 115.039 54.1094C114.969 54.0391 114.828 53.9688 114.758 53.9688L113.07 53.6172C112.016 53.4062 111.242 52.7031 110.891 51.8594V51.7188C110.469 50.875 110.539 49.8203 111.102 48.9766L112.086 47.5C112.156 47.4297 112.156 47.2891 112.156 47.2188C111.664 46.5859 111.172 45.9531 110.609 45.3906H110.539C109.977 44.8281 109.414 44.2656 108.781 43.8438C108.641 43.8438 108.57 43.8438 108.5 43.9141L107.023 44.8984C106.18 45.4609 105.125 45.4609 104.281 45.1094H104.141C103.297 44.6875 102.523 43.9844 102.383 42.9297L102.031 41.2422C101.961 41.1016 101.961 41.0312 101.891 40.9609C101.117 40.8203 100.273 40.75 99.5 40.75C98.6562 40.75 97.8125 40.8203 97.0391 40.9609C96.9688 41.0312 96.9688 41.1016 96.8984 41.2422L95.8438 41.0312L96.8984 41.2422L96.6172 42.9297ZM99.5 38.5C100.484 38.5 101.539 38.6406 102.523 38.7812C102.664 38.8516 102.805 38.8516 102.875 38.9219C103.578 39.3438 104.07 39.9766 104.211 40.8203L104.562 42.5078C104.562 42.7188 104.703 42.8594 104.984 43L105.125 43.0703C105.406 43.1406 105.617 43.1406 105.758 43L107.234 42.0859C107.938 41.5938 108.711 41.4531 109.484 41.6641C109.625 41.6641 109.766 41.7344 109.836 41.8047C110.68 42.4375 111.453 43.0703 112.156 43.7734L112.227 43.8438C112.93 44.5469 113.562 45.3203 114.195 46.1641C114.266 46.2344 114.336 46.375 114.336 46.5156C114.547 47.2891 114.406 48.0625 113.984 48.7656L113 50.1719C112.859 50.3828 112.859 50.5938 112.93 50.875L113 50.9453C113 51.0156 113 51.0156 113 51.0156C113.141 51.2266 113.281 51.3672 113.492 51.4375L115.18 51.7891C116.023 51.9297 116.656 52.4219 117.078 53.0547C117.148 53.1953 117.148 53.3359 117.219 53.4766C117.359 54.4609 117.43 55.4453 117.43 56.5V56.5703C117.43 57.5547 117.359 58.6094 117.219 59.5938C117.148 59.7344 117.148 59.875 117.078 59.9453C116.656 60.6484 116.023 61.1406 115.18 61.2812L114.969 60.1562L115.18 61.2812L113.492 61.6328C113.281 61.6328 113.141 61.7734 113 62.0547L112.93 62.1953C112.859 62.4766 112.859 62.6875 113 62.8281L113.984 64.3047C114.406 65.0078 114.547 65.7812 114.336 66.5547C114.336 66.6953 114.266 66.8359 114.195 66.9062C113 68.5938 111.523 70.0703 109.836 71.2656C109.766 71.3359 109.625 71.4062 109.484 71.4062C108.711 71.6172 107.938 71.4766 107.234 70.9844L105.828 70.0703C105.688 69.9297 105.406 69.9297 105.125 70L105.055 70.0703C104.773 70.1406 104.633 70.3516 104.562 70.5625L104.211 72.25C104.07 73.0234 103.578 73.7266 102.945 74.1484C102.805 74.2188 102.664 74.2188 102.523 74.2891C101.539 74.4297 100.555 74.5 99.5 74.5C98.4453 74.5 97.3906 74.4297 96.4062 74.2891C96.2656 74.2188 96.125 74.2188 96.0547 74.1484C95.3516 73.7266 94.8594 73.0938 94.7188 72.25L94.3672 70.5625C94.3672 70.3516 94.2266 70.1406 93.9453 70.0703L93.8047 70C93.5234 69.9297 93.3125 69.9297 93.1719 70.0703L91.6953 70.9844C90.9922 71.4766 90.2188 71.6172 89.4453 71.4062C89.3047 71.4062 89.2344 71.3359 89.0938 71.2656C87.4062 70.0703 85.9297 68.5938 84.7344 66.9062C84.6641 66.7656 84.5938 66.6953 84.5938 66.5547C84.3828 65.7812 84.5234 65.0078 85.0156 64.3047L85.9297 62.8984C86.0703 62.6875 86.0703 62.4766 86 62.1953L85.9297 62.0547C85.7891 61.8438 85.6484 61.6328 85.4375 61.6328L83.75 61.2812C82.9062 61.1406 82.2734 60.6484 81.8516 59.9453C81.7812 59.875 81.7812 59.7344 81.7109 59.5938C81.5703 58.6094 81.5 57.5547 81.5 56.5C81.5 55.5156 81.5703 54.4609 81.7109 53.4766C81.7812 53.3359 81.7812 53.1953 81.8516 53.125C82.2734 52.4219 82.9062 51.9297 83.75 51.7891L85.4375 51.4375C85.6484 51.4375 85.8594 51.2266 85.9297 51.0156L86 50.875C86.0703 50.5938 86.0703 50.3828 85.9297 50.1719L85.0156 48.7656C84.5234 48.0625 84.3828 47.2891 84.5938 46.5156C84.5938 46.375 84.6641 46.2344 84.7344 46.1641C85.3672 45.3203 86 44.5469 86.7031 43.8438L86.7734 43.7734C87.4766 43.0703 88.25 42.4375 89.0938 41.8047C89.2344 41.7344 89.3047 41.6641 89.4453 41.6641C90.2188 41.4531 90.9922 41.5938 91.6953 42.0156L93.1016 43C93.3125 43.1406 93.5234 43.1406 93.8047 43.0703L93.9453 43C94.1562 42.8594 94.3672 42.7188 94.3672 42.5078L94.7188 40.8203C94.8594 39.9766 95.3516 39.3438 96.0547 38.9219C96.125 38.8516 96.2656 38.7812 96.4062 38.7812C97.3906 38.6406 98.4453 38.5 99.5 38.5ZM101.68 49.9609L99.4297 63.4609C99.3594 64.0938 98.7969 64.5156 98.1641 64.375C97.5312 64.3047 97.1094 63.7422 97.25 63.1094L99.5 49.6094C99.5703 48.9766 100.133 48.5547 100.766 48.6953C101.398 48.7656 101.82 49.3281 101.68 49.9609ZM94.6484 54.5312L92.6094 56.5L94.6484 58.5391C95.0703 58.9609 95.0703 59.7344 94.6484 60.1562C94.2266 60.5781 93.4531 60.5781 93.0312 60.1562L90.2188 57.3438C89.7969 56.9219 89.7969 56.1484 90.2188 55.7266L93.0312 52.9141C93.4531 52.4922 94.2266 52.4922 94.6484 52.9141C95.0703 53.3359 95.0703 54.1094 94.6484 54.5312ZM105.898 52.9141L108.711 55.7266C109.133 56.1484 109.133 56.9219 108.711 57.3438L105.898 60.1562C105.477 60.5781 104.703 60.5781 104.281 60.1562C103.859 59.7344 103.859 58.9609 104.281 58.5391L106.32 56.5L104.281 54.5312C103.859 54.1094 103.859 53.3359 104.281 52.9141C104.703 52.4922 105.477 52.4922 105.898 52.9141Z" fill="#76B900"/>
<defs>
<linearGradient id="paint0_linear_28_42" x1="100" y1="0" x2="100" y2="110" gradientUnits="userSpaceOnUse">
<stop stop-color="#76B900" stop-opacity="0.2"/>
<stop offset="0.555" stop-color="#76B900" stop-opacity="0"/>
<stop offset="0.995" stop-color="white" stop-opacity="0.02"/>
</linearGradient>
</defs>
</svg>
