<svg width="200" height="111" viewBox="0 0 200 111" fill="none" xmlns="http://www.w3.org/2000/svg">
<rect width="200" height="110" fill="white"/>
<rect width="200" height="110" fill="url(#paint0_linear_28_8)"/>
<path d="M87.2656 40.3828L86.7734 42.1406C86.6328 42.4922 86.3516 42.8438 86 42.9141C85.0156 43.2656 84.0312 43.8281 83.2578 44.5312C82.9766 44.7422 82.625 44.8828 82.2031 44.7422L80.4453 44.3203C80.3047 44.5312 80.1641 44.7422 80.0234 44.9531L79.8828 45.3047C79.7422 45.5156 79.6016 45.7266 79.5312 46.0078L80.7969 47.2734C81.0781 47.5547 81.1484 47.9766 81.0781 48.3281C80.9375 48.8203 80.9375 49.3828 80.9375 49.875C80.9375 50.4375 80.9375 51 81.0781 51.4922C81.1484 51.8438 81.0781 52.2656 80.7969 52.5469L79.4609 53.8125C79.6016 54.0938 79.7422 54.3047 79.8125 54.5156L80.0234 54.8672C80.1641 55.0781 80.3047 55.2891 80.4453 55.5L82.2031 55.0078C82.625 54.9375 82.9766 55.0078 83.2578 55.2891C84.0312 55.9922 85.0156 56.5547 86 56.9062C86.4219 56.9766 86.7031 57.2578 86.7734 57.6797L87.2656 59.4375C87.5469 59.4375 87.8984 59.4375 88.25 59.4375C88.5312 59.4375 88.8828 59.4375 89.1641 59.4375L89.6562 57.6797C89.7969 57.2578 90.0781 56.9766 90.4297 56.9062C91.4844 56.5547 92.3984 55.9922 93.1719 55.2891C93.4531 55.0078 93.875 54.9375 94.2266 55.0078L95.9844 55.5C96.125 55.2891 96.2656 55.0781 96.4062 54.8672L96.6172 54.5156C96.7578 54.3047 96.8281 54.0938 96.9688 53.8125L95.6328 52.5469C95.4219 52.2656 95.2812 51.8438 95.3516 51.4922C95.4922 51 95.5625 50.4375 95.5625 49.875C95.5625 49.3828 95.4922 48.8203 95.3516 48.3281C95.2812 47.9766 95.4219 47.5547 95.6328 47.2734L96.9688 46.0078C96.8281 45.7266 96.7578 45.5156 96.6172 45.3047L96.4062 44.9531C96.2656 44.7422 96.125 44.5312 95.9844 44.3203L94.2266 44.7422C93.8047 44.8828 93.4531 44.7422 93.1719 44.5312C92.3984 43.8281 91.4141 43.2656 90.4297 42.9141C90.0781 42.8438 89.7969 42.4922 89.6562 42.1406L89.1641 40.3828C88.8828 40.3828 88.5312 40.3125 88.1797 40.3125C87.8984 40.3125 87.5469 40.3828 87.2656 40.3828ZM86.1406 38.2734C86.8438 38.1328 87.5469 38.0625 88.25 38.0625C88.8828 38.0625 89.5859 38.1328 90.2891 38.2734C90.7109 38.3438 91.0625 38.6953 91.1328 39.0469L91.6953 41.0156C92.6094 41.3672 93.4531 41.8594 94.2266 42.4219L96.125 41.9297C96.5469 41.8594 96.9688 42 97.25 42.2812C97.6719 42.7734 98.0234 43.2656 98.375 43.8281L98.5859 44.1797C98.8672 44.7422 99.1484 45.3047 99.3594 45.8672C99.5 46.2891 99.3594 46.7109 99.0781 47.0625L97.6719 48.4688C97.7422 48.9609 97.8125 49.4531 97.8125 49.9453C97.8125 50.4375 97.7422 50.8594 97.6719 51.3516L99.0781 52.7578C99.3594 53.1094 99.5 53.5312 99.3594 53.9531C99.1484 54.5156 98.8672 55.0781 98.5859 55.6406L98.375 55.9922H98.3047C98.0234 56.5547 97.6719 57.0469 97.25 57.5391C96.9688 57.8203 96.5469 57.9609 96.125 57.8906L94.2266 57.3984C93.4531 57.9609 92.6094 58.4531 91.6953 58.8047L91.1328 60.7031C91.0625 61.125 90.7109 61.4766 90.2891 61.5469C89.5859 61.6875 88.8828 61.6875 88.25 61.6875C87.5469 61.6875 86.8438 61.6875 86.1406 61.5469C85.7188 61.4766 85.3672 61.125 85.2969 60.7031L84.7344 58.8047C83.8203 58.4531 82.9766 57.9609 82.2031 57.3984L80.3047 57.8906C79.8828 57.9609 79.4609 57.8203 79.1797 57.4688C78.7578 57.0469 78.4062 56.4844 78.0547 55.9922L77.9141 55.6406C77.5625 55.0781 77.3516 54.5156 77.1406 53.9531C77 53.5312 77.0703 53.1094 77.3516 52.7578L78.7578 51.3516C78.6875 50.8594 78.6875 50.3672 78.6875 49.875C78.6875 49.3828 78.6875 48.9609 78.7578 48.4688L77.3516 47.0625C77.0703 46.7109 76.9297 46.2891 77.1406 45.8672C77.3516 45.3047 77.5625 44.7422 77.9141 44.1797L78.0547 43.8281C78.4062 43.2656 78.7578 42.7734 79.1797 42.2812C79.4609 42 79.8828 41.8594 80.3047 41.9297L82.2031 42.4219C82.9766 41.8594 83.8203 41.3672 84.7344 41.0156L85.2969 39.0469C85.3672 38.625 85.7188 38.3438 86.1406 38.2734ZM84.3125 49.875C84.3125 48.4688 85.0156 47.2031 86.2812 46.5C87.4766 45.7969 88.9531 45.7969 90.2188 46.5C91.4141 47.2031 92.1875 48.4688 92.1875 49.875C92.1875 51.3516 91.4141 52.6172 90.2188 53.3203C88.9531 54.0234 87.4766 54.0234 86.2812 53.3203C85.0156 52.6172 84.3125 51.3516 84.3125 49.875ZM88.25 51.5625C89.1641 51.5625 89.9375 50.8594 89.9375 49.875C89.9375 48.9609 89.1641 48.1875 88.25 48.1875C87.2656 48.1875 86.5625 48.9609 86.5625 49.875C86.5625 50.8594 87.2656 51.5625 88.25 51.5625ZM100.062 63.2344L101.82 63.7266C102.242 63.8672 102.523 64.1484 102.594 64.5C102.945 65.4844 103.508 66.4688 104.211 67.2422C104.492 67.5234 104.562 67.875 104.492 68.2969L104 70.0547C104.211 70.1953 104.422 70.3359 104.703 70.4766L104.984 70.6875C105.195 70.7578 105.406 70.8984 105.688 71.0391L106.953 69.7031C107.234 69.4219 107.656 69.3516 108.008 69.4219C108.5 69.5625 109.062 69.5625 109.555 69.5625C110.117 69.5625 110.68 69.5625 111.172 69.4219C111.523 69.3516 111.945 69.4219 112.227 69.7031L113.492 71.0391C113.773 70.8984 113.984 70.7578 114.195 70.6875L114.477 70.4766C114.758 70.3359 114.969 70.1953 115.18 70.0547L114.758 68.2969C114.617 67.875 114.758 67.5234 114.969 67.2422C115.672 66.4688 116.234 65.4844 116.586 64.5C116.656 64.0781 117.008 63.7969 117.359 63.7266L119.117 63.2344C119.117 62.9531 119.188 62.6016 119.188 62.25C119.188 61.9688 119.117 61.6172 119.117 61.3359L117.359 60.8438C117.008 60.7031 116.656 60.4219 116.586 60.0703C116.234 59.0156 115.672 58.1016 114.969 57.3281C114.758 57.0469 114.617 56.625 114.758 56.2734L115.18 54.5156C114.969 54.375 114.758 54.2344 114.547 54.0938L114.195 53.8828C113.984 53.7422 113.773 53.6719 113.492 53.5312L112.227 54.8672C111.945 55.0781 111.523 55.2188 111.172 55.1484C110.68 55.0078 110.117 54.9375 109.625 54.9375C109.062 54.9375 108.5 55.0078 108.008 55.1484C107.656 55.2188 107.234 55.0781 106.953 54.8672L105.688 53.5312C105.406 53.6719 105.195 53.7422 104.984 53.8828L104.633 54.0938C104.422 54.2344 104.211 54.375 104 54.5156L104.492 56.2734C104.562 56.625 104.492 57.0469 104.211 57.3281C103.508 58.1016 102.945 59.0156 102.594 60.0703C102.523 60.4219 102.242 60.7031 101.82 60.8438L100.062 61.3359C100.062 61.6172 100.062 61.9688 100.062 62.25C100.062 62.6016 100.062 62.9531 100.062 63.2344ZM97.9531 64.3594C97.8125 63.6562 97.8125 62.9531 97.8125 62.25C97.8125 61.5469 97.8125 60.9141 97.9531 60.2109C98.0234 59.7891 98.375 59.4375 98.7969 59.3672L100.695 58.8047C101.047 57.8906 101.539 57.0469 102.102 56.2734L101.609 54.375C101.539 53.9531 101.68 53.5312 102.031 53.25C102.453 52.8281 102.945 52.4766 103.508 52.125L103.859 51.9141H103.93C104.422 51.6328 104.984 51.3516 105.547 51.1406C105.969 51 106.391 51.1406 106.742 51.4219L108.148 52.8281C108.641 52.7578 109.133 52.6875 109.625 52.6875C110.117 52.6875 110.609 52.7578 111.031 52.8281L112.438 51.4219C112.789 51.1406 113.211 51 113.633 51.1406C114.195 51.3516 114.758 51.6328 115.32 51.9141L115.672 52.125V52.1953C116.234 52.4766 116.727 52.8281 117.219 53.25C117.5 53.5312 117.641 53.9531 117.57 54.375L117.078 56.2734C117.641 57.0469 118.133 57.8906 118.555 58.8047L120.453 59.3672C120.875 59.4375 121.156 59.7891 121.227 60.2109C121.367 60.9141 121.438 61.6172 121.438 62.25C121.438 62.9531 121.367 63.6562 121.227 64.3594C121.156 64.7812 120.875 65.1328 120.453 65.2031L118.555 65.7656C118.133 66.6797 117.641 67.5234 117.078 68.2969L117.57 70.1953C117.711 70.6172 117.5 71.0391 117.219 71.3203C116.727 71.7422 116.234 72.0938 115.672 72.4453L115.32 72.5859C114.828 72.9375 114.266 73.1484 113.633 73.3594C113.281 73.5 112.789 73.4297 112.508 73.1484L111.102 71.7422C110.609 71.8125 110.117 71.8828 109.625 71.8828C109.133 71.8828 108.641 71.8125 108.148 71.7422L106.742 73.1484C106.461 73.4297 105.969 73.5703 105.547 73.3594C104.984 73.1484 104.422 72.9375 103.859 72.5859L103.578 72.4453C103.016 72.0938 102.523 71.7422 102.031 71.3203C101.68 71.0391 101.539 70.6172 101.68 70.1953L102.172 68.2969C101.539 67.5234 101.047 66.6797 100.695 65.7656L98.7969 65.2031C98.375 65.1328 98.0234 64.7812 97.9531 64.3594ZM109.625 66.1875C108.148 66.1875 106.883 65.4844 106.18 64.2188C105.477 63.0234 105.477 61.5469 106.18 60.2812C106.883 59.0859 108.148 58.3125 109.625 58.3125C111.031 58.3125 112.297 59.0859 113 60.2812C113.703 61.5469 113.703 63.0234 113 64.2188C112.297 65.4844 111.031 66.1875 109.625 66.1875ZM111.312 62.25C111.312 61.3359 110.539 60.5625 109.625 60.5625C108.641 60.5625 107.938 61.3359 107.938 62.25C107.938 63.2344 108.641 63.9375 109.625 63.9375C110.539 63.9375 111.312 63.2344 111.312 62.25Z" fill="#76B900"/>
<rect y="108" width="200" height="3" fill="#76B900"/>
<defs>
<linearGradient id="paint0_linear_28_8" x1="100" y1="0" x2="100" y2="110" gradientUnits="userSpaceOnUse">
<stop stop-color="#76B900" stop-opacity="0.2"/>
<stop offset="0.555" stop-color="#76B900" stop-opacity="0"/>
<stop offset="0.995" stop-color="white" stop-opacity="0.02"/>
</linearGradient>
</defs>
</svg>
