<svg width="200" height="111" viewBox="0 0 200 111" fill="none" xmlns="http://www.w3.org/2000/svg">
<rect width="200" height="110" fill="white"/>
<rect width="200" height="110" fill="url(#paint0_linear_28_8)"/>
<path d="M86.1875 35.625H86.7344C87.2812 35.7031 87.75 35.7031 88.2188 35.7812C88.6875 35.8594 89.0781 36.1719 89.2344 36.7188L89.9375 39.375C91.0312 39.7656 91.9688 40.3906 92.8281 41.0938L95.5625 40.3125C96.0312 40.2344 96.5781 40.3906 96.8906 40.7812C97.125 41.1719 97.4375 41.5625 97.6719 41.9531L97.9844 42.5C98.2188 42.8906 98.4531 43.3594 98.6094 43.8281C98.7656 44.2969 98.6875 44.7656 98.2969 45.1562L96.3438 47.1094C96.4219 47.6562 96.5 48.2031 96.5 48.8281C96.5 49.375 96.4219 49.9219 96.3438 50.4688L98.2969 52.4219C98.6875 52.8125 98.7656 53.2812 98.6094 53.75C98.375 54.2969 98.1406 54.7656 97.9062 55.3125L97.8281 55.3906C97.5156 55.8594 97.2031 56.3281 96.8906 56.7969C96.5781 57.1875 96.0312 57.3438 95.5625 57.1875L92.8281 56.4844C91.9688 57.1875 91.0312 57.7344 89.9375 58.125L89.2344 60.8594C89.0781 61.3281 88.6875 61.7188 88.2188 61.7969C87.75 61.875 87.2031 61.875 86.7344 61.875H86.1875C85.7188 61.875 85.1719 61.875 84.7031 61.7969C84.2344 61.7188 83.8438 61.3281 83.6875 60.8594L82.9844 58.2031C81.8906 57.7344 80.9531 57.1875 80.0938 56.4844L77.3594 57.2656C76.8906 57.3438 76.3438 57.1875 76.0312 56.7969C75.7969 56.4062 75.4844 56.0156 75.25 55.625L74.9375 55.1562C74.7031 54.6875 74.5469 54.2188 74.3125 53.8281C74.1562 53.2812 74.2344 52.8125 74.625 52.4219L76.5781 50.4688C76.5 49.9219 76.5 49.375 76.5 48.8281C76.5 48.2031 76.5 47.6562 76.5781 47.1094L74.625 45.1562C74.2344 44.7656 74.1562 44.2188 74.3125 43.75C74.7812 42.7344 75.3281 41.7188 76.0312 40.7812C76.3438 40.3906 76.8906 40.2344 77.3594 40.3125L80.0938 41.0938C80.9531 40.3906 81.8906 39.7656 82.9844 39.375L83.6875 36.7188C83.8438 36.25 84.2344 35.8594 84.7031 35.7812C85.25 35.7031 85.7188 35.7031 86.1875 35.625ZM86.1875 36.875C85.7969 36.9531 85.3281 36.9531 84.9375 37.0312L84.0781 40.0781C84.0781 40.2344 83.9219 40.3906 83.6875 40.4688C82.5938 40.8594 81.5 41.4844 80.6406 42.2656C80.4844 42.4219 80.25 42.4219 80.0938 42.3438L77.0469 41.5625C76.4219 42.3438 75.875 43.2812 75.4844 44.2188L77.75 46.4844C77.8281 46.5625 77.9062 46.7969 77.9062 47.0312C77.75 47.5781 77.75 48.2031 77.75 48.75C77.75 49.375 77.75 50 77.9062 50.5469C77.9062 50.7812 77.9062 50.9375 77.75 51.0938L75.4844 53.3594C75.6406 53.75 75.875 54.1406 76.0312 54.5312L76.3438 54.9219C76.5 55.3125 76.8125 55.7031 77.0469 56.0156L80.0938 55.1562C80.25 55.1562 80.4844 55.1562 80.6406 55.3125C81.5 56.0938 82.5938 56.7188 83.6875 57.1094C83.9219 57.1875 84.0781 57.3438 84.0781 57.5L84.8594 60.5469C85.3281 60.625 85.7188 60.625 86.1875 60.625H86.7344C87.125 60.625 87.5938 60.625 87.9844 60.5469L88.8438 57.5C88.8438 57.3438 89 57.1875 89.2344 57.1094C90.3281 56.7188 91.4219 56.0938 92.2812 55.3125C92.4375 55.1562 92.6719 55.1562 92.8281 55.1562L95.875 56.0156C96.1875 55.625 96.4219 55.2344 96.7344 54.7656L96.8125 54.6875C97.0469 54.2188 97.2812 53.75 97.4375 53.3594L95.1719 51.0938C95.0938 51.0156 95.0156 50.7812 95.0156 50.5469C95.1719 50 95.25 49.375 95.25 48.8281C95.25 48.2031 95.1719 47.5781 95.0156 47.0312C95.0156 46.7969 95.0938 46.6406 95.1719 46.4844L97.4375 44.2188C97.2812 43.8281 97.0469 43.4375 96.8906 43.125L96.5781 42.5781C96.3438 42.2656 96.1094 41.875 95.875 41.5625L92.8281 42.3438C92.6719 42.4219 92.4375 42.4219 92.2812 42.2656C91.4219 41.4844 90.4062 40.8594 89.2344 40.4688C89 40.3906 88.8438 40.2344 88.8438 40.0781L87.9844 37.0312C87.5938 36.9531 87.2031 36.9531 86.7344 36.875H86.1875ZM82.125 48.75C82.125 47.1875 82.9062 45.7812 84.3125 45C85.6406 44.2188 87.2812 44.2188 88.6875 45C90.0156 45.7812 90.875 47.1875 90.875 48.75C90.875 50.3906 90.0156 51.7969 88.6875 52.5781C87.2812 53.3594 85.6406 53.3594 84.3125 52.5781C82.9062 51.7969 82.125 50.3906 82.125 48.75ZM86.5 51.875C87.5938 51.875 88.6094 51.3281 89.1562 50.3125C89.7031 49.375 89.7031 48.2031 89.1562 47.1875C88.6094 46.25 87.5938 45.625 86.5 45.625C85.3281 45.625 84.3125 46.25 83.7656 47.1875C83.2188 48.2031 83.2188 49.375 83.7656 50.3125C84.3125 51.3281 85.3281 51.875 86.5 51.875ZM97.125 62.8125V62.2656C97.125 61.7188 97.125 61.25 97.2031 60.7812C97.2812 60.3125 97.6719 59.9219 98.1406 59.7656L100.797 59.0625C101.266 57.9688 101.812 57.0312 102.516 56.1719L101.734 53.4375C101.656 52.9688 101.812 52.4219 102.203 52.1094C102.594 51.875 102.984 51.5625 103.375 51.3281L103.922 51.0156C104.312 50.7812 104.781 50.5469 105.25 50.3906C105.719 50.1562 106.188 50.3125 106.578 50.7031L108.531 52.6562C109.078 52.5781 109.625 52.5 110.25 52.5C110.797 52.5 111.344 52.5781 111.891 52.6562L113.844 50.7031C114.234 50.3125 114.781 50.1562 115.25 50.3906C115.719 50.625 116.188 50.8594 116.734 51.0938L116.812 51.1719C117.359 51.4844 117.75 51.7969 118.219 52.1094C118.609 52.4219 118.766 52.9688 118.688 53.4375L117.906 56.1719C118.609 57.0312 119.234 57.9688 119.625 59.0625L122.281 59.7656C122.75 59.9219 123.141 60.3125 123.219 60.7812C123.297 61.25 123.297 61.7969 123.375 62.2656V62.8125C123.297 63.2812 123.297 63.8281 123.219 64.2969C123.141 64.7656 122.828 65.1562 122.281 65.3125L119.625 66.0156C119.234 67.0312 118.609 68.0469 117.906 68.9062L118.688 71.6406C118.766 72.1094 118.609 72.5781 118.219 72.8906C117.828 73.2031 117.438 73.5156 117.047 73.75L116.578 73.9844V74.0625C116.109 74.2969 115.641 74.4531 115.25 74.6875C114.703 74.8438 114.234 74.7656 113.844 74.375L111.891 72.3438C111.344 72.5 110.797 72.5 110.25 72.5C109.625 72.5 109.078 72.5 108.531 72.3438L106.578 74.375C106.188 74.7656 105.719 74.8438 105.25 74.6875C104.156 74.2188 103.141 73.5938 102.203 72.8906C101.812 72.5781 101.656 72.1094 101.812 71.6406L102.516 68.9062C101.812 68.0469 101.266 67.0312 100.875 66.0156L98.1406 65.3125C97.6719 65.1562 97.2812 64.7656 97.2031 64.2188C97.125 63.75 97.125 63.2812 97.125 62.8125ZM98.375 62.8125C98.375 63.2031 98.375 63.6719 98.4531 64.0625L101.5 64.8438C101.656 64.9219 101.812 65.0781 101.891 65.3125C102.281 66.4062 102.906 67.5 103.688 68.3594C103.844 68.5156 103.844 68.75 103.844 68.9062L102.984 71.9531C103.844 72.5781 104.703 73.125 105.641 73.5156L107.906 71.25C108.062 71.0938 108.219 71.0156 108.453 71.0938C109 71.25 109.625 71.25 110.25 71.25C110.797 71.25 111.422 71.25 111.969 71.0938C112.203 71.0938 112.438 71.0938 112.516 71.25L114.781 73.5156C115.172 73.3594 115.562 73.125 115.953 72.9688L116.422 72.6562C116.734 72.4219 117.125 72.1875 117.438 71.9531L116.656 68.9062C116.578 68.75 116.578 68.5156 116.734 68.3594C117.516 67.5 118.141 66.4062 118.531 65.3125C118.609 65.0781 118.766 64.9219 118.922 64.9219L121.969 64.1406C122.047 63.6719 122.047 63.2812 122.125 62.8125V62.2656C122.047 61.875 122.047 61.4062 121.969 61.0156L118.922 60.1562C118.766 60.1562 118.609 60 118.531 59.7656C118.141 58.6719 117.516 57.5781 116.734 56.7188C116.578 56.5625 116.578 56.3281 116.656 56.1719L117.438 53.125C117.047 52.8125 116.656 52.5781 116.188 52.2656L116.109 52.1875C115.641 51.9531 115.25 51.7188 114.781 51.5625L112.594 53.8281C112.438 53.9062 112.203 53.9844 111.969 53.9844C111.422 53.8281 110.797 53.75 110.25 53.75C109.625 53.75 109 53.8281 108.453 53.9844C108.219 53.9844 108.062 53.9062 107.906 53.8281L105.719 51.5625C105.25 51.7188 104.859 51.9531 104.547 52.1094L104 52.4219C103.688 52.6562 103.297 52.8906 102.984 53.125L103.844 56.1719C103.844 56.3281 103.844 56.5625 103.688 56.7188C102.906 57.5781 102.281 58.5938 101.891 59.7656C101.812 60 101.656 60.1562 101.5 60.1562L98.4531 60.9375C98.375 61.4062 98.375 61.7969 98.375 62.2656V62.8125ZM110.25 66.875C108.609 66.875 107.203 66.0938 106.422 64.6875C105.641 63.3594 105.641 61.7188 106.422 60.3125C107.203 58.9844 108.609 58.125 110.25 58.125C111.812 58.125 113.219 58.9844 114 60.3125C114.781 61.7188 114.781 63.3594 114 64.6875C113.219 66.0938 111.812 66.875 110.25 66.875ZM113.375 62.5C113.375 61.4062 112.75 60.3906 111.812 59.8438C110.797 59.2969 109.625 59.2969 108.688 59.8438C107.672 60.3906 107.125 61.4062 107.125 62.5C107.125 63.6719 107.672 64.6875 108.688 65.2344C109.625 65.7812 110.797 65.7812 111.812 65.2344C112.75 64.6875 113.375 63.6719 113.375 62.5Z" fill="#76B900"/>
<rect y="109" width="200" height="2" fill="#76B900"/>
<defs>
<linearGradient id="paint0_linear_28_8" x1="100" y1="0" x2="100" y2="116.769" gradientUnits="userSpaceOnUse">
<stop stop-color="#76B900" stop-opacity="0.2"/>
<stop offset="0.65" stop-color="#76B900" stop-opacity="0.02"/>
</linearGradient>
</defs>
</svg>
