<svg width="200" height="111" viewBox="0 0 200 111" fill="none" xmlns="http://www.w3.org/2000/svg">
<rect width="200" height="110" fill="white"/>
<rect width="200" height="110" fill="url(#paint0_linear_28_12)"/>
<path d="M102.25 42H97.75C97.1172 42 96.625 42.5625 96.625 43.125V47.625C96.625 48.2578 97.1172 48.75 97.75 48.75H98.875H101.125H102.25C102.812 48.75 103.375 48.2578 103.375 47.625V43.125C103.375 42.5625 102.812 42 102.25 42ZM97.75 51C95.8516 51 94.375 49.5234 94.375 47.625V43.125C94.375 41.2969 95.8516 39.75 97.75 39.75H102.25C104.078 39.75 105.625 41.2969 105.625 43.125V47.625C105.625 49.5234 104.078 51 102.25 51H101.125V54.375H112.375C114.203 54.375 115.75 55.9219 115.75 57.75V60H116.875C118.703 60 120.25 61.5469 120.25 63.375V67.875C120.25 69.7734 118.703 71.25 116.875 71.25H112.375C110.477 71.25 109 69.7734 109 67.875V63.375C109 61.5469 110.477 60 112.375 60H113.5V57.75C113.5 57.1875 112.938 56.625 112.375 56.625H101.125V60H102.25C104.078 60 105.625 61.5469 105.625 63.375V67.875C105.625 69.7734 104.078 71.25 102.25 71.25H97.75C95.8516 71.25 94.375 69.7734 94.375 67.875V63.375C94.375 61.5469 95.8516 60 97.75 60H98.875V56.625H87.625C86.9922 56.625 86.5 57.1875 86.5 57.75V60H87.625C89.4531 60 91 61.5469 91 63.375V67.875C91 69.7734 89.4531 71.25 87.625 71.25H83.125C81.2266 71.25 79.75 69.7734 79.75 67.875V63.375C79.75 61.5469 81.2266 60 83.125 60H84.25V57.75C84.25 55.9219 85.7266 54.375 87.625 54.375H98.875V51H97.75ZM83.125 62.25C82.4922 62.25 82 62.8125 82 63.375V67.875C82 68.5078 82.4922 69 83.125 69H87.625C88.1875 69 88.75 68.5078 88.75 67.875V63.375C88.75 62.8125 88.1875 62.25 87.625 62.25H83.125ZM97.75 62.25C97.1172 62.25 96.625 62.8125 96.625 63.375V67.875C96.625 68.5078 97.1172 69 97.75 69H102.25C102.812 69 103.375 68.5078 103.375 67.875V63.375C103.375 62.8125 102.812 62.25 102.25 62.25H97.75ZM112.375 62.25C111.742 62.25 111.25 62.8125 111.25 63.375V67.875C111.25 68.5078 111.742 69 112.375 69H116.875C117.438 69 118 68.5078 118 67.875V63.375C118 62.8125 117.438 62.25 116.875 62.25H112.375Z" fill="#76B900"/>
<rect y="108" width="200" height="3" fill="#76B900"/>
<defs>
<linearGradient id="paint0_linear_28_12" x1="100" y1="0" x2="100" y2="110" gradientUnits="userSpaceOnUse">
<stop stop-color="#76B900" stop-opacity="0.2"/>
<stop offset="0.555" stop-color="#76B900" stop-opacity="0"/>
<stop offset="0.995" stop-color="white" stop-opacity="0.02"/>
</linearGradient>
</defs>
</svg>
