<svg width="200" height="111" viewBox="0 0 200 111" fill="none" xmlns="http://www.w3.org/2000/svg">
<rect width="200" height="110" fill="white"/>
<rect width="200" height="110" fill="url(#paint0_linear_28_12)"/>
<path d="M100 40H95C94.2969 40 93.75 40.625 93.75 41.25V46.25C93.75 46.9531 94.2969 47.5 95 47.5H96.25H98.75H100C100.625 47.5 101.25 46.9531 101.25 46.25V41.25C101.25 40.625 100.625 40 100 40ZM95 50C92.8906 50 91.25 48.3594 91.25 46.25V41.25C91.25 39.2188 92.8906 37.5 95 37.5H100C102.031 37.5 103.75 39.2188 103.75 41.25V46.25C103.75 48.3594 102.031 50 100 50H98.75V53.75H111.25C113.281 53.75 115 55.4688 115 57.5V60H116.25C118.281 60 120 61.7188 120 63.75V68.75C120 70.8594 118.281 72.5 116.25 72.5H111.25C109.141 72.5 107.5 70.8594 107.5 68.75V63.75C107.5 61.7188 109.141 60 111.25 60H112.5V57.5C112.5 56.875 111.875 56.25 111.25 56.25H98.75V60H100C102.031 60 103.75 61.7188 103.75 63.75V68.75C103.75 70.8594 102.031 72.5 100 72.5H95C92.8906 72.5 91.25 70.8594 91.25 68.75V63.75C91.25 61.7188 92.8906 60 95 60H96.25V56.25H83.75C83.0469 56.25 82.5 56.875 82.5 57.5V60H83.75C85.7812 60 87.5 61.7188 87.5 63.75V68.75C87.5 70.8594 85.7812 72.5 83.75 72.5H78.75C76.6406 72.5 75 70.8594 75 68.75V63.75C75 61.7188 76.6406 60 78.75 60H80V57.5C80 55.4688 81.6406 53.75 83.75 53.75H96.25V50H95ZM78.75 62.5C78.0469 62.5 77.5 63.125 77.5 63.75V68.75C77.5 69.4531 78.0469 70 78.75 70H83.75C84.375 70 85 69.4531 85 68.75V63.75C85 63.125 84.375 62.5 83.75 62.5H78.75ZM95 62.5C94.2969 62.5 93.75 63.125 93.75 63.75V68.75C93.75 69.4531 94.2969 70 95 70H100C100.625 70 101.25 69.4531 101.25 68.75V63.75C101.25 63.125 100.625 62.5 100 62.5H95ZM111.25 62.5C110.547 62.5 110 63.125 110 63.75V68.75C110 69.4531 110.547 70 111.25 70H116.25C116.875 70 117.5 69.4531 117.5 68.75V63.75C117.5 63.125 116.875 62.5 116.25 62.5H111.25Z" fill="#76B900"/>
<rect y="107" width="200" height="4" fill="#76B900"/>
<defs>
<linearGradient id="paint0_linear_28_12" x1="100" y1="0" x2="100" y2="116.769" gradientUnits="userSpaceOnUse">
<stop stop-color="#76B900" stop-opacity="0.2"/>
<stop offset="0.65" stop-color="#76B900" stop-opacity="0.02"/>
</linearGradient>
</defs>
</svg>
