<svg width="200" height="111" viewBox="0 0 200 111" fill="none" xmlns="http://www.w3.org/2000/svg">
<rect width="200" height="110" fill="white"/>
<rect width="200" height="110" fill="url(#paint0_linear_28_54)"/>
<path d="M110.82 47.9766C111.805 48.1172 112.859 48.4688 113.773 48.8906C113.703 46.4297 112.719 44.0391 110.891 42.2812L110.75 42.2109C110.68 42.0703 110.469 42 110.258 42.0703H110.188C109.977 42.0703 109.836 42.2109 109.766 42.3516C109.273 41.7891 108.711 41.2969 108.078 40.875C108.5 40.3125 109.062 39.9609 109.695 39.8906L109.836 39.8203C110.75 39.6797 111.664 39.9609 112.367 40.5938L112.438 40.6641C115.039 43.2656 116.305 46.8516 115.953 50.4375L117.57 51.6328C118.906 52.6875 119.75 54.2344 119.75 55.9219C119.75 58.8047 117.359 61.1953 114.406 61.1953H107.797L105.547 63.4453H109.062C110.891 63.4453 112.438 64.9219 112.438 66.8203C112.438 68.6484 110.891 70.1953 109.062 70.1953H100.766C99.2891 70.1953 97.8125 69.5625 96.7578 68.5078L95.9141 67.5938L91.2031 70.7578C89.6562 71.7422 87.5469 71.3203 86.5625 69.7734C85.5078 68.2266 85.9297 66.1172 87.4766 65.1328L90.9922 62.7422L87.125 58.875C86.4219 58.1719 85.9297 57.3984 85.5078 56.4844C85.0859 56.625 84.7344 56.6953 84.2422 56.6953C81.5 56.6953 79.1797 54.375 79.1797 51.6328C79.1797 48.8203 81.5 46.5703 84.2422 46.5703C85.4375 46.5703 86.4922 46.9219 87.3359 47.5547C88.7422 46.2188 90.6406 45.4453 92.75 45.4453H93.3828C94.5781 45.4453 95.7734 45.6562 96.8984 46.2188L101.68 48.3281C101.328 47.625 101.047 46.7812 100.836 45.9375L100.344 43.5469C100.062 42.2812 100.766 40.9453 102.031 40.5234C102.523 40.3828 103.086 40.3828 103.648 40.5234C107.164 41.5781 109.906 44.3906 110.82 47.9766ZM84.9453 54.375C84.875 54.0234 84.875 53.6719 84.875 53.3203C84.875 51.8438 85.2266 50.5078 85.9297 49.3125C85.4375 49.0312 84.875 48.8203 84.3125 48.8203C82.6953 48.8203 81.5 50.0859 81.5 51.6328C81.5 53.1797 82.6953 54.4453 84.3125 54.4453C84.5234 54.4453 84.7344 54.375 84.9453 54.375ZM88.7422 66.9609C88.1797 67.3125 88.0391 68.0156 88.3906 68.5781C88.7422 69.0703 89.4453 69.2109 89.9375 68.8594L94.2969 65.9766L92.6094 64.3594L88.7422 66.9609ZM102.734 42.7031C102.594 42.7734 102.523 42.9141 102.523 43.0547L103.086 45.5156C103.438 47.4141 104.422 49.0312 105.828 50.2969C106.25 50.7188 106.32 51.2812 106.039 51.7734C105.758 52.2656 105.125 52.4062 104.633 52.1953L95.9844 48.2578C95.1406 47.9062 94.2969 47.6953 93.3828 47.6953H92.75C89.6562 47.6953 87.125 50.2266 87.125 53.3203C87.125 54.7969 87.6875 56.2734 88.7422 57.3281L98.375 66.9609C99.0078 67.5938 99.8516 67.9453 100.766 67.9453H109.062C109.625 67.9453 110.188 67.4531 110.188 66.8203C110.188 66.1875 109.625 65.6953 109.062 65.6953H102.875C102.383 65.6953 101.961 65.4141 101.82 64.9922C101.75 64.8516 101.75 64.7109 101.75 64.5703L101.539 62.1094C101.328 59.3672 99.4297 56.9766 96.8281 56.1328L94.6484 55.5C94.0156 55.2891 93.7344 54.6562 93.875 54.0938C94.0859 53.5312 94.7188 53.1797 95.2812 53.3203L97.4609 54.0234C100.977 55.0781 103.508 58.2422 103.789 61.9688V62.0391L106.531 59.2266C106.742 59.0156 107.023 58.9453 107.375 58.9453H114.406C116.094 58.9453 117.5 57.5391 117.5 55.9219C117.5 54.9375 117.008 54.0234 116.234 53.4609L113.633 51.4922C112.508 50.6484 111.242 50.2266 109.836 50.1562C109.344 50.0859 108.922 49.7344 108.781 49.3125L108.641 48.6797C107.938 45.7969 105.828 43.5469 102.945 42.7031C102.875 42.6328 102.805 42.6328 102.734 42.7031ZM113 53.3203C113.562 53.3203 114.125 53.8125 114.125 54.4453C114.125 55.0781 113.562 55.5703 113 55.5703C112.367 55.5703 111.875 55.0781 111.875 54.4453C111.875 53.8125 112.367 53.3203 113 53.3203Z" fill="#76B900"/>
<rect y="108" width="200" height="3" fill="#76B900"/>
<defs>
<linearGradient id="paint0_linear_28_54" x1="100" y1="0" x2="100" y2="110" gradientUnits="userSpaceOnUse">
<stop stop-color="#76B900" stop-opacity="0.2"/>
<stop offset="0.555" stop-color="#76B900" stop-opacity="0"/>
<stop offset="0.995" stop-color="white" stop-opacity="0.02"/>
</linearGradient>
</defs>
</svg>
