<svg width="200" height="111" viewBox="0 0 200 111" fill="none" xmlns="http://www.w3.org/2000/svg">
<rect width="200" height="110" fill="white"/>
<rect width="200" height="110" fill="url(#paint0_linear_28_54)"/>
<path d="M112.078 46.6406C113.172 46.7969 114.344 47.1875 115.359 47.6562C115.281 44.9219 114.188 42.2656 112.156 40.3125L112 40.2344C111.922 40.0781 111.688 40 111.453 40.0781H111.375C111.141 40.0781 110.984 40.2344 110.906 40.3906C110.359 39.7656 109.734 39.2188 109.031 38.75C109.5 38.125 110.125 37.7344 110.828 37.6562L110.984 37.5781C112 37.4219 113.016 37.7344 113.797 38.4375L113.875 38.5156C116.766 41.4062 118.172 45.3906 117.781 49.375L119.578 50.7031C121.062 51.875 122 53.5938 122 55.4688C122 58.6719 119.344 61.3281 116.062 61.3281H108.719L106.219 63.8281H110.125C112.156 63.8281 113.875 65.4688 113.875 67.5781C113.875 69.6094 112.156 71.3281 110.125 71.3281H100.906C99.2656 71.3281 97.625 70.625 96.4531 69.4531L95.5156 68.4375L90.2812 71.9531C88.5625 73.0469 86.2188 72.5781 85.125 70.8594C83.9531 69.1406 84.4219 66.7969 86.1406 65.7031L90.0469 63.0469L85.75 58.75C84.9688 57.9688 84.4219 57.1094 83.9531 56.0938C83.4844 56.25 83.0938 56.3281 82.5469 56.3281C79.5 56.3281 76.9219 53.75 76.9219 50.7031C76.9219 47.5781 79.5 45.0781 82.5469 45.0781C83.875 45.0781 85.0469 45.4688 85.9844 46.1719C87.5469 44.6875 89.6562 43.8281 92 43.8281H92.7031C94.0312 43.8281 95.3594 44.0625 96.6094 44.6875L101.922 47.0312C101.531 46.25 101.219 45.3125 100.984 44.375L100.438 41.7188C100.125 40.3125 100.906 38.8281 102.312 38.3594C102.859 38.2031 103.484 38.2031 104.109 38.3594C108.016 39.5312 111.062 42.6562 112.078 46.6406ZM83.3281 53.75C83.25 53.3594 83.25 52.9688 83.25 52.5781C83.25 50.9375 83.6406 49.4531 84.4219 48.125C83.875 47.8125 83.25 47.5781 82.625 47.5781C80.8281 47.5781 79.5 48.9844 79.5 50.7031C79.5 52.4219 80.8281 53.8281 82.625 53.8281C82.8594 53.8281 83.0938 53.75 83.3281 53.75ZM87.5469 67.7344C86.9219 68.125 86.7656 68.9062 87.1562 69.5312C87.5469 70.0781 88.3281 70.2344 88.875 69.8438L93.7188 66.6406L91.8438 64.8438L87.5469 67.7344ZM103.094 40.7812C102.938 40.8594 102.859 41.0156 102.859 41.1719L103.484 43.9062C103.875 46.0156 104.969 47.8125 106.531 49.2188C107 49.6875 107.078 50.3125 106.766 50.8594C106.453 51.4062 105.75 51.5625 105.203 51.3281L95.5938 46.9531C94.6562 46.5625 93.7188 46.3281 92.7031 46.3281H92C88.5625 46.3281 85.75 49.1406 85.75 52.5781C85.75 54.2188 86.375 55.8594 87.5469 57.0312L98.25 67.7344C98.9531 68.4375 99.8906 68.8281 100.906 68.8281H110.125C110.75 68.8281 111.375 68.2812 111.375 67.5781C111.375 66.875 110.75 66.3281 110.125 66.3281H103.25C102.703 66.3281 102.234 66.0156 102.078 65.5469C102 65.3906 102 65.2344 102 65.0781L101.766 62.3438C101.531 59.2969 99.4219 56.6406 96.5312 55.7031L94.1094 55C93.4062 54.7656 93.0938 54.0625 93.25 53.4375C93.4844 52.8125 94.1875 52.4219 94.8125 52.5781L97.2344 53.3594C101.141 54.5312 103.953 58.0469 104.266 62.1875V62.2656L107.312 59.1406C107.547 58.9062 107.859 58.8281 108.25 58.8281H116.062C117.938 58.8281 119.5 57.2656 119.5 55.4688C119.5 54.375 118.953 53.3594 118.094 52.7344L115.203 50.5469C113.953 49.6094 112.547 49.1406 110.984 49.0625C110.438 48.9844 109.969 48.5938 109.812 48.125L109.656 47.4219C108.875 44.2188 106.531 41.7188 103.328 40.7812C103.25 40.7031 103.172 40.7031 103.094 40.7812ZM114.5 52.5781C115.125 52.5781 115.75 53.125 115.75 53.8281C115.75 54.5312 115.125 55.0781 114.5 55.0781C113.797 55.0781 113.25 54.5312 113.25 53.8281C113.25 53.125 113.797 52.5781 114.5 52.5781Z" fill="#76B900"/>
<rect y="107" width="200" height="4" fill="#76B900"/>
<defs>
<linearGradient id="paint0_linear_28_54" x1="100" y1="0" x2="100" y2="116.769" gradientUnits="userSpaceOnUse">
<stop stop-color="#76B900" stop-opacity="0.2"/>
<stop offset="0.65" stop-color="#76B900" stop-opacity="0.02"/>
</linearGradient>
</defs>
</svg>
