<svg width="200" height="111" viewBox="0 0 200 111" fill="none" xmlns="http://www.w3.org/2000/svg">
<rect width="200" height="110" fill="white"/>
<rect width="200" height="110" fill="url(#paint0_linear_28_54)"/>
<path d="M115.906 48.5938C116.297 45.1562 115.125 41.7188 112.547 39.2188L112.469 39.1406C112.156 38.8281 111.766 38.6719 111.375 38.75L111.219 38.8281C110.75 38.9062 110.359 39.2188 110.281 39.6875C110.203 39.8438 110.203 40.0781 110.125 40.2344C109.812 39.8438 109.5 39.5312 109.109 39.2188C109.422 38.3594 110.125 37.7344 110.984 37.5781H111.141C111.922 37.4219 112.781 37.6562 113.328 38.2031L113.484 38.3594C116.375 41.25 117.703 45.3906 117 49.375L119.734 51.25C121.141 52.1875 122 53.75 122 55.4688C122 58.3594 119.656 60.625 116.766 60.625H107.703L104.578 64.375H110.125C111.844 64.375 113.25 65.7812 113.25 67.5C113.25 69.2969 111.844 70.625 110.125 70.625H100.906C99.4219 70.625 98.0156 70.0781 96.9219 68.9844L95.6719 67.7344L89.3438 72.0312C87.8594 72.9688 85.9062 72.5781 84.9688 71.1719C84.0312 69.6875 84.4219 67.7344 85.8281 66.7969L91.2188 63.2812L86.2188 58.2812C85.2031 57.2656 84.4219 55.9375 84.1094 54.5312C83.4844 54.8438 82.7031 55 82 55C79.1875 55 77 52.8125 77 50C77 47.2656 79.1875 45 82 45C83.6406 45 85.0469 45.8594 85.9844 47.0312C87.4688 45.3906 89.5781 44.375 92 44.375H92.7031C93.9531 44.375 95.2031 44.6875 96.375 45.2344L102.625 48.0469C101.688 46.9531 101.062 45.625 100.672 44.2188L99.8906 41.3281C99.5 40.1562 100.047 38.9844 101.062 38.3594L101.297 38.2812C101.844 37.8906 102.469 37.8906 103.094 38.0469C106.609 39.2188 109.344 42.1094 110.281 45.7812L110.516 46.875V46.9531C110.75 46.9531 110.906 46.875 111.141 46.875C112.625 46.875 114.109 47.3438 115.281 48.2031L115.906 48.5938ZM83.875 52.5781C83.875 50.9375 84.3438 49.375 85.2031 48.125C84.5 47.0312 83.3281 46.25 82 46.25C79.8906 46.25 78.25 47.9688 78.25 50C78.25 52.1094 79.8906 53.75 82 53.75C82.625 53.75 83.3281 53.5938 83.875 53.2812C83.875 53.0469 83.875 52.8125 83.875 52.5781ZM92.0781 64.1406L86.5312 67.8125C85.6719 68.4375 85.4375 69.6094 86.0625 70.4688C86.6094 71.3281 87.7812 71.5625 88.6406 70.9375L94.8125 66.875L92.0781 64.1406ZM102.703 39.2188C102.391 39.1406 102.156 39.2188 101.922 39.2969L101.688 39.4531C101.141 39.7656 100.906 40.3906 101.062 41.0156L101.844 43.9062C102.547 46.3281 104.188 48.4375 106.453 49.6094C106.453 49.6875 106.531 49.6875 106.609 49.6875C106.766 49.7656 106.922 49.9219 107 50.0781C107.078 50.2344 107 50.4688 106.922 50.625V50.7031C106.766 51.0156 106.375 51.1719 106.062 51.0156L95.8281 46.3281C94.8125 45.8594 93.7969 45.625 92.7031 45.625H92C88.1719 45.625 85.125 48.75 85.125 52.5781C85.125 54.375 85.8281 56.0938 87.0781 57.4219L97.7812 68.125C98.6406 68.9844 99.7344 69.375 100.906 69.375H110.125C111.141 69.375 112 68.5938 112 67.5C112 66.4844 111.141 65.625 110.125 65.625H104.5H102.625C102.234 65.625 102 65.3906 102 65V62.5C102 59.7656 100.281 57.2656 97.7031 56.1719L94.8125 55C94.5 54.8438 94.3438 54.4531 94.5 54.1406C94.6562 53.8281 95.0469 53.6719 95.3594 53.8281L98.25 55C101.219 56.3281 103.25 59.2188 103.25 62.5V64.0625L106.922 59.6875C107 59.5312 107.234 59.4531 107.391 59.4531H116.766C118.953 59.4531 120.75 57.6562 120.75 55.4688C120.75 54.2188 120.047 52.9688 119.031 52.2656L114.578 49.2188C113.562 48.5156 112.391 48.2031 111.141 48.2031C110.75 48.2031 110.438 48.2031 110.125 48.2812C109.969 48.2812 109.734 48.2812 109.578 48.125C109.422 47.9688 109.344 47.8125 109.344 47.6562C109.344 47.5 109.344 47.3438 109.344 47.1875L109.031 46.0938C108.25 42.8906 105.828 40.3125 102.703 39.2188ZM115.75 53.75C115.75 54.4531 115.125 55 114.5 55C113.797 55 113.25 54.4531 113.25 53.75C113.25 53.125 113.797 52.5 114.5 52.5C115.125 52.5 115.75 53.125 115.75 53.75Z" fill="#76B900"/>
<rect y="109" width="200" height="2" fill="#76B900"/>
<defs>
<linearGradient id="paint0_linear_28_54" x1="100" y1="0" x2="100" y2="116.769" gradientUnits="userSpaceOnUse">
<stop stop-color="#76B900" stop-opacity="0.2"/>
<stop offset="0.65" stop-color="#76B900" stop-opacity="0.02"/>
</linearGradient>
</defs>
</svg>
