<svg width="200" height="111" viewBox="0 0 200 111" fill="none" xmlns="http://www.w3.org/2000/svg">
<rect width="200" height="110" fill="white"/>
<rect width="200" height="110" fill="url(#paint0_linear_28_37)"/>
<path d="M87.75 35C88.375 35 89 35.625 89 36.25V40H104V36.25C104 35.625 104.547 35 105.25 35C105.875 35 106.5 35.625 106.5 36.25V40H109C111.734 40 114 42.2656 114 45V47.5V50V50.0781C113.531 50.0781 113.141 50 112.75 50C112.281 50 111.891 50.0781 111.5 50.0781V50H81.5V70C81.5 71.4062 82.5938 72.5 84 72.5H102.125C102.906 73.5156 103.766 74.2969 104.781 75H84C81.1875 75 79 72.8125 79 70V50V47.5V45C79 42.2656 81.1875 40 84 40H86.5V36.25C86.5 35.625 87.0469 35 87.75 35ZM109 42.5H84C82.5938 42.5 81.5 43.6719 81.5 45V47.5H111.5V45C111.5 43.6719 110.328 42.5 109 42.5ZM112.75 72.5C115.875 72.5 118.688 70.8594 120.25 68.125C121.891 65.4688 121.891 62.1094 120.25 59.375C118.688 56.7188 115.875 55 112.75 55C109.547 55 106.734 56.7188 105.172 59.375C103.531 62.1094 103.531 65.4688 105.172 68.125C106.734 70.8594 109.547 72.5 112.75 72.5ZM112.75 52.5C116.734 52.5 120.406 54.6875 122.438 58.125C124.469 61.6406 124.469 65.9375 122.438 69.375C120.406 72.8906 116.734 75 112.75 75C108.688 75 105.016 72.8906 102.984 69.375C100.953 65.9375 100.953 61.6406 102.984 58.125C105.016 54.6875 108.688 52.5 112.75 52.5ZM112.75 57.5C113.375 57.5 114 58.125 114 58.75V62.5H116.5C117.125 62.5 117.75 63.125 117.75 63.75C117.75 64.4531 117.125 65 116.5 65H112.75C112.047 65 111.5 64.4531 111.5 63.75V58.75C111.5 58.125 112.047 57.5 112.75 57.5Z" fill="#76B900"/>
<rect y="107" width="200" height="4" fill="#76B900"/>
<defs>
<linearGradient id="paint0_linear_28_37" x1="100" y1="0" x2="100" y2="116.769" gradientUnits="userSpaceOnUse">
<stop stop-color="#76B900" stop-opacity="0.2"/>
<stop offset="0.65" stop-color="#76B900" stop-opacity="0.02"/>
</linearGradient>
</defs>
</svg>
