<svg width="200" height="112" viewBox="0 0 200 112" fill="none" xmlns="http://www.w3.org/2000/svg">
<rect width="200" height="110" fill="white"/>
<rect width="200" height="110" fill="url(#paint0_linear_28_37)"/>
<path d="M86.875 36.5C87.4375 36.5 88 37.0625 88 37.625V41H101.5V37.625C101.5 37.0625 101.992 36.5 102.625 36.5C103.188 36.5 103.75 37.0625 103.75 37.625V41H106C108.461 41 110.5 43.0391 110.5 45.5V47.75V50V50.0703C110.078 50.0703 109.727 50 109.375 50C108.953 50 108.602 50.0703 108.25 50.0703V50H81.25V68C81.25 69.2656 82.2344 70.25 83.5 70.25H99.8125C100.516 71.1641 101.289 71.8672 102.203 72.5H83.5C80.9688 72.5 79 70.5312 79 68V50V47.75V45.5C79 43.0391 80.9688 41 83.5 41H85.75V37.625C85.75 37.0625 86.2422 36.5 86.875 36.5ZM106 43.25H83.5C82.2344 43.25 81.25 44.3047 81.25 45.5V47.75H108.25V45.5C108.25 44.3047 107.195 43.25 106 43.25ZM109.375 70.25C112.188 70.25 114.719 68.7734 116.125 66.3125C117.602 63.9219 117.602 60.8984 116.125 58.4375C114.719 56.0469 112.188 54.5 109.375 54.5C106.492 54.5 103.961 56.0469 102.555 58.4375C101.078 60.8984 101.078 63.9219 102.555 66.3125C103.961 68.7734 106.492 70.25 109.375 70.25ZM109.375 52.25C112.961 52.25 116.266 54.2188 118.094 57.3125C119.922 60.4766 119.922 64.3438 118.094 67.4375C116.266 70.6016 112.961 72.5 109.375 72.5C105.719 72.5 102.414 70.6016 100.586 67.4375C98.7578 64.3438 98.7578 60.4766 100.586 57.3125C102.414 54.2188 105.719 52.25 109.375 52.25ZM109.375 56.75C109.938 56.75 110.5 57.3125 110.5 57.875V61.25H112.75C113.312 61.25 113.875 61.8125 113.875 62.375C113.875 63.0078 113.312 63.5 112.75 63.5H109.375C108.742 63.5 108.25 63.0078 108.25 62.375V57.875C108.25 57.3125 108.742 56.75 109.375 56.75Z" fill="#76B900"/>
<rect y="109" width="200" height="3" fill="#76B900"/>
<defs>
<linearGradient id="paint0_linear_28_37" x1="100" y1="0" x2="100" y2="110" gradientUnits="userSpaceOnUse">
<stop stop-color="#76B900" stop-opacity="0.2"/>
<stop offset="0.555" stop-color="#76B900" stop-opacity="0"/>
<stop offset="0.995" stop-color="white" stop-opacity="0.02"/>
</linearGradient>
</defs>
</svg>
