<svg width="200" height="112" viewBox="0 0 200 112" fill="none" xmlns="http://www.w3.org/2000/svg">
<rect width="200" height="110" fill="white"/>
<rect width="200" height="110" fill="url(#paint0_linear_28_37)"/>
<path d="M88.375 35C88.6875 35 89 35.3125 89 35.625V40H104V35.625C104 35.3125 104.234 35 104.625 35C104.938 35 105.25 35.3125 105.25 35.625V40H109C111.734 40 114 42.2656 114 45V48.75V50V50.0781C113.531 50.0781 113.141 50 112.75 50H80.25V70C80.25 72.1094 81.8906 73.75 84 73.75H103.297C103.766 74.2188 104.234 74.6875 104.781 75H84C81.1875 75 79 72.8125 79 70V50V48.75V45C79 42.2656 81.1875 40 84 40H87.75V35.625C87.75 35.3125 87.9844 35 88.375 35ZM87.75 44.375V41.25H84C81.8906 41.25 80.25 42.9688 80.25 45V48.75H112.75V45C112.75 42.9688 111.031 41.25 109 41.25H105.25V44.375C105.25 44.7656 104.938 45 104.625 45C104.234 45 104 44.7656 104 44.375V41.25H89V44.375C89 44.7656 88.6875 45 88.375 45C87.9844 45 87.75 44.7656 87.75 44.375ZM112.75 73.75C116.266 73.75 119.547 71.875 121.344 68.75C123.141 65.7031 123.141 61.875 121.344 58.75C119.547 55.7031 116.266 53.75 112.75 53.75C109.156 53.75 105.875 55.7031 104.078 58.75C102.281 61.875 102.281 65.7031 104.078 68.75C105.875 71.875 109.156 73.75 112.75 73.75ZM112.75 52.5C116.734 52.5 120.406 54.6875 122.438 58.125C124.469 61.6406 124.469 65.9375 122.438 69.375C120.406 72.8906 116.734 75 112.75 75C108.688 75 105.016 72.8906 102.984 69.375C100.953 65.9375 100.953 61.6406 102.984 58.125C105.016 54.6875 108.688 52.5 112.75 52.5ZM112.75 57.5C113.062 57.5 113.375 57.8125 113.375 58.125V63.125H117.125C117.438 63.125 117.75 63.4375 117.75 63.75C117.75 64.1406 117.438 64.375 117.125 64.375H112.75C112.359 64.375 112.125 64.1406 112.125 63.75V58.125C112.125 57.8125 112.359 57.5 112.75 57.5Z" fill="#76B900"/>
<rect y="110" width="200" height="2" fill="#76B900"/>
<defs>
<linearGradient id="paint0_linear_28_37" x1="100" y1="0" x2="100" y2="116.769" gradientUnits="userSpaceOnUse">
<stop stop-color="#76B900" stop-opacity="0.2"/>
<stop offset="0.65" stop-color="#76B900" stop-opacity="0.02"/>
</linearGradient>
</defs>
</svg>
