<svg width="200" height="111" viewBox="0 0 200 111" fill="none" xmlns="http://www.w3.org/2000/svg">
<rect width="200" height="110" fill="white"/>
<rect width="200" height="110" fill="url(#paint0_linear_28_47)"/>
<path d="M112 38.75H87C84.8906 38.75 83.25 40.4688 83.25 42.5V67.5C83.25 69.6094 84.8906 71.25 87 71.25H112C114.031 71.25 115.75 69.6094 115.75 67.5V42.5C115.75 40.4688 114.031 38.75 112 38.75ZM87 37.5H112C114.734 37.5 117 39.7656 117 42.5V67.5C117 70.3125 114.734 72.5 112 72.5H87C84.1875 72.5 82 70.3125 82 67.5V42.5C82 39.7656 84.1875 37.5 87 37.5ZM89.5781 47.1094C89.8125 46.875 90.2031 46.7969 90.5156 47.0312L99.2656 54.5312C99.4219 54.6875 99.5 54.8438 99.5 55C99.5 55.2344 99.4219 55.3906 99.2656 55.5469L90.5156 63.0469C90.2031 63.2031 89.8125 63.2031 89.5781 62.9688C89.4219 62.6562 89.4219 62.2656 89.6562 62.0312L97.8594 55L89.6562 48.0469C89.4219 47.8125 89.4219 47.4219 89.5781 47.1094ZM97.625 63.75H111.375C111.688 63.75 112 64.0625 112 64.375C112 64.7656 111.688 65 111.375 65H97.625C97.2344 65 97 64.7656 97 64.375C97 64.0625 97.2344 63.75 97.625 63.75Z" fill="#76B900"/>
<rect y="109" width="200" height="2" fill="#76B900"/>
<defs>
<linearGradient id="paint0_linear_28_47" x1="100" y1="0" x2="100" y2="116.769" gradientUnits="userSpaceOnUse">
<stop stop-color="#76B900" stop-opacity="0.2"/>
<stop offset="0.65" stop-color="#76B900" stop-opacity="0.02"/>
</linearGradient>
</defs>
</svg>
