<svg width="330" height="21" viewBox="0 0 330 21" fill="none" xmlns="http://www.w3.org/2000/svg">
<path d="M116.252 16.8152V16.5013H116.461C116.575 16.5013 116.731 16.5095 116.731 16.6437C116.731 16.7895 116.651 16.8152 116.516 16.8152H116.252ZM116.252 17.0357H116.393L116.716 17.5852H117.072L116.714 17.0135C116.899 17.0007 117.051 16.9155 117.051 16.674C117.051 16.3753 116.837 16.2785 116.476 16.2785H115.953V17.584H116.254V17.0345M117.774 16.933C117.774 16.1665 117.156 15.7208 116.469 15.7208C115.781 15.7208 115.16 16.1653 115.16 16.933C115.16 17.7007 115.776 18.1463 116.469 18.1463C117.161 18.1463 117.774 17.6995 117.774 16.933ZM117.397 16.933C117.397 17.4918 116.971 17.8663 116.469 17.8663V17.8628C115.952 17.8663 115.535 17.4918 115.535 16.933C115.535 16.3742 115.953 16.0008 116.469 16.0008C116.985 16.0008 117.397 16.3742 117.397 16.933Z" fill="white"/>
<path d="M69.8703 3.96203V17.724H73.8964V3.96203H69.8703ZM38.2043 3.94336V17.724H42.2654V7.02686L45.4336 7.03736C46.4751 7.03736 47.1965 7.27886 47.6979 7.79569C48.3347 8.45136 48.5945 9.50719 48.5945 11.4392V17.724H52.5287V10.1104C52.5287 4.67603 48.9413 3.94336 45.4323 3.94336H38.2043ZM76.3505 3.96203V17.7229H82.879C86.3577 17.7229 87.4923 17.164 88.7211 15.9122C89.5887 15.0325 90.1494 13.1029 90.1494 10.9935C90.1494 9.05919 89.6745 7.33369 88.8468 6.25919C87.3558 4.33769 85.2074 3.96203 81.9993 3.96203H76.3505ZM80.344 6.95919H82.0742C84.5851 6.95919 86.2091 8.04769 86.2091 10.8722C86.2091 13.6967 84.5851 14.7864 82.0742 14.7864H80.344V6.95919ZM64.0656 3.96203L60.7066 14.868L57.4876 3.96203H53.1426L57.7402 17.7229H63.5412L68.1751 3.96203H64.0668H64.0656ZM92.0234 17.724H96.0495V3.96319H92.0222V17.724H92.0234ZM103.308 3.96786L97.6868 17.7194H101.656L102.545 15.2892H109.197L110.039 17.7194H114.348L108.685 3.96669H103.308V3.96786ZM105.92 6.47619L108.359 12.9185H103.404L105.92 6.47619Z" fill="white"/>
<path d="M12.2438 6.25567V4.36217C12.4347 4.34933 12.6268 4.33883 12.8226 4.333C18.1874 4.16967 21.7072 8.78383 21.7072 8.78383C21.7072 8.78383 17.9059 13.8822 13.8303 13.8822C13.243 13.8822 12.7174 13.7912 12.2438 13.6372V7.89367C14.3329 8.1375 14.7522 9.02767 16.0076 11.0483L18.8 8.7745C18.8 8.7745 16.7616 6.19267 13.3252 6.19267C12.9518 6.19267 12.5942 6.21833 12.2426 6.2545M12.2438 0V2.82917C12.4359 2.814 12.6292 2.80233 12.8226 2.79533C20.2826 2.55267 25.1437 8.70333 25.1437 8.70333C25.1437 8.70333 19.5613 15.2577 13.7445 15.2577C13.2116 15.2577 12.7126 15.2098 12.2438 15.1305V16.8793C12.6449 16.9283 13.0606 16.9575 13.4932 16.9575C18.9052 16.9575 22.8201 14.2893 26.6105 11.13C27.2389 11.6153 29.8113 12.7972 30.3406 13.3152C26.7362 16.2283 18.3385 18.5757 13.5765 18.5757C13.1174 18.5757 12.6763 18.5488 12.2438 18.5092V20.9662H32.8152V0H12.2438ZM12.2438 13.6372V15.1305C7.23776 14.2683 5.84821 9.24467 5.84821 9.24467C5.84821 9.24467 8.25153 6.67333 12.2438 6.25683V7.89483C12.2438 7.89483 12.2389 7.89483 12.2365 7.89483C10.1413 7.65217 8.50527 9.54217 8.50527 9.54217C8.50527 9.54217 9.42238 12.7237 12.245 13.6395M3.35305 9.0265C3.35305 9.0265 6.31944 4.79967 12.2438 4.36217V2.82917C5.68267 3.33783 0 8.70333 0 8.70333C0 8.70333 3.21772 17.6867 12.2438 18.5092V16.8793C5.61983 16.0743 3.35305 9.0265 3.35305 9.0265Z" fill="#76B900"/>
<path d="M127.575 17.7333V3.85001H130.198L136.592 12.9138V3.85001H139.396V17.7333H136.774L130.379 8.66951V17.7333H127.575Z" fill="white"/>
<path d="M146.557 17.7333L141.312 3.85001H144.499L147.969 14.084L151.438 3.85001H154.464L149.199 17.7333H146.557Z" fill="white"/>
<path d="M156.376 17.7333V3.85001H159.321V17.7333H156.376Z" fill="white"/>
<path d="M162.66 17.7333V3.85001H168.289C169.714 3.85001 170.911 4.12106 171.879 4.66317C172.861 5.20529 173.601 5.96556 174.098 6.94401C174.609 7.92245 174.865 9.07279 174.865 10.395V11.1685C174.865 13.2047 174.3 14.8112 173.17 15.988C172.041 17.1516 170.413 17.7333 168.289 17.7333H162.66ZM165.606 15.2343H168.208C169.405 15.2343 170.319 14.9104 170.951 14.2625C171.597 13.6014 171.92 12.5899 171.92 11.228V10.3355C171.92 9.02651 171.597 8.03484 170.951 7.36051C170.319 6.68617 169.405 6.34901 168.208 6.34901H165.606V15.2343Z" fill="white"/>
<path d="M177.593 17.7333V3.85001H180.538V17.7333H177.593Z" fill="white"/>
<path d="M182.445 17.7333L187.891 3.85001H190.534L196.001 17.7333H192.814L191.805 14.9368H186.459L185.451 17.7333H182.445ZM187.327 12.5568H190.938L189.142 7.57867L187.327 12.5568Z" fill="white"/>
<path d="M202.966 17.7333V3.85001H208.312C209.953 3.85001 211.25 4.22684 212.205 4.98051C213.174 5.73417 213.658 6.77873 213.658 8.11417V8.49101C213.658 9.42979 213.422 10.2231 212.952 10.871C212.494 11.5189 211.849 12.0081 211.015 12.3387L214.102 17.7333H210.894L208.11 12.775H205.911V17.7333H202.966ZM205.911 10.276H208.231C208.944 10.276 209.536 10.1438 210.006 9.87934C210.477 9.6149 210.713 9.17195 210.713 8.55051V8.05467C210.713 7.45967 210.477 7.02995 210.006 6.76551C209.536 6.48784 208.944 6.34901 208.231 6.34901H205.911V10.276Z" fill="white"/>
<path d="M219.393 18.011C218.25 18.011 217.342 17.654 216.67 16.94C215.997 16.2128 215.661 15.1815 215.661 13.846V7.49934H218.485V13.4692C218.485 14.1567 218.62 14.6922 218.889 15.0757C219.158 15.4459 219.581 15.631 220.16 15.631H220.321C220.644 15.631 220.953 15.5451 221.249 15.3732C221.545 15.2013 221.787 14.9368 221.975 14.5798C222.177 14.2096 222.278 13.7402 222.278 13.1717V7.49934H225.102V17.7333H222.641V16.464C222.305 16.9665 221.874 17.3499 221.35 17.6143C220.825 17.8788 220.24 18.011 219.595 18.011H219.393Z" fill="white"/>
<path d="M227.72 17.7333V7.49934H230.181V8.76867C230.531 8.27945 230.975 7.90262 231.513 7.63818C232.064 7.36051 232.676 7.22167 233.349 7.22167H233.55C234.734 7.22167 235.668 7.58529 236.354 8.31251C237.054 9.02651 237.403 10.0512 237.403 11.3867V17.7333H234.579V11.7635C234.579 11.076 234.431 10.5471 234.135 10.1768C233.853 9.7934 233.402 9.60167 232.784 9.60167H232.622C232.286 9.60167 231.957 9.68762 231.634 9.85951C231.325 10.0314 231.062 10.2958 230.847 10.6528C230.645 11.0098 230.545 11.4792 230.545 12.061V17.7333H227.72Z" fill="white"/>
<path d="M239.673 17.7333V14.7187H242.638V17.7333H239.673ZM239.673 10.3752V7.36051H242.638V10.3752H239.673Z" fill="white"/>
<path d="M247.845 18.011C246.729 18.011 245.862 17.74 245.243 17.1978C244.638 16.6557 244.335 15.8955 244.335 14.917C244.335 14.0179 244.611 13.2973 245.162 12.7552C245.727 12.2131 246.541 11.8759 247.603 11.7437L250.871 11.3272V11.2478C250.871 10.0446 250.313 9.44301 249.197 9.44301H248.995C248.497 9.44301 248.081 9.53556 247.744 9.72067C247.408 9.89256 247.126 10.2033 246.897 10.6528L244.739 9.54217C245.048 8.8414 245.566 8.27945 246.292 7.85634C247.032 7.43323 247.926 7.22167 248.975 7.22167H249.277C252.223 7.22167 253.695 8.57695 253.695 11.2875V17.7333H251.234V16.4442C250.911 16.9334 250.461 17.3168 249.883 17.5945C249.318 17.8722 248.672 18.011 247.946 18.011H247.845ZM250.871 13.1915L248.713 13.489C248.094 13.5816 247.664 13.7138 247.422 13.8857C247.18 14.0443 247.058 14.3088 247.058 14.679C247.058 15.036 247.193 15.3203 247.462 15.5318C247.744 15.7302 248.114 15.8293 248.571 15.8293H248.733C249.405 15.8293 249.93 15.6376 250.306 15.2542C250.683 14.8707 250.871 14.3485 250.871 13.6873V13.1915Z" fill="white"/>
<path d="M256.206 17.7333V7.49934H259.03V17.7333H256.206ZM256.166 6.05151V3.27484H259.071V6.05151H256.166Z" fill="white"/>
<path d="M267.05 17.7333V3.85001H272.678C274.103 3.85001 275.3 4.12106 276.269 4.66317C277.25 5.20529 277.99 5.96556 278.488 6.94401C278.999 7.92245 279.254 9.07279 279.254 10.395V11.1685C279.254 13.2047 278.689 14.8112 277.56 15.988C276.43 17.1516 274.803 17.7333 272.678 17.7333H267.05ZM269.995 15.2343H272.597C273.794 15.2343 274.709 14.9104 275.341 14.2625C275.986 13.6014 276.309 12.5899 276.309 11.228V10.3355C276.309 9.02651 275.986 8.03484 275.341 7.36051C274.709 6.68617 273.794 6.34901 272.597 6.34901H269.995V15.2343Z" fill="white"/>
<path d="M287.893 18.011C286.521 18.011 285.344 17.7333 284.363 17.178C283.394 16.6227 282.648 15.836 282.123 14.8178C281.612 13.7997 281.357 12.5899 281.357 11.1883V10.395C281.357 8.99345 281.612 7.78362 282.123 6.76551C282.648 5.7474 283.394 4.96067 284.363 4.40534C285.344 3.85001 286.521 3.57234 287.893 3.57234H288.094C289.466 3.57234 290.636 3.85001 291.604 4.40534C292.586 4.96067 293.333 5.7474 293.844 6.76551C294.368 7.78362 294.63 8.99345 294.63 10.395V11.1883C294.63 12.5899 294.368 13.7997 293.844 14.8178C293.333 15.836 292.586 16.6227 291.604 17.178C290.636 17.7333 289.466 18.011 288.094 18.011H287.893ZM287.913 15.4723H288.074C289.177 15.4723 290.051 15.122 290.697 14.4212C291.356 13.7204 291.685 12.6626 291.685 11.2478V10.3355C291.685 8.92073 291.356 7.86295 290.697 7.16217C290.051 6.4614 289.177 6.11101 288.074 6.11101H287.913C286.81 6.11101 285.929 6.4614 285.27 7.16217C284.625 7.86295 284.302 8.92073 284.302 10.3355V11.2478C284.302 12.6626 284.625 13.7204 285.27 14.4212C285.929 15.122 286.81 15.4723 287.913 15.4723Z" fill="white"/>
<path d="M303.138 18.011C301.04 18.011 299.446 17.4094 298.357 16.2062C297.267 15.003 296.723 13.3237 296.723 11.1685V10.395C296.723 8.99345 296.971 7.78362 297.469 6.76551C297.967 5.7474 298.693 4.96067 299.648 4.40534C300.603 3.85001 301.766 3.57234 303.138 3.57234H303.299C304.738 3.57234 305.935 3.88306 306.89 4.50451C307.844 5.12595 308.517 6.00523 308.907 7.14234L306.163 8.09434C305.975 7.40679 305.625 6.90434 305.114 6.58701C304.617 6.26967 304.012 6.11101 303.299 6.11101H303.178C302.075 6.11101 301.214 6.4614 300.596 7.16217C299.977 7.86295 299.668 8.92073 299.668 10.3355V11.228C299.668 12.6957 299.964 13.7733 300.555 14.4608C301.161 15.1352 302.035 15.4723 303.178 15.4723H303.299C304.025 15.4723 304.65 15.3203 305.175 15.0162C305.699 14.6988 306.069 14.1964 306.284 13.5088L308.967 14.5402C308.564 15.6376 307.878 16.4905 306.91 17.0987C305.942 17.7069 304.738 18.011 303.299 18.011H303.138Z" fill="white"/>
<path d="M315.775 18.011C312.83 18.011 310.953 16.9863 310.147 14.9368L312.628 13.6873C313.098 14.917 314.147 15.5318 315.775 15.5318H316.037C317.745 15.5318 318.599 14.9897 318.599 13.9055V13.7072C318.599 13.2841 318.451 12.9205 318.155 12.6163C317.859 12.3122 317.436 12.1271 316.884 12.061L314.685 11.8032C313.341 11.6445 312.318 11.2346 311.619 10.5735C310.92 9.89917 310.57 8.98684 310.57 7.83651V7.59851C310.57 6.77873 310.785 6.07134 311.216 5.47634C311.646 4.86812 312.251 4.39873 313.031 4.06818C313.825 3.73762 314.753 3.57234 315.815 3.57234H316.118C317.409 3.57234 318.498 3.83017 319.386 4.34584C320.273 4.84829 320.912 5.58212 321.302 6.54734L318.72 7.61834C318.357 6.57379 317.483 6.05151 316.097 6.05151H315.835C315.109 6.05151 314.537 6.19034 314.121 6.46801C313.717 6.74567 313.515 7.1159 313.515 7.57867V7.77701C313.515 8.58356 314.08 9.05956 315.21 9.20501L317.409 9.46284C318.78 9.62151 319.809 10.0645 320.495 10.7917C321.194 11.5189 321.544 12.4643 321.544 13.6278V13.8658C321.544 15.1881 321.073 16.2128 320.132 16.94C319.191 17.654 317.839 18.011 316.077 18.011H315.775Z" fill="white"/>
</svg>
