<svg width="245" height="21" viewBox="0 0 245 21" fill="none" xmlns="http://www.w3.org/2000/svg">
<path d="M116.252 16.8152V16.5013H116.461C116.575 16.5013 116.731 16.5095 116.731 16.6437C116.731 16.7895 116.651 16.8152 116.516 16.8152H116.252ZM116.252 17.0357H116.393L116.716 17.5852H117.072L116.714 17.0135C116.899 17.0007 117.051 16.9155 117.051 16.674C117.051 16.3753 116.837 16.2785 116.476 16.2785H115.953V17.584H116.254V17.0345M117.774 16.933C117.774 16.1665 117.156 15.7208 116.469 15.7208C115.781 15.7208 115.16 16.1653 115.16 16.933C115.16 17.7007 115.776 18.1463 116.469 18.1463C117.161 18.1463 117.774 17.6995 117.774 16.933ZM117.397 16.933C117.397 17.4918 116.971 17.8663 116.469 17.8663V17.8628C115.952 17.8663 115.535 17.4918 115.535 16.933C115.535 16.3742 115.953 16.0008 116.469 16.0008C116.985 16.0008 117.397 16.3742 117.397 16.933Z" fill="white"/>
<path d="M69.8704 3.96203V17.724H73.8964V3.96203H69.8704ZM38.2043 3.94336V17.724H42.2654V7.02686L45.4336 7.03736C46.4751 7.03736 47.1965 7.27886 47.6979 7.79569C48.3347 8.45136 48.5945 9.50719 48.5945 11.4392V17.724H52.5287V10.1104C52.5287 4.67603 48.9413 3.94336 45.4323 3.94336H38.2043ZM76.3505 3.96203V17.7229H82.879C86.3577 17.7229 87.4923 17.164 88.7211 15.9122C89.5887 15.0325 90.1494 13.1029 90.1494 10.9935C90.1494 9.05919 89.6745 7.33369 88.8468 6.25919C87.3558 4.33769 85.2074 3.96203 81.9993 3.96203H76.3505ZM80.344 6.95919H82.0742C84.5851 6.95919 86.2091 8.04769 86.2091 10.8722C86.2091 13.6967 84.5851 14.7864 82.0742 14.7864H80.344V6.95919ZM64.0656 3.96203L60.7066 14.868L57.4876 3.96203H53.1426L57.7402 17.7229H63.5412L68.1751 3.96203H64.0668H64.0656ZM92.0235 17.724H96.0495V3.96319H92.0222V17.724H92.0235ZM103.308 3.96786L97.6868 17.7194H101.656L102.545 15.2892H109.197L110.039 17.7194H114.348L108.685 3.96669H103.308V3.96786ZM105.92 6.47619L108.359 12.9185H103.404L105.92 6.47619Z" fill="white"/>
<path d="M12.2438 6.25567V4.36217C12.4347 4.34933 12.6268 4.33883 12.8226 4.333C18.1874 4.16967 21.7072 8.78383 21.7072 8.78383C21.7072 8.78383 17.9059 13.8822 13.8303 13.8822C13.243 13.8822 12.7174 13.7912 12.2438 13.6372V7.89367C14.3329 8.1375 14.7522 9.02767 16.0076 11.0483L18.8 8.7745C18.8 8.7745 16.7616 6.19267 13.3252 6.19267C12.9518 6.19267 12.5942 6.21833 12.2426 6.2545M12.2438 0V2.82917C12.4359 2.814 12.6292 2.80233 12.8226 2.79533C20.2826 2.55267 25.1437 8.70333 25.1437 8.70333C25.1437 8.70333 19.5613 15.2577 13.7445 15.2577C13.2116 15.2577 12.7126 15.2098 12.2438 15.1305V16.8793C12.6449 16.9283 13.0606 16.9575 13.4932 16.9575C18.9052 16.9575 22.8201 14.2893 26.6105 11.13C27.2389 11.6153 29.8113 12.7972 30.3406 13.3152C26.7362 16.2283 18.3385 18.5757 13.5765 18.5757C13.1174 18.5757 12.6763 18.5488 12.2438 18.5092V20.9662H32.8152V0H12.2438ZM12.2438 13.6372V15.1305C7.23776 14.2683 5.8482 9.24467 5.8482 9.24467C5.8482 9.24467 8.25153 6.67333 12.2438 6.25683V7.89483C12.2438 7.89483 12.2389 7.89483 12.2365 7.89483C10.1413 7.65217 8.50527 9.54217 8.50527 9.54217C8.50527 9.54217 9.42238 12.7237 12.245 13.6395M3.35305 9.0265C3.35305 9.0265 6.31944 4.79967 12.2438 4.36217V2.82917C5.68267 3.33783 0 8.70333 0 8.70333C0 8.70333 3.21772 17.6867 12.2438 18.5092V16.8793C5.61984 16.0743 3.35305 9.0265 3.35305 9.0265Z" fill="#76B900"/>
<path d="M123 17.7333V3.85001H128.346C129.986 3.85001 131.284 4.22684 132.239 4.98051C133.207 5.73417 133.691 6.77873 133.691 8.11417V8.49101C133.691 9.42979 133.456 10.2231 132.985 10.871C132.528 11.5189 131.883 12.0081 131.049 12.3387L134.135 17.7333H130.928L128.144 12.775H125.945V17.7333H123ZM125.945 10.276H128.265C128.978 10.276 129.57 10.1438 130.04 9.87934C130.511 9.6149 130.746 9.17195 130.746 8.55051V8.05467C130.746 7.45967 130.511 7.02995 130.04 6.76551C129.57 6.48784 128.978 6.34901 128.265 6.34901H125.945V10.276Z" fill="white"/>
<path d="M139.427 18.011C138.284 18.011 137.376 17.654 136.704 16.94C136.031 16.2128 135.695 15.1815 135.695 13.846V7.49934H138.519V13.4692C138.519 14.1567 138.654 14.6922 138.923 15.0757C139.192 15.4459 139.615 15.631 140.194 15.631H140.355C140.678 15.631 140.987 15.5451 141.283 15.3732C141.579 15.2013 141.821 14.9368 142.009 14.5798C142.211 14.2096 142.312 13.7402 142.312 13.1717V7.49934H145.136V17.7333H142.675V16.464C142.339 16.9665 141.908 17.3499 141.384 17.6143C140.859 17.8788 140.274 18.011 139.629 18.011H139.427Z" fill="white"/>
<path d="M147.754 17.7333V7.49934H150.215V8.76867C150.565 8.27945 151.009 7.90262 151.547 7.63818C152.098 7.36051 152.71 7.22167 153.382 7.22167H153.584C154.767 7.22167 155.702 7.58529 156.388 8.31251C157.087 9.02651 157.437 10.0512 157.437 11.3867V17.7333H154.613V11.7635C154.613 11.076 154.465 10.5471 154.169 10.1768C153.887 9.7934 153.436 9.60167 152.817 9.60167H152.656C152.32 9.60167 151.99 9.68762 151.668 9.85951C151.358 10.0314 151.096 10.2958 150.881 10.6528C150.679 11.0098 150.578 11.4792 150.578 12.061V17.7333H147.754Z" fill="white"/>
<path d="M159.707 17.7333V14.7187H162.672V17.7333H159.707ZM159.707 10.3752V7.36051H162.672V10.3752H159.707Z" fill="white"/>
<path d="M167.879 18.011C166.763 18.011 165.895 17.74 165.277 17.1978C164.672 16.6557 164.369 15.8955 164.369 14.917C164.369 14.0179 164.645 13.2973 165.196 12.7552C165.761 12.2131 166.574 11.8759 167.637 11.7437L170.905 11.3272V11.2478C170.905 10.0446 170.347 9.44301 169.231 9.44301H169.029C168.531 9.44301 168.114 9.53556 167.778 9.72067C167.442 9.89256 167.16 10.2033 166.931 10.6528L164.772 9.54217C165.082 8.8414 165.599 8.27945 166.326 7.85634C167.065 7.43323 167.96 7.22167 169.009 7.22167H169.311C172.256 7.22167 173.729 8.57695 173.729 11.2875V17.7333H171.268V16.4442C170.945 16.9334 170.495 17.3168 169.916 17.5945C169.352 17.8722 168.706 18.011 167.98 18.011H167.879ZM170.905 13.1915L168.746 13.489C168.128 13.5816 167.697 13.7138 167.455 13.8857C167.213 14.0443 167.092 14.3088 167.092 14.679C167.092 15.036 167.227 15.3203 167.496 15.5318C167.778 15.7302 168.148 15.8293 168.605 15.8293H168.767C169.439 15.8293 169.963 15.6376 170.34 15.2542C170.717 14.8707 170.905 14.3485 170.905 13.6873V13.1915Z" fill="white"/>
<path d="M176.24 17.7333V7.49934H179.064V17.7333H176.24ZM176.2 6.05151V3.27484H179.105V6.05151H176.2Z" fill="white"/>
<path d="M187.083 17.7333V3.85001H192.712C194.137 3.85001 195.334 4.12106 196.302 4.66317C197.284 5.20529 198.024 5.96556 198.521 6.94401C199.032 7.92245 199.288 9.07279 199.288 10.395V11.1685C199.288 13.2047 198.723 14.8112 197.593 15.988C196.464 17.1516 194.836 17.7333 192.712 17.7333H187.083ZM190.029 15.2343H192.631C193.828 15.2343 194.742 14.9104 195.374 14.2625C196.02 13.6014 196.343 12.5899 196.343 11.228V10.3355C196.343 9.02651 196.02 8.03484 195.374 7.36051C194.742 6.68618 193.828 6.34901 192.631 6.34901H190.029V15.2343Z" fill="white"/>
<path d="M207.926 18.011C206.555 18.011 205.378 17.7333 204.396 17.178C203.428 16.6227 202.682 15.836 202.157 14.8178C201.646 13.7997 201.391 12.5899 201.391 11.1883V10.395C201.391 8.99345 201.646 7.78362 202.157 6.76551C202.682 5.7474 203.428 4.96067 204.396 4.40534C205.378 3.85001 206.555 3.57234 207.926 3.57234H208.128C209.5 3.57234 210.67 3.85001 211.638 4.40534C212.62 4.96067 213.366 5.7474 213.877 6.76551C214.402 7.78362 214.664 8.99345 214.664 10.395V11.1883C214.664 12.5899 214.402 13.7997 213.877 14.8178C213.366 15.836 212.62 16.6227 211.638 17.178C210.67 17.7333 209.5 18.011 208.128 18.011H207.926ZM207.947 15.4723H208.108C209.211 15.4723 210.085 15.122 210.73 14.4212C211.389 13.7204 211.719 12.6626 211.719 11.2478V10.3355C211.719 8.92073 211.389 7.86295 210.73 7.16217C210.085 6.4614 209.211 6.11101 208.108 6.11101H207.947C206.844 6.11101 205.963 6.4614 205.304 7.16217C204.659 7.86295 204.336 8.92073 204.336 10.3355V11.2478C204.336 12.6626 204.659 13.7204 205.304 14.4212C205.963 15.122 206.844 15.4723 207.947 15.4723Z" fill="white"/>
<path d="M223.171 18.011C221.073 18.011 219.48 17.4094 218.39 16.2062C217.301 15.003 216.756 13.3237 216.756 11.1685V10.395C216.756 8.99345 217.005 7.78362 217.503 6.76551C218 5.7474 218.727 4.96067 219.681 4.40534C220.636 3.85001 221.8 3.57234 223.171 3.57234H223.333C224.772 3.57234 225.969 3.88306 226.923 4.50451C227.878 5.12595 228.551 6.00523 228.941 7.14234L226.197 8.09434C226.009 7.40679 225.659 6.90434 225.148 6.58701C224.651 6.26967 224.045 6.11101 223.333 6.11101H223.212C222.109 6.11101 221.248 6.4614 220.63 7.16217C220.011 7.86295 219.702 8.92073 219.702 10.3355V11.228C219.702 12.6957 219.997 13.7733 220.589 14.4608C221.194 15.1352 222.069 15.4723 223.212 15.4723H223.333C224.059 15.4723 224.684 15.3203 225.209 15.0162C225.733 14.6988 226.103 14.1964 226.318 13.5088L229.001 14.5402C228.598 15.6376 227.912 16.4905 226.944 17.0987C225.975 17.7069 224.772 18.011 223.333 18.011H223.171Z" fill="white"/>
<path d="M235.808 18.011C232.863 18.011 230.987 16.9863 230.18 14.9368L232.662 13.6873C233.132 14.917 234.181 15.5318 235.808 15.5318H236.071C237.779 15.5318 238.633 14.9897 238.633 13.9055V13.7072C238.633 13.2841 238.485 12.9205 238.189 12.6163C237.893 12.3122 237.469 12.1271 236.918 12.061L234.719 11.8032C233.374 11.6445 232.352 11.2346 231.653 10.5735C230.954 9.89917 230.604 8.98684 230.604 7.83651V7.59851C230.604 6.77873 230.819 6.07134 231.249 5.47634C231.68 4.86812 232.285 4.39873 233.065 4.06818C233.858 3.73762 234.786 3.57234 235.849 3.57234H236.151C237.442 3.57234 238.532 3.83017 239.419 4.34584C240.307 4.84829 240.946 5.58212 241.336 6.54734L238.754 7.61834C238.391 6.57379 237.516 6.05151 236.131 6.05151H235.869C235.143 6.05151 234.571 6.19034 234.154 6.46801C233.751 6.74567 233.549 7.1159 233.549 7.57867V7.77701C233.549 8.58356 234.114 9.05956 235.244 9.20501L237.442 9.46284C238.814 9.62151 239.843 10.0645 240.529 10.7917C241.228 11.5189 241.578 12.4643 241.578 13.6278V13.8658C241.578 15.1881 241.107 16.2128 240.166 16.94C239.224 17.654 237.873 18.011 236.111 18.011H235.808Z" fill="white"/>
</svg>
