<svg xmlns="http://www.w3.org/2000/svg" viewBox="0 0 207.51 97.17"><defs><style>.cls-1{fill:#f0628a;}.cls-2{fill:#fff;}</style></defs><title>Asset 1</title><g id="Layer_2" data-name="Layer 2"><g id="Layer_1-2" data-name="Layer 1"><path class="cls-1" d="M187.17,66.32h-9.63a2.5,2.5,0,0,1-1.85-.57,4,4,0,0,1,0-4,2.46,2.46,0,0,1,1.85-.58h13a2.43,2.43,0,0,1,1.84.58,2.86,2.86,0,0,1,.56,2V91.16h12.22a2.5,2.5,0,0,1,1.85.57,4,4,0,0,1,0,4,2.46,2.46,0,0,1-1.85.58H175.25a2.43,2.43,0,0,1-1.84-.58,3.91,3.91,0,0,1,0-4,2.47,2.47,0,0,1,1.84-.57h11.92Z"/><path class="cls-1" d="M183.83,25.51a5,5,0,0,1,2,.42,5.46,5.46,0,0,1,2.82,2.83,4.86,4.86,0,0,1,.43,2,4.75,4.75,0,0,1-.43,2,5.69,5.69,0,0,1-1.14,1.67,5.4,5.4,0,0,1-1.68,1.13,5.19,5.19,0,0,1-2,.41,5.13,5.13,0,0,1-2-.41,5.55,5.55,0,0,1-1.66-1.13A5.3,5.3,0,0,1,179,32.82a5.06,5.06,0,0,1-.41-2,5.17,5.17,0,0,1,.41-2,5.23,5.23,0,0,1,1.13-1.68,5.81,5.81,0,0,1,1.66-1.15A5,5,0,0,1,183.83,25.51Z"/><path class="cls-2" d="M119.13,6h-3.88a2.5,2.5,0,0,1-1.85-.57,2.89,2.89,0,0,1-.55-2,2.87,2.87,0,0,1,.55-2,2.5,2.5,0,0,1,1.85-.57h6.81a2.5,2.5,0,0,1,1.85.57,2.87,2.87,0,0,1,.55,2V8a18.38,18.38,0,0,1,5.87-6,13.72,13.72,0,0,1,7.27-2,12.08,12.08,0,0,1,4.73.88,10.08,10.08,0,0,1,3.56,2.47,11,11,0,0,1,2.24,3.91,16,16,0,0,1,.78,5.16V30.85H152a2.47,2.47,0,0,1,1.84.57,2.87,2.87,0,0,1,.56,2,2.89,2.89,0,0,1-.56,2A2.47,2.47,0,0,1,152,36H139.7a2.5,2.5,0,0,1-1.85-.57,2.89,2.89,0,0,1-.55-2,2.87,2.87,0,0,1,.55-2,2.5,2.5,0,0,1,1.85-.57h3.5V13a11.17,11.17,0,0,0-.38-3,6.59,6.59,0,0,0-1.14-2.33,5.22,5.22,0,0,0-1.93-1.5A6.38,6.38,0,0,0,137,5.64a10.54,10.54,0,0,0-4.64,1.06,12.16,12.16,0,0,0-3.89,3,14.45,14.45,0,0,0-2.67,4.54,16.18,16.18,0,0,0-1,5.75V30.85h3.51a2.51,2.51,0,0,1,1.85.57,2.92,2.92,0,0,1,.55,2,2.94,2.94,0,0,1-.55,2,2.51,2.51,0,0,1-1.85.57H116a2.5,2.5,0,0,1-1.85-.57,2.89,2.89,0,0,1-.55-2,2.87,2.87,0,0,1,.55-2,2.5,2.5,0,0,1,1.85-.57h3.12Z"/><path class="cls-2" d="M153.32,91.16a2.5,2.5,0,0,1,1.85.57,4,4,0,0,1,0,4,2.46,2.46,0,0,1-1.85.58h-2.43a8.67,8.67,0,0,1-2.25-.29,5.86,5.86,0,0,1-3.41-2.42,5.81,5.81,0,0,1-.89-2.17,25,25,0,0,1-6.63,4.17,19.77,19.77,0,0,1-7.85,1.54,17.53,17.53,0,0,1-5.25-.74,12.06,12.06,0,0,1-4.15-2.17,9.88,9.88,0,0,1-2.73-3.48,11,11,0,0,1-1-4.73A11.07,11.07,0,0,1,118,80.61,10.1,10.1,0,0,1,121.35,77a15,15,0,0,1,4.91-2,26.35,26.35,0,0,1,5.93-.65,35.48,35.48,0,0,1,6,.5,33.47,33.47,0,0,1,5.59,1.45V73q0-3.69-1.77-5.43t-6.07-1.73a24,24,0,0,0-6.19.82,16.61,16.61,0,0,0-5.5,2.53,2.18,2.18,0,0,1-1.79.46,3.11,3.11,0,0,1-1.76-1.37,2.85,2.85,0,0,1-.66-2.12,2.49,2.49,0,0,1,1-1.58,18.82,18.82,0,0,1,3.28-1.92,22.75,22.75,0,0,1,3.71-1.33,28.74,28.74,0,0,1,3.93-.77,32.92,32.92,0,0,1,3.94-.24q6.81,0,10.19,3.2T149.48,73V88.15c0,2,.83,3,2.51,3Zm-9.56-9.79a31.07,31.07,0,0,0-5.59-1.3,42.62,42.62,0,0,0-5.95-.42,19.46,19.46,0,0,0-3.79.35,9.67,9.67,0,0,0-3,1.08,5.6,5.6,0,0,0-2,1.94,5.69,5.69,0,0,0-.7,2.92,5.23,5.23,0,0,0,1.92,4.32,8.4,8.4,0,0,0,5.39,1.54,16.46,16.46,0,0,0,7.47-1.69,22.83,22.83,0,0,0,6.2-4.59Z"/><path class="cls-2" d="M183.83,0a4.87,4.87,0,0,1,2,.43,5.46,5.46,0,0,1,1.68,1.15,5.61,5.61,0,0,1,1.14,1.68,4.82,4.82,0,0,1,.43,2,4.82,4.82,0,0,1-.43,2A5.64,5.64,0,0,1,187.54,9a5.23,5.23,0,0,1-1.68,1.13,5,5,0,0,1-2,.41,5,5,0,0,1-2-.41A5.37,5.37,0,0,1,180.13,9,5.26,5.26,0,0,1,179,7.32a5.23,5.23,0,0,1,0-4.06,5.23,5.23,0,0,1,1.13-1.68A5.61,5.61,0,0,1,181.79.43,4.82,4.82,0,0,1,183.83,0Z"/><path class="cls-2" d="M8.38,6H3.54a2.51,2.51,0,0,1-1.85-.57,2.94,2.94,0,0,1-.55-2,2.92,2.92,0,0,1,.55-2A2.51,2.51,0,0,1,3.54.84h7.77a2.51,2.51,0,0,1,1.85.57,2.87,2.87,0,0,1,.55,2v7.69a25.76,25.76,0,0,1,3.22-4.61A22.07,22.07,0,0,1,20.79,3,17.63,17.63,0,0,1,25.06.78,13.07,13.07,0,0,1,29.44,0,10.84,10.84,0,0,1,35,1.52a2.94,2.94,0,0,1,1.41,1.6,3.6,3.6,0,0,1-.23,2.36,4,4,0,0,1-1.35,1.95,1.68,1.68,0,0,1-1.92-.08,8.39,8.39,0,0,0-4-1A10.35,10.35,0,0,0,25.42,7,15.23,15.23,0,0,0,22,8.7a17,17,0,0,0-3.08,2.71,19.53,19.53,0,0,0-2.51,3.48A17.93,17.93,0,0,0,14.7,19a16.33,16.33,0,0,0-.61,4.49v7.39H26.93a2.47,2.47,0,0,1,1.84.57,2.87,2.87,0,0,1,.56,2,2.89,2.89,0,0,1-.56,2,2.47,2.47,0,0,1-1.84.57H2.4a2.51,2.51,0,0,1-1.85-.57,2.89,2.89,0,0,1-.55-2,2.87,2.87,0,0,1,.55-2,2.51,2.51,0,0,1,1.85-.57h6Z"/><path class="cls-2" d="M91.75,30.85a2.51,2.51,0,0,1,1.85.57,2.92,2.92,0,0,1,.55,2,2.94,2.94,0,0,1-.55,2,2.51,2.51,0,0,1-1.85.57H85.69a2.51,2.51,0,0,1-1.84-.55,2.81,2.81,0,0,1-.56-2V28.87a18.46,18.46,0,0,1-5.86,6,13.76,13.76,0,0,1-7.28,2A12,12,0,0,1,65.43,36a10,10,0,0,1-3.56-2.47,10.82,10.82,0,0,1-2.25-3.91,16,16,0,0,1-.78-5.16V6H55.72a2.51,2.51,0,0,1-1.85-.57,2.89,2.89,0,0,1-.55-2,2.87,2.87,0,0,1,.55-2A2.51,2.51,0,0,1,55.72.84h6.44A2.47,2.47,0,0,1,64,1.41a2.87,2.87,0,0,1,.56,2V23.88a10.78,10.78,0,0,0,.38,3,6.46,6.46,0,0,0,1.14,2.32A5.19,5.19,0,0,0,68,30.7a6.58,6.58,0,0,0,2.73.53,10.42,10.42,0,0,0,4.64-1.07,12.27,12.27,0,0,0,3.89-3,14.68,14.68,0,0,0,2.66-4.53,16.18,16.18,0,0,0,1-5.75V6H77.5a2.49,2.49,0,0,1-1.84-.57,2.89,2.89,0,0,1-.55-2,2.87,2.87,0,0,1,.55-2A2.49,2.49,0,0,1,77.5.84h8.73a2.47,2.47,0,0,1,1.84.57,2.87,2.87,0,0,1,.56,2V30.85Z"/></g></g></svg>