<svg width="200" height="111" viewBox="0 0 200 111" fill="none" xmlns="http://www.w3.org/2000/svg">
<rect width="200" height="110" fill="white"/>
<rect width="200" height="110" fill="url(#paint0_linear_28_17)"/>
<path d="M84 40C82.5938 40 81.5 41.1719 81.5 42.5V62.5H79V42.5C79 39.7656 81.1875 37.5 84 37.5H114C116.734 37.5 119 39.7656 119 42.5V62.5H116.5V42.5C116.5 41.1719 115.328 40 114 40H84ZM76.5781 67.5C77.0469 68.9844 78.375 70 79.9375 70H117.984C119.547 70 120.875 68.9844 121.344 67.5H76.5781ZM75.4844 65H122.438C123.297 65 124 65.7031 124 66.5625C124 69.8438 121.266 72.5 117.984 72.5H79.9375C76.6562 72.5 74 69.8438 74 66.5625C74 65.7031 74.625 65 75.4844 65ZM96.1094 48.4375L91.9688 52.5L96.1094 56.6406C96.5781 57.1094 96.5781 57.9688 96.1094 58.4375C95.6406 58.9062 94.7812 58.9062 94.3125 58.4375L89.3125 53.4375C88.8438 52.9688 88.8438 52.1094 89.3125 51.6406L94.3125 46.6406C94.7812 46.1719 95.6406 46.1719 96.1094 46.6406C96.5781 47.1094 96.5781 47.9688 96.1094 48.4375ZM103.609 46.6406L108.609 51.6406C109.078 52.1094 109.078 52.9688 108.609 53.4375L103.609 58.4375C103.141 58.9062 102.281 58.9062 101.812 58.4375C101.344 57.9688 101.344 57.1094 101.812 56.6406L105.953 52.5L101.812 48.4375C101.344 47.9688 101.344 47.1094 101.812 46.6406C102.281 46.1719 103.141 46.1719 103.609 46.6406Z" fill="#76B900"/>
<rect y="107" width="200" height="4" fill="#76B900"/>
<defs>
<linearGradient id="paint0_linear_28_17" x1="100" y1="0" x2="100" y2="116.769" gradientUnits="userSpaceOnUse">
<stop stop-color="#76B900" stop-opacity="0.2"/>
<stop offset="0.65" stop-color="#76B900" stop-opacity="0.02"/>
</linearGradient>
</defs>
</svg>
