<svg width="200" height="111" viewBox="0 0 200 111" fill="none" xmlns="http://www.w3.org/2000/svg">
<rect width="200" height="110" fill="white"/>
<rect width="200" height="110" fill="url(#paint0_linear_28_17)"/>
<path d="M81.5 36.5C79.7422 36.5 78.375 37.9648 78.375 39.625V64.625H75.25V39.625C75.25 36.207 77.9844 33.375 81.5 33.375H119C122.418 33.375 125.25 36.207 125.25 39.625V64.625H122.125V39.625C122.125 37.9648 120.66 36.5 119 36.5H81.5ZM72.2227 70.875C72.8086 72.7305 74.4688 74 76.4219 74H123.98C125.934 74 127.594 72.7305 128.18 70.875H72.2227ZM70.8555 67.75H129.547C130.621 67.75 131.5 68.6289 131.5 69.7031C131.5 73.8047 128.082 77.125 123.98 77.125H76.4219C72.3203 77.125 69 73.8047 69 69.7031C69 68.6289 69.7812 67.75 70.8555 67.75ZM96.6367 47.0469L91.4609 52.125L96.6367 57.3008C97.2227 57.8867 97.2227 58.9609 96.6367 59.5469C96.0508 60.1328 94.9766 60.1328 94.3906 59.5469L88.1406 53.2969C87.5547 52.7109 87.5547 51.6367 88.1406 51.0508L94.3906 44.8008C94.9766 44.2148 96.0508 44.2148 96.6367 44.8008C97.2227 45.3867 97.2227 46.4609 96.6367 47.0469ZM106.012 44.8008L112.262 51.0508C112.848 51.6367 112.848 52.7109 112.262 53.2969L106.012 59.5469C105.426 60.1328 104.352 60.1328 103.766 59.5469C103.18 58.9609 103.18 57.8867 103.766 57.3008L108.941 52.125L103.766 47.0469C103.18 46.4609 103.18 45.3867 103.766 44.8008C104.352 44.2148 105.426 44.2148 106.012 44.8008Z" fill="#76B900"/>
<rect y="107" width="200" height="4" fill="#76B900"/>
<defs>
<linearGradient id="paint0_linear_28_17" x1="100" y1="0" x2="100" y2="116.769" gradientUnits="userSpaceOnUse">
<stop stop-color="#76B900" stop-opacity="0.2"/>
<stop offset="0.65" stop-color="#76B900" stop-opacity="0.02"/>
</linearGradient>
</defs>
</svg>
