<svg width="200" height="111" viewBox="0 0 200 111" fill="none" xmlns="http://www.w3.org/2000/svg">
<rect width="200" height="110" fill="white"/>
<rect width="200" height="110" fill="url(#paint0_linear_28_17)"/>
<path d="M86 42C84.7344 42 83.75 43.0547 83.75 44.25V62.25H81.5V44.25C81.5 41.7891 83.4688 39.75 86 39.75H113C115.461 39.75 117.5 41.7891 117.5 44.25V62.25H115.25V44.25C115.25 43.0547 114.195 42 113 42H86ZM79.3203 66.75C79.7422 68.0859 80.9375 69 82.3438 69H116.586C117.992 69 119.188 68.0859 119.609 66.75H79.3203ZM78.3359 64.5H120.594C121.367 64.5 122 65.1328 122 65.9062C122 68.8594 119.539 71.25 116.586 71.25H82.3438C79.3906 71.25 77 68.8594 77 65.9062C77 65.1328 77.5625 64.5 78.3359 64.5ZM96.8984 49.5938L93.1719 53.25L96.8984 56.9766C97.3203 57.3984 97.3203 58.1719 96.8984 58.5938C96.4766 59.0156 95.7031 59.0156 95.2812 58.5938L90.7812 54.0938C90.3594 53.6719 90.3594 52.8984 90.7812 52.4766L95.2812 47.9766C95.7031 47.5547 96.4766 47.5547 96.8984 47.9766C97.3203 48.3984 97.3203 49.1719 96.8984 49.5938ZM103.648 47.9766L108.148 52.4766C108.57 52.8984 108.57 53.6719 108.148 54.0938L103.648 58.5938C103.227 59.0156 102.453 59.0156 102.031 58.5938C101.609 58.1719 101.609 57.3984 102.031 56.9766L105.758 53.25L102.031 49.5938C101.609 49.1719 101.609 48.3984 102.031 47.9766C102.453 47.5547 103.227 47.5547 103.648 47.9766Z" fill="#76B900"/>
<rect y="108" width="200" height="3" fill="#76B900"/>
<defs>
<linearGradient id="paint0_linear_28_17" x1="100" y1="0" x2="100" y2="110" gradientUnits="userSpaceOnUse">
<stop stop-color="#76B900" stop-opacity="0.2"/>
<stop offset="0.555" stop-color="#76B900" stop-opacity="0"/>
<stop offset="0.995" stop-color="white" stop-opacity="0.02"/>
</linearGradient>
</defs>
</svg>
