<svg width="200" height="111" viewBox="0 0 200 111" fill="none" xmlns="http://www.w3.org/2000/svg">
<rect width="200" height="110" fill="white"/>
<rect width="200" height="110" fill="url(#paint0_linear_28_42)"/>
<rect y="107" width="200" height="4" fill="#76B900"/>
<path d="M95.7969 39.9219C95.5625 41.0156 94.7031 41.875 93.7656 42.2656L93.6875 42.3438C92.6719 42.7344 91.5 42.7344 90.5625 42.1094L88.9219 41.0156C88.8438 40.9375 88.7656 40.9375 88.6094 40.9375C87.9062 41.4062 87.2812 42.0312 86.6562 42.6562H86.5781C85.9531 43.2812 85.4062 43.9844 84.8594 44.6875C84.8594 44.8438 84.8594 44.9219 84.9375 45L86.0312 46.6406C86.6562 47.5781 86.6562 48.75 86.2656 49.6875V49.8438C85.875 50.7812 85.0156 51.6406 83.8438 51.7969L81.9688 52.1875C81.8906 52.2656 81.7344 52.2656 81.6562 52.3438C81.5 53.2031 81.5 54.1406 81.5 55C81.5 55.9375 81.5 56.875 81.6562 57.7344C81.7344 57.8125 81.8906 57.8125 81.9688 57.8906L83.8438 58.2812C85.0156 58.4375 85.875 59.2969 86.2656 60.2344V60.3906C86.7344 61.3281 86.6562 62.5 86.0312 63.4375L84.9375 65.0781C84.8594 65.1562 84.8594 65.2344 84.8594 65.3906C85.875 66.7969 87.2031 68.125 88.6094 69.1406C88.7656 69.1406 88.8438 69.1406 88.9219 69.0625L90.5625 67.9688C91.5 67.3438 92.6719 67.3438 93.6875 67.7344H93.7656C94.7031 68.125 95.5625 68.9844 95.7969 70.1562L96.1875 72.0312C96.1875 72.1094 96.1875 72.2656 96.2656 72.3438C97.2031 72.4219 98.0625 72.5 99 72.5C99.8594 72.5 100.797 72.4219 101.656 72.3438C101.734 72.2656 101.734 72.1094 101.812 72.0312L102.203 70.1562C102.438 68.9844 103.219 68.125 104.156 67.7344H104.312C105.25 67.2656 106.422 67.3438 107.359 67.9688L109 69.0625C109.078 69.1406 109.156 69.1406 109.312 69.1406C110.719 68.125 112.047 66.7969 113.062 65.3906C113.062 65.2344 113.062 65.1562 112.984 65.0781L111.891 63.4375C111.266 62.5 111.266 61.3281 111.656 60.3125V60.2344C112.125 59.2969 112.906 58.4375 114.078 58.2031L115.953 57.8125C116.031 57.8125 116.188 57.7344 116.266 57.6562C116.344 56.7969 116.422 55.9375 116.422 55C116.422 54.0625 116.344 53.2031 116.266 52.3438C116.188 52.2656 116.031 52.1875 115.953 52.1875L114.078 51.7969C112.906 51.5625 112.047 50.7812 111.656 49.8438V49.6875C111.188 48.75 111.266 47.5781 111.891 46.6406L112.984 45C113.062 44.9219 113.062 44.7656 113.062 44.6875C112.516 43.9844 111.969 43.2812 111.344 42.6562H111.266C110.641 42.0312 110.016 41.4062 109.312 40.9375C109.156 40.9375 109.078 40.9375 109 41.0156L107.359 42.1094C106.422 42.7344 105.25 42.7344 104.312 42.3438H104.156C103.219 41.875 102.359 41.0938 102.203 39.9219L101.812 38.0469C101.734 37.8906 101.734 37.8125 101.656 37.7344C100.797 37.5781 99.8594 37.5 99 37.5C98.0625 37.5 97.125 37.5781 96.2656 37.7344C96.1875 37.8125 96.1875 37.8906 96.1094 38.0469L94.9375 37.8125L96.1094 38.0469L95.7969 39.9219ZM99 35C100.094 35 101.266 35.1562 102.359 35.3125C102.516 35.3906 102.672 35.3906 102.75 35.4688C103.531 35.9375 104.078 36.6406 104.234 37.5781L104.625 39.4531C104.625 39.6875 104.781 39.8438 105.094 40L105.25 40.0781C105.562 40.1562 105.797 40.1562 105.953 40L107.594 38.9844C108.375 38.4375 109.234 38.2812 110.094 38.5156C110.25 38.5156 110.406 38.5938 110.484 38.6719C111.422 39.375 112.281 40.0781 113.062 40.8594L113.141 40.9375C113.922 41.7188 114.625 42.5781 115.328 43.5156C115.406 43.5938 115.484 43.75 115.484 43.9062C115.719 44.7656 115.562 45.625 115.094 46.4062L114 47.9688C113.844 48.2031 113.844 48.4375 113.922 48.75L114 48.8281C114 48.9062 114 48.9062 114 48.9062C114.156 49.1406 114.312 49.2969 114.547 49.375L116.422 49.7656C117.359 49.9219 118.062 50.4688 118.531 51.1719C118.609 51.3281 118.609 51.4844 118.688 51.6406C118.844 52.7344 118.922 53.8281 118.922 55V55.0781C118.922 56.1719 118.844 57.3438 118.688 58.4375C118.609 58.5938 118.609 58.75 118.531 58.8281C118.062 59.6094 117.359 60.1562 116.422 60.3125L116.188 59.0625L116.422 60.3125L114.547 60.7031C114.312 60.7031 114.156 60.8594 114 61.1719L113.922 61.3281C113.844 61.6406 113.844 61.875 114 62.0312L115.094 63.6719C115.562 64.4531 115.719 65.3125 115.484 66.1719C115.484 66.3281 115.406 66.4844 115.328 66.5625C114 68.4375 112.359 70.0781 110.484 71.4062C110.406 71.4844 110.25 71.5625 110.094 71.5625C109.234 71.7969 108.375 71.6406 107.594 71.0938L106.031 70.0781C105.875 69.9219 105.562 69.9219 105.25 70L105.172 70.0781C104.859 70.1562 104.703 70.3906 104.625 70.625L104.234 72.5C104.078 73.3594 103.531 74.1406 102.828 74.6094C102.672 74.6875 102.516 74.6875 102.359 74.7656C101.266 74.9219 100.172 75 99 75C97.8281 75 96.6562 74.9219 95.5625 74.7656C95.4062 74.6875 95.25 74.6875 95.1719 74.6094C94.3906 74.1406 93.8438 73.4375 93.6875 72.5L93.2969 70.625C93.2969 70.3906 93.1406 70.1562 92.8281 70.0781L92.6719 70C92.3594 69.9219 92.125 69.9219 91.9688 70.0781L90.3281 71.0938C89.5469 71.6406 88.6875 71.7969 87.8281 71.5625C87.6719 71.5625 87.5938 71.4844 87.4375 71.4062C85.5625 70.0781 83.9219 68.4375 82.5938 66.5625C82.5156 66.4062 82.4375 66.3281 82.4375 66.1719C82.2031 65.3125 82.3594 64.4531 82.9062 63.6719L83.9219 62.1094C84.0781 61.875 84.0781 61.6406 84 61.3281L83.9219 61.1719C83.7656 60.9375 83.6094 60.7031 83.375 60.7031L81.5 60.3125C80.5625 60.1562 79.8594 59.6094 79.3906 58.8281C79.3125 58.75 79.3125 58.5938 79.2344 58.4375C79.0781 57.3438 79 56.1719 79 55C79 53.9062 79.0781 52.7344 79.2344 51.6406C79.3125 51.4844 79.3125 51.3281 79.3906 51.25C79.8594 50.4688 80.5625 49.9219 81.5 49.7656L83.375 49.375C83.6094 49.375 83.8438 49.1406 83.9219 48.9062L84 48.75C84.0781 48.4375 84.0781 48.2031 83.9219 47.9688L82.9062 46.4062C82.3594 45.625 82.2031 44.7656 82.4375 43.9062C82.4375 43.75 82.5156 43.5938 82.5938 43.5156C83.2969 42.5781 84 41.7188 84.7812 40.9375L84.8594 40.8594C85.6406 40.0781 86.5 39.375 87.4375 38.6719C87.5938 38.5938 87.6719 38.5156 87.8281 38.5156C88.6875 38.2812 89.5469 38.4375 90.3281 38.9062L91.8906 40C92.125 40.1562 92.3594 40.1562 92.6719 40.0781L92.8281 40C93.0625 39.8438 93.2969 39.6875 93.2969 39.4531L93.6875 37.5781C93.8438 36.6406 94.3906 35.9375 95.1719 35.4688C95.25 35.3906 95.4062 35.3125 95.5625 35.3125C96.6562 35.1562 97.8281 35 99 35ZM101.422 47.7344L98.9219 62.7344C98.8438 63.4375 98.2188 63.9062 97.5156 63.75C96.8125 63.6719 96.3438 63.0469 96.5 62.3438L99 47.3438C99.0781 46.6406 99.7031 46.1719 100.406 46.3281C101.109 46.4062 101.578 47.0312 101.422 47.7344ZM93.6094 52.8125L91.3438 55L93.6094 57.2656C94.0781 57.7344 94.0781 58.5938 93.6094 59.0625C93.1406 59.5312 92.2812 59.5312 91.8125 59.0625L88.6875 55.9375C88.2188 55.4688 88.2188 54.6094 88.6875 54.1406L91.8125 51.0156C92.2812 50.5469 93.1406 50.5469 93.6094 51.0156C94.0781 51.4844 94.0781 52.3438 93.6094 52.8125ZM106.109 51.0156L109.234 54.1406C109.703 54.6094 109.703 55.4688 109.234 55.9375L106.109 59.0625C105.641 59.5312 104.781 59.5312 104.312 59.0625C103.844 58.5938 103.844 57.7344 104.312 57.2656L106.578 55L104.312 52.8125C103.844 52.3438 103.844 51.4844 104.312 51.0156C104.781 50.5469 105.641 50.5469 106.109 51.0156Z" fill="#76B900"/>
<defs>
<linearGradient id="paint0_linear_28_42" x1="100" y1="0" x2="100" y2="116.769" gradientUnits="userSpaceOnUse">
<stop stop-color="#76B900" stop-opacity="0.2"/>
<stop offset="0.65" stop-color="#76B900" stop-opacity="0.02"/>
</linearGradient>
</defs>
</svg>
