<svg width="200" height="111" viewBox="0 0 200 111" fill="none" xmlns="http://www.w3.org/2000/svg">
<rect width="200" height="110" fill="white"/>
<rect width="200" height="110" fill="url(#paint0_linear_28_8)"/>
<path d="M95.9961 35.6954C95.7031 37.0626 94.6289 38.1368 93.457 38.6251L93.3594 38.7228C92.0898 39.2111 90.625 39.2111 89.4531 38.4298L87.4023 37.0626C87.3047 36.965 87.207 36.965 87.0117 36.965C86.1328 37.5509 85.3516 38.3322 84.5703 39.1134H84.4727C83.6914 39.8947 83.0078 40.7736 82.3242 41.6525C82.3242 41.8478 82.3242 41.9454 82.4219 42.0431L83.7891 44.0939C84.5703 45.2657 84.5703 46.7306 84.082 47.9025V48.0978C83.5938 49.2697 82.5195 50.3439 81.0547 50.5392L78.7109 51.0275C78.6133 51.1251 78.418 51.1251 78.3203 51.2228C78.125 52.297 78.125 53.4689 78.125 54.5431C78.125 55.715 78.125 56.8868 78.3203 57.9611C78.418 58.0587 78.6133 58.0587 78.7109 58.1564L81.0547 58.6447C82.5195 58.84 83.5938 59.9142 84.082 61.0861V61.2814C84.668 62.4532 84.5703 63.9181 83.7891 65.09L82.4219 67.1407C82.3242 67.2384 82.3242 67.3361 82.3242 67.5314C83.5938 69.2892 85.2539 70.9493 87.0117 72.2189C87.207 72.2189 87.3047 72.2189 87.4023 72.1212L89.4531 70.754C90.625 69.9728 92.0898 69.9728 93.3594 70.4611H93.457C94.6289 70.9493 95.7031 72.0236 95.9961 73.4884L96.4844 75.8322C96.4844 75.9298 96.4844 76.1251 96.582 76.2228C97.7539 76.3204 98.8281 76.4181 100 76.4181C101.074 76.4181 102.246 76.3204 103.32 76.2228C103.418 76.1251 103.418 75.9298 103.516 75.8322L104.004 73.4884C104.297 72.0236 105.273 70.9493 106.445 70.4611H106.641C107.812 69.8751 109.277 69.9728 110.449 70.754L112.5 72.1212C112.598 72.2189 112.695 72.2189 112.891 72.2189C114.648 70.9493 116.309 69.2892 117.578 67.5314C117.578 67.3361 117.578 67.2384 117.48 67.1407L116.113 65.09C115.332 63.9181 115.332 62.4532 115.82 61.1837V61.0861C116.406 59.9142 117.383 58.84 118.848 58.547L121.191 58.0587C121.289 58.0587 121.484 57.9611 121.582 57.8634C121.68 56.7892 121.777 55.715 121.777 54.5431C121.777 53.3712 121.68 52.297 121.582 51.2228C121.484 51.1251 121.289 51.0275 121.191 51.0275L118.848 50.5392C117.383 50.2462 116.309 49.2697 115.82 48.0978V47.9025C115.234 46.7306 115.332 45.2657 116.113 44.0939L117.48 42.0431C117.578 41.9454 117.578 41.7501 117.578 41.6525C116.895 40.7736 116.211 39.8947 115.43 39.1134H115.332C114.551 38.3322 113.77 37.5509 112.891 36.965C112.695 36.965 112.598 36.965 112.5 37.0626L110.449 38.4298C109.277 39.2111 107.812 39.2111 106.641 38.7228H106.445C105.273 38.1368 104.199 37.1603 104.004 35.6954L103.516 33.3517C103.418 33.1564 103.418 33.0587 103.32 32.9611C102.246 32.7657 101.074 32.6681 100 32.6681C98.8281 32.6681 97.6562 32.7657 96.582 32.9611C96.4844 33.0587 96.4844 33.1564 96.3867 33.3517L94.9219 33.0587L96.3867 33.3517L95.9961 35.6954ZM100 29.5431C101.367 29.5431 102.832 29.7384 104.199 29.9337C104.395 30.0314 104.59 30.0314 104.688 30.129C105.664 30.715 106.348 31.5939 106.543 32.7657L107.031 35.1095C107.031 35.4025 107.227 35.5978 107.617 35.7931L107.812 35.8907C108.203 35.9884 108.496 35.9884 108.691 35.7931L110.742 34.5236C111.719 33.84 112.793 33.6447 113.867 33.9376C114.062 33.9376 114.258 34.0353 114.355 34.1329C115.527 35.0118 116.602 35.8907 117.578 36.8673L117.676 36.965C118.652 37.9415 119.531 39.0157 120.41 40.1876C120.508 40.2853 120.605 40.4806 120.605 40.6759C120.898 41.7501 120.703 42.8243 120.117 43.8009L118.75 45.754C118.555 46.047 118.555 46.34 118.652 46.7306L118.75 46.8282C118.75 46.9259 118.75 46.9259 118.75 46.9259C118.945 47.2189 119.141 47.4142 119.434 47.5118L121.777 48.0001C122.949 48.1954 123.828 48.879 124.414 49.7579C124.512 49.9532 124.512 50.1486 124.609 50.3439C124.805 51.7111 124.902 53.0782 124.902 54.5431V54.6407C124.902 56.0079 124.805 57.4728 124.609 58.84C124.512 59.0353 124.512 59.2306 124.414 59.3282C123.828 60.3048 122.949 60.9884 121.777 61.1837L121.484 59.6212L121.777 61.1837L119.434 61.672C119.141 61.672 118.945 61.8673 118.75 62.2579L118.652 62.4532C118.555 62.8439 118.555 63.1368 118.75 63.3322L120.117 65.3829C120.703 66.3595 120.898 67.4337 120.605 68.5079C120.605 68.7032 120.508 68.8986 120.41 68.9962C118.75 71.34 116.699 73.3907 114.355 75.0509C114.258 75.1486 114.062 75.2462 113.867 75.2462C112.793 75.5392 111.719 75.3439 110.742 74.6603L108.789 73.3907C108.594 73.1954 108.203 73.1954 107.812 73.2931L107.715 73.3907C107.324 73.4884 107.129 73.7814 107.031 74.0743L106.543 76.4181C106.348 77.4923 105.664 78.4689 104.785 79.0548C104.59 79.1525 104.395 79.1525 104.199 79.2501C102.832 79.4454 101.465 79.5431 100 79.5431C98.5352 79.5431 97.0703 79.4454 95.7031 79.2501C95.5078 79.1525 95.3125 79.1525 95.2148 79.0548C94.2383 78.4689 93.5547 77.59 93.3594 76.4181L92.8711 74.0743C92.8711 73.7814 92.6758 73.4884 92.2852 73.3907L92.0898 73.2931C91.6992 73.1954 91.4062 73.1954 91.2109 73.3907L89.1602 74.6603C88.1836 75.3439 87.1094 75.5392 86.0352 75.2462C85.8398 75.2462 85.7422 75.1486 85.5469 75.0509C83.2031 73.3907 81.1523 71.34 79.4922 68.9962C79.3945 68.8009 79.2969 68.7032 79.2969 68.5079C79.0039 67.4337 79.1992 66.3595 79.8828 65.3829L81.1523 63.4298C81.3477 63.1368 81.3477 62.8439 81.25 62.4532L81.1523 62.2579C80.957 61.965 80.7617 61.672 80.4688 61.672L78.125 61.1837C76.9531 60.9884 76.0742 60.3048 75.4883 59.3282C75.3906 59.2306 75.3906 59.0353 75.293 58.84C75.0977 57.4728 75 56.0079 75 54.5431C75 53.1759 75.0977 51.7111 75.293 50.3439C75.3906 50.1486 75.3906 49.9532 75.4883 49.8556C76.0742 48.879 76.9531 48.1954 78.125 48.0001L80.4688 47.5118C80.7617 47.5118 81.0547 47.2189 81.1523 46.9259L81.25 46.7306C81.3477 46.34 81.3477 46.047 81.1523 45.754L79.8828 43.8009C79.1992 42.8243 79.0039 41.7501 79.2969 40.6759C79.2969 40.4806 79.3945 40.2853 79.4922 40.1876C80.3711 39.0157 81.25 37.9415 82.2266 36.965L82.3242 36.8673C83.3008 35.8907 84.375 35.0118 85.5469 34.1329C85.7422 34.0353 85.8398 33.9376 86.0352 33.9376C87.1094 33.6447 88.1836 33.84 89.1602 34.4259L91.1133 35.7931C91.4062 35.9884 91.6992 35.9884 92.0898 35.8907L92.2852 35.7931C92.5781 35.5978 92.8711 35.4025 92.8711 35.1095L93.3594 32.7657C93.5547 31.5939 94.2383 30.715 95.2148 30.129C95.3125 30.0314 95.5078 29.9337 95.7031 29.9337C97.0703 29.7384 98.5352 29.5431 100 29.5431ZM103.027 45.4611L99.9023 64.2111C99.8047 65.09 99.0234 65.6759 98.1445 65.4806C97.2656 65.3829 96.6797 64.6017 96.875 63.7228L100 44.9728C100.098 44.0939 100.879 43.5079 101.758 43.7032C102.637 43.8009 103.223 44.5822 103.027 45.4611ZM93.2617 51.8087L90.4297 54.5431L93.2617 57.3751C93.8477 57.9611 93.8477 59.0353 93.2617 59.6212C92.6758 60.2072 91.6016 60.2072 91.0156 59.6212L87.1094 55.715C86.5234 55.129 86.5234 54.0548 87.1094 53.4689L91.0156 49.5626C91.6016 48.9767 92.6758 48.9767 93.2617 49.5626C93.8477 50.1486 93.8477 51.2228 93.2617 51.8087ZM108.887 49.5626L112.793 53.4689C113.379 54.0548 113.379 55.129 112.793 55.715L108.887 59.6212C108.301 60.2072 107.227 60.2072 106.641 59.6212C106.055 59.0353 106.055 57.9611 106.641 57.3751L109.473 54.5431L106.641 51.8087C106.055 51.2228 106.055 50.1486 106.641 49.5626C107.227 48.9767 108.301 48.9767 108.887 49.5626Z" fill="#76B900"/>
<rect y="107" width="200" height="4" fill="#76B900"/>
<defs>
<linearGradient id="paint0_linear_28_8" x1="100" y1="0" x2="100" y2="116.769" gradientUnits="userSpaceOnUse">
<stop stop-color="#76B900" stop-opacity="0.2"/>
<stop offset="0.65" stop-color="#76B900" stop-opacity="0.02"/>
</linearGradient>
</defs>
</svg>
