<svg width="200" height="116" viewBox="0 0 200 116" fill="none" xmlns="http://www.w3.org/2000/svg">
<rect width="200" height="116" fill="url(#paint0_linear_28_8)"/>
<path d="M95.9961 39.4023C95.7031 40.7695 94.6289 41.8438 93.457 42.332L93.3594 42.4297C92.0898 42.918 90.625 42.918 89.4531 42.1367L87.4023 40.7695C87.3047 40.6719 87.207 40.6719 87.0117 40.6719C86.1328 41.2578 85.3516 42.0391 84.5703 42.8203H84.4727C83.6914 43.6016 83.0078 44.4805 82.3242 45.3594C82.3242 45.5547 82.3242 45.6523 82.4219 45.75L83.7891 47.8008C84.5703 48.9727 84.5703 50.4375 84.082 51.6094V51.8047C83.5938 52.9766 82.5195 54.0508 81.0547 54.2461L78.7109 54.7344C78.6133 54.832 78.418 54.832 78.3203 54.9297C78.125 56.0039 78.125 57.1758 78.125 58.25C78.125 59.4219 78.125 60.5938 78.3203 61.668C78.418 61.7656 78.6133 61.7656 78.7109 61.8633L81.0547 62.3516C82.5195 62.5469 83.5938 63.6211 84.082 64.793V64.9883C84.668 66.1602 84.5703 67.625 83.7891 68.7969L82.4219 70.8477C82.3242 70.9453 82.3242 71.043 82.3242 71.2383C83.5938 72.9961 85.2539 74.6562 87.0117 75.9258C87.207 75.9258 87.3047 75.9258 87.4023 75.8281L89.4531 74.4609C90.625 73.6797 92.0898 73.6797 93.3594 74.168H93.457C94.6289 74.6562 95.7031 75.7305 95.9961 77.1953L96.4844 79.5391C96.4844 79.6367 96.4844 79.832 96.582 79.9297C97.7539 80.0273 98.8281 80.125 100 80.125C101.074 80.125 102.246 80.0273 103.32 79.9297C103.418 79.832 103.418 79.6367 103.516 79.5391L104.004 77.1953C104.297 75.7305 105.273 74.6562 106.445 74.168H106.641C107.812 73.582 109.277 73.6797 110.449 74.4609L112.5 75.8281C112.598 75.9258 112.695 75.9258 112.891 75.9258C114.648 74.6562 116.309 72.9961 117.578 71.2383C117.578 71.043 117.578 70.9453 117.48 70.8477L116.113 68.7969C115.332 67.625 115.332 66.1602 115.82 64.8906V64.793C116.406 63.6211 117.383 62.5469 118.848 62.2539L121.191 61.7656C121.289 61.7656 121.484 61.668 121.582 61.5703C121.68 60.4961 121.777 59.4219 121.777 58.25C121.777 57.0781 121.68 56.0039 121.582 54.9297C121.484 54.832 121.289 54.7344 121.191 54.7344L118.848 54.2461C117.383 53.9531 116.309 52.9766 115.82 51.8047V51.6094C115.234 50.4375 115.332 48.9727 116.113 47.8008L117.48 45.75C117.578 45.6523 117.578 45.457 117.578 45.3594C116.895 44.4805 116.211 43.6016 115.43 42.8203H115.332C114.551 42.0391 113.77 41.2578 112.891 40.6719C112.695 40.6719 112.598 40.6719 112.5 40.7695L110.449 42.1367C109.277 42.918 107.812 42.918 106.641 42.4297H106.445C105.273 41.8438 104.199 40.8672 104.004 39.4023L103.516 37.0586C103.418 36.8633 103.418 36.7656 103.32 36.668C102.246 36.4727 101.074 36.375 100 36.375C98.8281 36.375 97.6562 36.4727 96.582 36.668C96.4844 36.7656 96.4844 36.8633 96.3867 37.0586L94.9219 36.7656L96.3867 37.0586L95.9961 39.4023ZM100 33.25C101.367 33.25 102.832 33.4453 104.199 33.6406C104.395 33.7383 104.59 33.7383 104.688 33.8359C105.664 34.4219 106.348 35.3008 106.543 36.4727L107.031 38.8164C107.031 39.1094 107.227 39.3047 107.617 39.5L107.812 39.5977C108.203 39.6953 108.496 39.6953 108.691 39.5L110.742 38.2305C111.719 37.5469 112.793 37.3516 113.867 37.6445C114.062 37.6445 114.258 37.7422 114.355 37.8398C115.527 38.7188 116.602 39.5977 117.578 40.5742L117.676 40.6719C118.652 41.6484 119.531 42.7227 120.41 43.8945C120.508 43.9922 120.605 44.1875 120.605 44.3828C120.898 45.457 120.703 46.5312 120.117 47.5078L118.75 49.4609C118.555 49.7539 118.555 50.0469 118.652 50.4375L118.75 50.5352C118.75 50.6328 118.75 50.6328 118.75 50.6328C118.945 50.9258 119.141 51.1211 119.434 51.2188L121.777 51.707C122.949 51.9023 123.828 52.5859 124.414 53.4648C124.512 53.6602 124.512 53.8555 124.609 54.0508C124.805 55.418 124.902 56.7852 124.902 58.25V58.3477C124.902 59.7148 124.805 61.1797 124.609 62.5469C124.512 62.7422 124.512 62.9375 124.414 63.0352C123.828 64.0117 122.949 64.6953 121.777 64.8906L121.484 63.3281L121.777 64.8906L119.434 65.3789C119.141 65.3789 118.945 65.5742 118.75 65.9648L118.652 66.1602C118.555 66.5508 118.555 66.8438 118.75 67.0391L120.117 69.0898C120.703 70.0664 120.898 71.1406 120.605 72.2148C120.605 72.4102 120.508 72.6055 120.41 72.7031C118.75 75.0469 116.699 77.0977 114.355 78.7578C114.258 78.8555 114.062 78.9531 113.867 78.9531C112.793 79.2461 111.719 79.0508 110.742 78.3672L108.789 77.0977C108.594 76.9023 108.203 76.9023 107.812 77L107.715 77.0977C107.324 77.1953 107.129 77.4883 107.031 77.7812L106.543 80.125C106.348 81.1992 105.664 82.1758 104.785 82.7617C104.59 82.8594 104.395 82.8594 104.199 82.957C102.832 83.1523 101.465 83.25 100 83.25C98.5352 83.25 97.0703 83.1523 95.7031 82.957C95.5078 82.8594 95.3125 82.8594 95.2148 82.7617C94.2383 82.1758 93.5547 81.2969 93.3594 80.125L92.8711 77.7812C92.8711 77.4883 92.6758 77.1953 92.2852 77.0977L92.0898 77C91.6992 76.9023 91.4062 76.9023 91.2109 77.0977L89.1602 78.3672C88.1836 79.0508 87.1094 79.2461 86.0352 78.9531C85.8398 78.9531 85.7422 78.8555 85.5469 78.7578C83.2031 77.0977 81.1523 75.0469 79.4922 72.7031C79.3945 72.5078 79.2969 72.4102 79.2969 72.2148C79.0039 71.1406 79.1992 70.0664 79.8828 69.0898L81.1523 67.1367C81.3477 66.8438 81.3477 66.5508 81.25 66.1602L81.1523 65.9648C80.957 65.6719 80.7617 65.3789 80.4688 65.3789L78.125 64.8906C76.9531 64.6953 76.0742 64.0117 75.4883 63.0352C75.3906 62.9375 75.3906 62.7422 75.293 62.5469C75.0977 61.1797 75 59.7148 75 58.25C75 56.8828 75.0977 55.418 75.293 54.0508C75.3906 53.8555 75.3906 53.6602 75.4883 53.5625C76.0742 52.5859 76.9531 51.9023 78.125 51.707L80.4688 51.2188C80.7617 51.2188 81.0547 50.9258 81.1523 50.6328L81.25 50.4375C81.3477 50.0469 81.3477 49.7539 81.1523 49.4609L79.8828 47.5078C79.1992 46.5312 79.0039 45.457 79.2969 44.3828C79.2969 44.1875 79.3945 43.9922 79.4922 43.8945C80.3711 42.7227 81.25 41.6484 82.2266 40.6719L82.3242 40.5742C83.3008 39.5977 84.375 38.7188 85.5469 37.8398C85.7422 37.7422 85.8398 37.6445 86.0352 37.6445C87.1094 37.3516 88.1836 37.5469 89.1602 38.1328L91.1133 39.5C91.4062 39.6953 91.6992 39.6953 92.0898 39.5977L92.2852 39.5C92.5781 39.3047 92.8711 39.1094 92.8711 38.8164L93.3594 36.4727C93.5547 35.3008 94.2383 34.4219 95.2148 33.8359C95.3125 33.7383 95.5078 33.6406 95.7031 33.6406C97.0703 33.4453 98.5352 33.25 100 33.25ZM103.027 49.168L99.9023 67.918C99.8047 68.7969 99.0234 69.3828 98.1445 69.1875C97.2656 69.0898 96.6797 68.3086 96.875 67.4297L100 48.6797C100.098 47.8008 100.879 47.2148 101.758 47.4102C102.637 47.5078 103.223 48.2891 103.027 49.168ZM93.2617 55.5156L90.4297 58.25L93.2617 61.082C93.8477 61.668 93.8477 62.7422 93.2617 63.3281C92.6758 63.9141 91.6016 63.9141 91.0156 63.3281L87.1094 59.4219C86.5234 58.8359 86.5234 57.7617 87.1094 57.1758L91.0156 53.2695C91.6016 52.6836 92.6758 52.6836 93.2617 53.2695C93.8477 53.8555 93.8477 54.9297 93.2617 55.5156ZM108.887 53.2695L112.793 57.1758C113.379 57.7617 113.379 58.8359 112.793 59.4219L108.887 63.3281C108.301 63.9141 107.227 63.9141 106.641 63.3281C106.055 62.7422 106.055 61.668 106.641 61.082L109.473 58.25L106.641 55.5156C106.055 54.9297 106.055 53.8555 106.641 53.2695C107.227 52.6836 108.301 52.6836 108.887 53.2695Z" fill="#76B900"/>
<rect y="112.431" width="200" height="3.56923" fill="#76B900"/>
<defs>
<linearGradient id="paint0_linear_28_8" x1="100" y1="0" x2="100" y2="123.138" gradientUnits="userSpaceOnUse">
<stop stop-color="#76B900" stop-opacity="0.2"/>
<stop offset="0.65" stop-color="#76B900" stop-opacity="0.02"/>
</linearGradient>
</defs>
</svg>
