<svg width="200" height="130" viewBox="0 0 200 130" fill="none" xmlns="http://www.w3.org/2000/svg">
<rect width="200" height="130" fill="url(#paint0_linear_28_8)"/>
<path d="M94.875 40.875C94.5 42.625 93.125 44 91.625 44.625L91.5 44.75C89.875 45.375 88 45.375 86.5 44.375L83.875 42.625C83.75 42.5 83.625 42.5 83.375 42.5C82.25 43.25 81.25 44.25 80.25 45.25H80.125C79.125 46.25 78.25 47.375 77.375 48.5C77.375 48.75 77.375 48.875 77.5 49L79.25 51.625C80.25 53.125 80.25 55 79.625 56.5V56.75C79 58.25 77.625 59.625 75.75 59.875L72.75 60.5C72.625 60.625 72.375 60.625 72.25 60.75C72 62.125 72 63.625 72 65C72 66.5 72 68 72.25 69.375C72.375 69.5 72.625 69.5 72.75 69.625L75.75 70.25C77.625 70.5 79 71.875 79.625 73.375V73.625C80.375 75.125 80.25 77 79.25 78.5L77.5 81.125C77.375 81.25 77.375 81.375 77.375 81.625C79 83.875 81.125 86 83.375 87.625C83.625 87.625 83.75 87.625 83.875 87.5L86.5 85.75C88 84.75 89.875 84.75 91.5 85.375H91.625C93.125 86 94.5 87.375 94.875 89.25L95.5 92.25C95.5 92.375 95.5 92.625 95.625 92.75C97.125 92.875 98.5 93 100 93C101.375 93 102.875 92.875 104.25 92.75C104.375 92.625 104.375 92.375 104.5 92.25L105.125 89.25C105.5 87.375 106.75 86 108.25 85.375H108.5C110 84.625 111.875 84.75 113.375 85.75L116 87.5C116.125 87.625 116.25 87.625 116.5 87.625C118.75 86 120.875 83.875 122.5 81.625C122.5 81.375 122.5 81.25 122.375 81.125L120.625 78.5C119.625 77 119.625 75.125 120.25 73.5V73.375C121 71.875 122.25 70.5 124.125 70.125L127.125 69.5C127.25 69.5 127.5 69.375 127.625 69.25C127.75 67.875 127.875 66.5 127.875 65C127.875 63.5 127.75 62.125 127.625 60.75C127.5 60.625 127.25 60.5 127.125 60.5L124.125 59.875C122.25 59.5 120.875 58.25 120.25 56.75V56.5C119.5 55 119.625 53.125 120.625 51.625L122.375 49C122.5 48.875 122.5 48.625 122.5 48.5C121.625 47.375 120.75 46.25 119.75 45.25H119.625C118.625 44.25 117.625 43.25 116.5 42.5C116.25 42.5 116.125 42.5 116 42.625L113.375 44.375C111.875 45.375 110 45.375 108.5 44.75H108.25C106.75 44 105.375 42.75 105.125 40.875L104.5 37.875C104.375 37.625 104.375 37.5 104.25 37.375C102.875 37.125 101.375 37 100 37C98.5 37 97 37.125 95.625 37.375C95.5 37.5 95.5 37.625 95.375 37.875L93.5 37.5L95.375 37.875L94.875 40.875ZM100 33C101.75 33 103.625 33.25 105.375 33.5C105.625 33.625 105.875 33.625 106 33.75C107.25 34.5 108.125 35.625 108.375 37.125L109 40.125C109 40.5 109.25 40.75 109.75 41L110 41.125C110.5 41.25 110.875 41.25 111.125 41L113.75 39.375C115 38.5 116.375 38.25 117.75 38.625C118 38.625 118.25 38.75 118.375 38.875C119.875 40 121.25 41.125 122.5 42.375L122.625 42.5C123.875 43.75 125 45.125 126.125 46.625C126.25 46.75 126.375 47 126.375 47.25C126.75 48.625 126.5 50 125.75 51.25L124 53.75C123.75 54.125 123.75 54.5 123.875 55L124 55.125C124 55.25 124 55.25 124 55.25C124.25 55.625 124.5 55.875 124.875 56L127.875 56.625C129.375 56.875 130.5 57.75 131.25 58.875C131.375 59.125 131.375 59.375 131.5 59.625C131.75 61.375 131.875 63.125 131.875 65V65.125C131.875 66.875 131.75 68.75 131.5 70.5C131.375 70.75 131.375 71 131.25 71.125C130.5 72.375 129.375 73.25 127.875 73.5L127.5 71.5L127.875 73.5L124.875 74.125C124.5 74.125 124.25 74.375 124 74.875L123.875 75.125C123.75 75.625 123.75 76 124 76.25L125.75 78.875C126.5 80.125 126.75 81.5 126.375 82.875C126.375 83.125 126.25 83.375 126.125 83.5C124 86.5 121.375 89.125 118.375 91.25C118.25 91.375 118 91.5 117.75 91.5C116.375 91.875 115 91.625 113.75 90.75L111.25 89.125C111 88.875 110.5 88.875 110 89L109.875 89.125C109.375 89.25 109.125 89.625 109 90L108.375 93C108.125 94.375 107.25 95.625 106.125 96.375C105.875 96.5 105.625 96.5 105.375 96.625C103.625 96.875 101.875 97 100 97C98.125 97 96.25 96.875 94.5 96.625C94.25 96.5 94 96.5 93.875 96.375C92.625 95.625 91.75 94.5 91.5 93L90.875 90C90.875 89.625 90.625 89.25 90.125 89.125L89.875 89C89.375 88.875 89 88.875 88.75 89.125L86.125 90.75C84.875 91.625 83.5 91.875 82.125 91.5C81.875 91.5 81.75 91.375 81.5 91.25C78.5 89.125 75.875 86.5 73.75 83.5C73.625 83.25 73.5 83.125 73.5 82.875C73.125 81.5 73.375 80.125 74.25 78.875L75.875 76.375C76.125 76 76.125 75.625 76 75.125L75.875 74.875C75.625 74.5 75.375 74.125 75 74.125L72 73.5C70.5 73.25 69.375 72.375 68.625 71.125C68.5 71 68.5 70.75 68.375 70.5C68.125 68.75 68 66.875 68 65C68 63.25 68.125 61.375 68.375 59.625C68.5 59.375 68.5 59.125 68.625 59C69.375 57.75 70.5 56.875 72 56.625L75 56C75.375 56 75.75 55.625 75.875 55.25L76 55C76.125 54.5 76.125 54.125 75.875 53.75L74.25 51.25C73.375 50 73.125 48.625 73.5 47.25C73.5 47 73.625 46.75 73.75 46.625C74.875 45.125 76 43.75 77.25 42.5L77.375 42.375C78.625 41.125 80 40 81.5 38.875C81.75 38.75 81.875 38.625 82.125 38.625C83.5 38.25 84.875 38.5 86.125 39.25L88.625 41C89 41.25 89.375 41.25 89.875 41.125L90.125 41C90.5 40.75 90.875 40.5 90.875 40.125L91.5 37.125C91.75 35.625 92.625 34.5 93.875 33.75C94 33.625 94.25 33.5 94.5 33.5C96.25 33.25 98.125 33 100 33ZM103.875 53.375L99.875 77.375C99.75 78.5 98.75 79.25 97.625 79C96.5 78.875 95.75 77.875 96 76.75L100 52.75C100.125 51.625 101.125 50.875 102.25 51.125C103.375 51.25 104.125 52.25 103.875 53.375ZM91.375 61.5L87.75 65L91.375 68.625C92.125 69.375 92.125 70.75 91.375 71.5C90.625 72.25 89.25 72.25 88.5 71.5L83.5 66.5C82.75 65.75 82.75 64.375 83.5 63.625L88.5 58.625C89.25 57.875 90.625 57.875 91.375 58.625C92.125 59.375 92.125 60.75 91.375 61.5ZM111.375 58.625L116.375 63.625C117.125 64.375 117.125 65.75 116.375 66.5L111.375 71.5C110.625 72.25 109.25 72.25 108.5 71.5C107.75 70.75 107.75 69.375 108.5 68.625L112.125 65L108.5 61.5C107.75 60.75 107.75 59.375 108.5 58.625C109.25 57.875 110.625 57.875 111.375 58.625Z" fill="#76B900"/>
<defs>
<linearGradient id="paint0_linear_28_8" x1="100" y1="0" x2="100" y2="138" gradientUnits="userSpaceOnUse">
<stop stop-color="#76B900" stop-opacity="0.2"/>
<stop offset="1" stop-color="#76B900" stop-opacity="0.02"/>
</linearGradient>
</defs>
</svg>
