<svg width="200" height="130" viewBox="0 0 200 130" fill="none" xmlns="http://www.w3.org/2000/svg">
<rect width="200" height="130" fill="url(#paint0_linear_28_8)"/>
<path d="M93.1953 42.8828C92.8438 44.5234 91.5547 45.8125 90.1484 46.3984L90.0312 46.5156C88.5078 47.1016 86.75 47.1016 85.3438 46.1641L82.8828 44.5234C82.7656 44.4062 82.6484 44.4062 82.4141 44.4062C81.3594 45.1094 80.4219 46.0469 79.4844 46.9844H79.3672C78.4297 47.9219 77.6094 48.9766 76.7891 50.0312C76.7891 50.2656 76.7891 50.3828 76.9062 50.5L78.5469 52.9609C79.4844 54.3672 79.4844 56.125 78.8984 57.5312V57.7656C78.3125 59.1719 77.0234 60.4609 75.2656 60.6953L72.4531 61.2812C72.3359 61.3984 72.1016 61.3984 71.9844 61.5156C71.75 62.8047 71.75 64.2109 71.75 65.5C71.75 66.9062 71.75 68.3125 71.9844 69.6016C72.1016 69.7188 72.3359 69.7188 72.4531 69.8359L75.2656 70.4219C77.0234 70.6562 78.3125 71.9453 78.8984 73.3516V73.5859C79.6016 74.9922 79.4844 76.75 78.5469 78.1562L76.9062 80.6172C76.7891 80.7344 76.7891 80.8516 76.7891 81.0859C78.3125 83.1953 80.3047 85.1875 82.4141 86.7109C82.6484 86.7109 82.7656 86.7109 82.8828 86.5938L85.3438 84.9531C86.75 84.0156 88.5078 84.0156 90.0312 84.6016H90.1484C91.5547 85.1875 92.8438 86.4766 93.1953 88.2344L93.7812 91.0469C93.7812 91.1641 93.7812 91.3984 93.8984 91.5156C95.3047 91.6328 96.5938 91.75 98 91.75C99.2891 91.75 100.695 91.6328 101.984 91.5156C102.102 91.3984 102.102 91.1641 102.219 91.0469L102.805 88.2344C103.156 86.4766 104.328 85.1875 105.734 84.6016H105.969C107.375 83.8984 109.133 84.0156 110.539 84.9531L113 86.5938C113.117 86.7109 113.234 86.7109 113.469 86.7109C115.578 85.1875 117.57 83.1953 119.094 81.0859C119.094 80.8516 119.094 80.7344 118.977 80.6172L117.336 78.1562C116.398 76.75 116.398 74.9922 116.984 73.4688V73.3516C117.688 71.9453 118.859 70.6562 120.617 70.3047L123.43 69.7188C123.547 69.7188 123.781 69.6016 123.898 69.4844C124.016 68.1953 124.133 66.9062 124.133 65.5C124.133 64.0938 124.016 62.8047 123.898 61.5156C123.781 61.3984 123.547 61.2812 123.43 61.2812L120.617 60.6953C118.859 60.3438 117.57 59.1719 116.984 57.7656V57.5312C116.281 56.125 116.398 54.3672 117.336 52.9609L118.977 50.5C119.094 50.3828 119.094 50.1484 119.094 50.0312C118.273 48.9766 117.453 47.9219 116.516 46.9844H116.398C115.461 46.0469 114.523 45.1094 113.469 44.4062C113.234 44.4062 113.117 44.4062 113 44.5234L110.539 46.1641C109.133 47.1016 107.375 47.1016 105.969 46.5156H105.734C104.328 45.8125 103.039 44.6406 102.805 42.8828L102.219 40.0703C102.102 39.8359 102.102 39.7188 101.984 39.6016C100.695 39.3672 99.2891 39.25 98 39.25C96.5938 39.25 95.1875 39.3672 93.8984 39.6016C93.7812 39.7188 93.7812 39.8359 93.6641 40.0703L91.9062 39.7188L93.6641 40.0703L93.1953 42.8828ZM98 35.5C99.6406 35.5 101.398 35.7344 103.039 35.9688C103.273 36.0859 103.508 36.0859 103.625 36.2031C104.797 36.9062 105.617 37.9609 105.852 39.3672L106.438 42.1797C106.438 42.5312 106.672 42.7656 107.141 43L107.375 43.1172C107.844 43.2344 108.195 43.2344 108.43 43L110.891 41.4766C112.062 40.6562 113.352 40.4219 114.641 40.7734C114.875 40.7734 115.109 40.8906 115.227 41.0078C116.633 42.0625 117.922 43.1172 119.094 44.2891L119.211 44.4062C120.383 45.5781 121.438 46.8672 122.492 48.2734C122.609 48.3906 122.727 48.625 122.727 48.8594C123.078 50.1484 122.844 51.4375 122.141 52.6094L120.5 54.9531C120.266 55.3047 120.266 55.6562 120.383 56.125L120.5 56.2422C120.5 56.3594 120.5 56.3594 120.5 56.3594C120.734 56.7109 120.969 56.9453 121.32 57.0625L124.133 57.6484C125.539 57.8828 126.594 58.7031 127.297 59.7578C127.414 59.9922 127.414 60.2266 127.531 60.4609C127.766 62.1016 127.883 63.7422 127.883 65.5V65.6172C127.883 67.2578 127.766 69.0156 127.531 70.6562C127.414 70.8906 127.414 71.125 127.297 71.2422C126.594 72.4141 125.539 73.2344 124.133 73.4688L123.781 71.5938L124.133 73.4688L121.32 74.0547C120.969 74.0547 120.734 74.2891 120.5 74.7578L120.383 74.9922C120.266 75.4609 120.266 75.8125 120.5 76.0469L122.141 78.5078C122.844 79.6797 123.078 80.9688 122.727 82.2578C122.727 82.4922 122.609 82.7266 122.492 82.8438C120.5 85.6562 118.039 88.1172 115.227 90.1094C115.109 90.2266 114.875 90.3438 114.641 90.3438C113.352 90.6953 112.062 90.4609 110.891 89.6406L108.547 88.1172C108.312 87.8828 107.844 87.8828 107.375 88L107.258 88.1172C106.789 88.2344 106.555 88.5859 106.438 88.9375L105.852 91.75C105.617 93.0391 104.797 94.2109 103.742 94.9141C103.508 95.0312 103.273 95.0312 103.039 95.1484C101.398 95.3828 99.7578 95.5 98 95.5C96.2422 95.5 94.4844 95.3828 92.8438 95.1484C92.6094 95.0312 92.375 95.0312 92.2578 94.9141C91.0859 94.2109 90.2656 93.1562 90.0312 91.75L89.4453 88.9375C89.4453 88.5859 89.2109 88.2344 88.7422 88.1172L88.5078 88C88.0391 87.8828 87.6875 87.8828 87.4531 88.1172L84.9922 89.6406C83.8203 90.4609 82.5312 90.6953 81.2422 90.3438C81.0078 90.3438 80.8906 90.2266 80.6562 90.1094C77.8438 88.1172 75.3828 85.6562 73.3906 82.8438C73.2734 82.6094 73.1562 82.4922 73.1562 82.2578C72.8047 80.9688 73.0391 79.6797 73.8594 78.5078L75.3828 76.1641C75.6172 75.8125 75.6172 75.4609 75.5 74.9922L75.3828 74.7578C75.1484 74.4062 74.9141 74.0547 74.5625 74.0547L71.75 73.4688C70.3438 73.2344 69.2891 72.4141 68.5859 71.2422C68.4688 71.125 68.4688 70.8906 68.3516 70.6562C68.1172 69.0156 68 67.2578 68 65.5C68 63.8594 68.1172 62.1016 68.3516 60.4609C68.4688 60.2266 68.4688 59.9922 68.5859 59.875C69.2891 58.7031 70.3438 57.8828 71.75 57.6484L74.5625 57.0625C74.9141 57.0625 75.2656 56.7109 75.3828 56.3594L75.5 56.125C75.6172 55.6562 75.6172 55.3047 75.3828 54.9531L73.8594 52.6094C73.0391 51.4375 72.8047 50.1484 73.1562 48.8594C73.1562 48.625 73.2734 48.3906 73.3906 48.2734C74.4453 46.8672 75.5 45.5781 76.6719 44.4062L76.7891 44.2891C77.9609 43.1172 79.25 42.0625 80.6562 41.0078C80.8906 40.8906 81.0078 40.7734 81.2422 40.7734C82.5312 40.4219 83.8203 40.6562 84.9922 41.3594L87.3359 43C87.6875 43.2344 88.0391 43.2344 88.5078 43.1172L88.7422 43C89.0938 42.7656 89.4453 42.5312 89.4453 42.1797L90.0312 39.3672C90.2656 37.9609 91.0859 36.9062 92.2578 36.2031C92.375 36.0859 92.6094 35.9688 92.8438 35.9688C94.4844 35.7344 96.2422 35.5 98 35.5ZM101.633 54.6016L97.8828 77.1016C97.7656 78.1562 96.8281 78.8594 95.7734 78.625C94.7188 78.5078 94.0156 77.5703 94.25 76.5156L98 54.0156C98.1172 52.9609 99.0547 52.2578 100.109 52.4922C101.164 52.6094 101.867 53.5469 101.633 54.6016ZM89.9141 62.2188L86.5156 65.5L89.9141 68.8984C90.6172 69.6016 90.6172 70.8906 89.9141 71.5938C89.2109 72.2969 87.9219 72.2969 87.2188 71.5938L82.5312 66.9062C81.8281 66.2031 81.8281 64.9141 82.5312 64.2109L87.2188 59.5234C87.9219 58.8203 89.2109 58.8203 89.9141 59.5234C90.6172 60.2266 90.6172 61.5156 89.9141 62.2188ZM108.664 59.5234L113.352 64.2109C114.055 64.9141 114.055 66.2031 113.352 66.9062L108.664 71.5938C107.961 72.2969 106.672 72.2969 105.969 71.5938C105.266 70.8906 105.266 69.6016 105.969 68.8984L109.367 65.5L105.969 62.2188C105.266 61.5156 105.266 60.2266 105.969 59.5234C106.672 58.8203 107.961 58.8203 108.664 59.5234Z" fill="#76B900"/>
<defs>
<linearGradient id="paint0_linear_28_8" x1="100" y1="0" x2="100" y2="138" gradientUnits="userSpaceOnUse">
<stop stop-color="#76B900" stop-opacity="0.2"/>
<stop offset="1" stop-color="#76B900" stop-opacity="0.02"/>
</linearGradient>
</defs>
</svg>
