<svg width="200" height="130" viewBox="0 0 200 130" fill="none" xmlns="http://www.w3.org/2000/svg">
<rect width="200" height="130" fill="url(#paint0_linear_28_8)"/>
<path d="M95.9961 46.4023C95.7031 47.7695 94.6289 48.8438 93.457 49.332L93.3594 49.4297C92.0898 49.918 90.625 49.918 89.4531 49.1367L87.4023 47.7695C87.3047 47.6719 87.207 47.6719 87.0117 47.6719C86.1328 48.2578 85.3516 49.0391 84.5703 49.8203H84.4727C83.6914 50.6016 83.0078 51.4805 82.3242 52.3594C82.3242 52.5547 82.3242 52.6523 82.4219 52.75L83.7891 54.8008C84.5703 55.9727 84.5703 57.4375 84.082 58.6094V58.8047C83.5938 59.9766 82.5195 61.0508 81.0547 61.2461L78.7109 61.7344C78.6133 61.832 78.418 61.832 78.3203 61.9297C78.125 63.0039 78.125 64.1758 78.125 65.25C78.125 66.4219 78.125 67.5938 78.3203 68.668C78.418 68.7656 78.6133 68.7656 78.7109 68.8633L81.0547 69.3516C82.5195 69.5469 83.5938 70.6211 84.082 71.793V71.9883C84.668 73.1602 84.5703 74.625 83.7891 75.7969L82.4219 77.8477C82.3242 77.9453 82.3242 78.043 82.3242 78.2383C83.5938 79.9961 85.2539 81.6562 87.0117 82.9258C87.207 82.9258 87.3047 82.9258 87.4023 82.8281L89.4531 81.4609C90.625 80.6797 92.0898 80.6797 93.3594 81.168H93.457C94.6289 81.6562 95.7031 82.7305 95.9961 84.1953L96.4844 86.5391C96.4844 86.6367 96.4844 86.832 96.582 86.9297C97.7539 87.0273 98.8281 87.125 100 87.125C101.074 87.125 102.246 87.0273 103.32 86.9297C103.418 86.832 103.418 86.6367 103.516 86.5391L104.004 84.1953C104.297 82.7305 105.273 81.6562 106.445 81.168H106.641C107.812 80.582 109.277 80.6797 110.449 81.4609L112.5 82.8281C112.598 82.9258 112.695 82.9258 112.891 82.9258C114.648 81.6562 116.309 79.9961 117.578 78.2383C117.578 78.043 117.578 77.9453 117.48 77.8477L116.113 75.7969C115.332 74.625 115.332 73.1602 115.82 71.8906V71.793C116.406 70.6211 117.383 69.5469 118.848 69.2539L121.191 68.7656C121.289 68.7656 121.484 68.668 121.582 68.5703C121.68 67.4961 121.777 66.4219 121.777 65.25C121.777 64.0781 121.68 63.0039 121.582 61.9297C121.484 61.832 121.289 61.7344 121.191 61.7344L118.848 61.2461C117.383 60.9531 116.309 59.9766 115.82 58.8047V58.6094C115.234 57.4375 115.332 55.9727 116.113 54.8008L117.48 52.75C117.578 52.6523 117.578 52.457 117.578 52.3594C116.895 51.4805 116.211 50.6016 115.43 49.8203H115.332C114.551 49.0391 113.77 48.2578 112.891 47.6719C112.695 47.6719 112.598 47.6719 112.5 47.7695L110.449 49.1367C109.277 49.918 107.812 49.918 106.641 49.4297H106.445C105.273 48.8438 104.199 47.8672 104.004 46.4023L103.516 44.0586C103.418 43.8633 103.418 43.7656 103.32 43.668C102.246 43.4727 101.074 43.375 100 43.375C98.8281 43.375 97.6562 43.4727 96.582 43.668C96.4844 43.7656 96.4844 43.8633 96.3867 44.0586L94.9219 43.7656L96.3867 44.0586L95.9961 46.4023ZM100 40.25C101.367 40.25 102.832 40.4453 104.199 40.6406C104.395 40.7383 104.59 40.7383 104.688 40.8359C105.664 41.4219 106.348 42.3008 106.543 43.4727L107.031 45.8164C107.031 46.1094 107.227 46.3047 107.617 46.5L107.812 46.5977C108.203 46.6953 108.496 46.6953 108.691 46.5L110.742 45.2305C111.719 44.5469 112.793 44.3516 113.867 44.6445C114.062 44.6445 114.258 44.7422 114.355 44.8398C115.527 45.7188 116.602 46.5977 117.578 47.5742L117.676 47.6719C118.652 48.6484 119.531 49.7227 120.41 50.8945C120.508 50.9922 120.605 51.1875 120.605 51.3828C120.898 52.457 120.703 53.5312 120.117 54.5078L118.75 56.4609C118.555 56.7539 118.555 57.0469 118.652 57.4375L118.75 57.5352C118.75 57.6328 118.75 57.6328 118.75 57.6328C118.945 57.9258 119.141 58.1211 119.434 58.2188L121.777 58.707C122.949 58.9023 123.828 59.5859 124.414 60.4648C124.512 60.6602 124.512 60.8555 124.609 61.0508C124.805 62.418 124.902 63.7852 124.902 65.25V65.3477C124.902 66.7148 124.805 68.1797 124.609 69.5469C124.512 69.7422 124.512 69.9375 124.414 70.0352C123.828 71.0117 122.949 71.6953 121.777 71.8906L121.484 70.3281L121.777 71.8906L119.434 72.3789C119.141 72.3789 118.945 72.5742 118.75 72.9648L118.652 73.1602C118.555 73.5508 118.555 73.8438 118.75 74.0391L120.117 76.0898C120.703 77.0664 120.898 78.1406 120.605 79.2148C120.605 79.4102 120.508 79.6055 120.41 79.7031C118.75 82.0469 116.699 84.0977 114.355 85.7578C114.258 85.8555 114.062 85.9531 113.867 85.9531C112.793 86.2461 111.719 86.0508 110.742 85.3672L108.789 84.0977C108.594 83.9023 108.203 83.9023 107.812 84L107.715 84.0977C107.324 84.1953 107.129 84.4883 107.031 84.7812L106.543 87.125C106.348 88.1992 105.664 89.1758 104.785 89.7617C104.59 89.8594 104.395 89.8594 104.199 89.957C102.832 90.1523 101.465 90.25 100 90.25C98.5352 90.25 97.0703 90.1523 95.7031 89.957C95.5078 89.8594 95.3125 89.8594 95.2148 89.7617C94.2383 89.1758 93.5547 88.2969 93.3594 87.125L92.8711 84.7812C92.8711 84.4883 92.6758 84.1953 92.2852 84.0977L92.0898 84C91.6992 83.9023 91.4062 83.9023 91.2109 84.0977L89.1602 85.3672C88.1836 86.0508 87.1094 86.2461 86.0352 85.9531C85.8398 85.9531 85.7422 85.8555 85.5469 85.7578C83.2031 84.0977 81.1523 82.0469 79.4922 79.7031C79.3945 79.5078 79.2969 79.4102 79.2969 79.2148C79.0039 78.1406 79.1992 77.0664 79.8828 76.0898L81.1523 74.1367C81.3477 73.8438 81.3477 73.5508 81.25 73.1602L81.1523 72.9648C80.957 72.6719 80.7617 72.3789 80.4688 72.3789L78.125 71.8906C76.9531 71.6953 76.0742 71.0117 75.4883 70.0352C75.3906 69.9375 75.3906 69.7422 75.293 69.5469C75.0977 68.1797 75 66.7148 75 65.25C75 63.8828 75.0977 62.418 75.293 61.0508C75.3906 60.8555 75.3906 60.6602 75.4883 60.5625C76.0742 59.5859 76.9531 58.9023 78.125 58.707L80.4688 58.2188C80.7617 58.2188 81.0547 57.9258 81.1523 57.6328L81.25 57.4375C81.3477 57.0469 81.3477 56.7539 81.1523 56.4609L79.8828 54.5078C79.1992 53.5312 79.0039 52.457 79.2969 51.3828C79.2969 51.1875 79.3945 50.9922 79.4922 50.8945C80.3711 49.7227 81.25 48.6484 82.2266 47.6719L82.3242 47.5742C83.3008 46.5977 84.375 45.7188 85.5469 44.8398C85.7422 44.7422 85.8398 44.6445 86.0352 44.6445C87.1094 44.3516 88.1836 44.5469 89.1602 45.1328L91.1133 46.5C91.4062 46.6953 91.6992 46.6953 92.0898 46.5977L92.2852 46.5C92.5781 46.3047 92.8711 46.1094 92.8711 45.8164L93.3594 43.4727C93.5547 42.3008 94.2383 41.4219 95.2148 40.8359C95.3125 40.7383 95.5078 40.6406 95.7031 40.6406C97.0703 40.4453 98.5352 40.25 100 40.25ZM103.027 56.168L99.9023 74.918C99.8047 75.7969 99.0234 76.3828 98.1445 76.1875C97.2656 76.0898 96.6797 75.3086 96.875 74.4297L100 55.6797C100.098 54.8008 100.879 54.2148 101.758 54.4102C102.637 54.5078 103.223 55.2891 103.027 56.168ZM93.2617 62.5156L90.4297 65.25L93.2617 68.082C93.8477 68.668 93.8477 69.7422 93.2617 70.3281C92.6758 70.9141 91.6016 70.9141 91.0156 70.3281L87.1094 66.4219C86.5234 65.8359 86.5234 64.7617 87.1094 64.1758L91.0156 60.2695C91.6016 59.6836 92.6758 59.6836 93.2617 60.2695C93.8477 60.8555 93.8477 61.9297 93.2617 62.5156ZM108.887 60.2695L112.793 64.1758C113.379 64.7617 113.379 65.8359 112.793 66.4219L108.887 70.3281C108.301 70.9141 107.227 70.9141 106.641 70.3281C106.055 69.7422 106.055 68.668 106.641 68.082L109.473 65.25L106.641 62.5156C106.055 61.9297 106.055 60.8555 106.641 60.2695C107.227 59.6836 108.301 59.6836 108.887 60.2695Z" fill="#76B900"/>
<rect y="126" width="200" height="4" fill="#76B900"/>
<defs>
<linearGradient id="paint0_linear_28_8" x1="100" y1="0" x2="100" y2="138" gradientUnits="userSpaceOnUse">
<stop stop-color="#76B900" stop-opacity="0.2"/>
<stop offset="0.65" stop-color="#76B900" stop-opacity="0.02"/>
</linearGradient>
</defs>
</svg>
