<svg width="200" height="111" viewBox="0 0 200 111" fill="none" xmlns="http://www.w3.org/2000/svg">
<rect width="200" height="110" fill="white"/>
<rect width="200" height="110" fill="url(#paint0_linear_28_12)"/>
<path d="M103 39.75H98C96.5938 39.75 95.5 40.9219 95.5 42.25V47.25C95.5 48.6562 96.5938 49.75 98 49.75H103C104.328 49.75 105.5 48.6562 105.5 47.25V42.25C105.5 40.9219 104.328 39.75 103 39.75ZM98 38.5H103C105.031 38.5 106.75 40.2188 106.75 42.25V47.25C106.75 49.3594 105.031 51 103 51H101.125V55.375H114.25C115.969 55.375 117.375 56.7812 117.375 58.5V61H119.25C121.281 61 123 62.7188 123 64.75V69.75C123 71.8594 121.281 73.5 119.25 73.5H114.25C112.141 73.5 110.5 71.8594 110.5 69.75V64.75C110.5 62.7188 112.141 61 114.25 61H116.125V58.5C116.125 57.4844 115.266 56.625 114.25 56.625H101.125V61H103C105.031 61 106.75 62.7188 106.75 64.75V69.75C106.75 71.8594 105.031 73.5 103 73.5H98C95.8906 73.5 94.25 71.8594 94.25 69.75V64.75C94.25 62.7188 95.8906 61 98 61H99.875V56.625H86.75C85.6562 56.625 84.875 57.4844 84.875 58.5V61H86.75C88.7812 61 90.5 62.7188 90.5 64.75V69.75C90.5 71.8594 88.7812 73.5 86.75 73.5H81.75C79.6406 73.5 78 71.8594 78 69.75V64.75C78 62.7188 79.6406 61 81.75 61H83.625V58.5C83.625 56.7812 84.9531 55.375 86.75 55.375H99.875V51H98C95.8906 51 94.25 49.3594 94.25 47.25V42.25C94.25 40.2188 95.8906 38.5 98 38.5ZM81.75 62.25C80.3438 62.25 79.25 63.4219 79.25 64.75V69.75C79.25 71.1562 80.3438 72.25 81.75 72.25H86.75C88.0781 72.25 89.25 71.1562 89.25 69.75V64.75C89.25 63.4219 88.0781 62.25 86.75 62.25H81.75ZM98 62.25C96.5938 62.25 95.5 63.4219 95.5 64.75V69.75C95.5 71.1562 96.5938 72.25 98 72.25H103C104.328 72.25 105.5 71.1562 105.5 69.75V64.75C105.5 63.4219 104.328 62.25 103 62.25H98ZM114.25 62.25C112.844 62.25 111.75 63.4219 111.75 64.75V69.75C111.75 71.1562 112.844 72.25 114.25 72.25H119.25C120.578 72.25 121.75 71.1562 121.75 69.75V64.75C121.75 63.4219 120.578 62.25 119.25 62.25H114.25Z" fill="#76B900"/>
<rect y="109" width="200" height="2" fill="#76B900"/>
<defs>
<linearGradient id="paint0_linear_28_12" x1="100" y1="0" x2="100" y2="116.769" gradientUnits="userSpaceOnUse">
<stop stop-color="#76B900" stop-opacity="0.2"/>
<stop offset="0.65" stop-color="#76B900" stop-opacity="0.02"/>
</linearGradient>
</defs>
</svg>
