<svg width="200" height="111" viewBox="0 0 200 111" fill="none" xmlns="http://www.w3.org/2000/svg">
<rect width="200" height="110" fill="white"/>
<rect width="200" height="110" fill="url(#paint0_linear_28_12)"/>
<path d="M106.25 35.7931H100C99.1211 35.7931 98.4375 36.5743 98.4375 37.3556V43.6056C98.4375 44.4845 99.1211 45.1681 100 45.1681H101.562H104.688H106.25C107.031 45.1681 107.812 44.4845 107.812 43.6056V37.3556C107.812 36.5743 107.031 35.7931 106.25 35.7931ZM100 48.2931C97.3633 48.2931 95.3125 46.2423 95.3125 43.6056V37.3556C95.3125 34.8165 97.3633 32.6681 100 32.6681H106.25C108.789 32.6681 110.938 34.8165 110.938 37.3556V43.6056C110.938 46.2423 108.789 48.2931 106.25 48.2931H104.688V52.9806H120.312C122.852 52.9806 125 55.129 125 57.6681V60.7931H126.562C129.102 60.7931 131.25 62.9415 131.25 65.4806V71.7306C131.25 74.3673 129.102 76.4181 126.562 76.4181H120.312C117.676 76.4181 115.625 74.3673 115.625 71.7306V65.4806C115.625 62.9415 117.676 60.7931 120.312 60.7931H121.875V57.6681C121.875 56.8868 121.094 56.1056 120.312 56.1056H104.688V60.7931H106.25C108.789 60.7931 110.938 62.9415 110.938 65.4806V71.7306C110.938 74.3673 108.789 76.4181 106.25 76.4181H100C97.3633 76.4181 95.3125 74.3673 95.3125 71.7306V65.4806C95.3125 62.9415 97.3633 60.7931 100 60.7931H101.562V56.1056H85.9375C85.0586 56.1056 84.375 56.8868 84.375 57.6681V60.7931H85.9375C88.4766 60.7931 90.625 62.9415 90.625 65.4806V71.7306C90.625 74.3673 88.4766 76.4181 85.9375 76.4181H79.6875C77.0508 76.4181 75 74.3673 75 71.7306V65.4806C75 62.9415 77.0508 60.7931 79.6875 60.7931H81.25V57.6681C81.25 55.129 83.3008 52.9806 85.9375 52.9806H101.562V48.2931H100ZM79.6875 63.9181C78.8086 63.9181 78.125 64.6993 78.125 65.4806V71.7306C78.125 72.6095 78.8086 73.2931 79.6875 73.2931H85.9375C86.7188 73.2931 87.5 72.6095 87.5 71.7306V65.4806C87.5 64.6993 86.7188 63.9181 85.9375 63.9181H79.6875ZM100 63.9181C99.1211 63.9181 98.4375 64.6993 98.4375 65.4806V71.7306C98.4375 72.6095 99.1211 73.2931 100 73.2931H106.25C107.031 73.2931 107.812 72.6095 107.812 71.7306V65.4806C107.812 64.6993 107.031 63.9181 106.25 63.9181H100ZM120.312 63.9181C119.434 63.9181 118.75 64.6993 118.75 65.4806V71.7306C118.75 72.6095 119.434 73.2931 120.312 73.2931H126.562C127.344 73.2931 128.125 72.6095 128.125 71.7306V65.4806C128.125 64.6993 127.344 63.9181 126.562 63.9181H120.312Z" fill="#76B900"/>
<rect y="107" width="200" height="4" fill="#76B900"/>
<defs>
<linearGradient id="paint0_linear_28_12" x1="100" y1="0" x2="100" y2="116.769" gradientUnits="userSpaceOnUse">
<stop stop-color="#76B900" stop-opacity="0.2"/>
<stop offset="0.65" stop-color="#76B900" stop-opacity="0.02"/>
</linearGradient>
</defs>
</svg>
