<svg width="200" height="111" viewBox="0 0 200 111" fill="none" xmlns="http://www.w3.org/2000/svg">
<rect width="200" height="110" fill="white"/>
<rect width="200" height="110" fill="url(#paint0_linear_28_47)"/>
<path d="M112 40H87C85.5938 40 84.5 41.1719 84.5 42.5V67.5C84.5 68.9062 85.5938 70 87 70H112C113.328 70 114.5 68.9062 114.5 67.5V42.5C114.5 41.1719 113.328 40 112 40ZM87 37.5H112C114.734 37.5 117 39.7656 117 42.5V67.5C117 70.3125 114.734 72.5 112 72.5H87C84.1875 72.5 82 70.3125 82 67.5V42.5C82 39.7656 84.1875 37.5 87 37.5ZM88.4844 46.7188C88.9531 46.1719 89.7344 46.1719 90.2812 46.5625L99.0312 54.0625C99.3438 54.2969 99.5 54.6875 99.5 55.0781C99.5 55.3906 99.3438 55.7812 99.0312 56.0156L90.2812 63.5156C89.7344 63.9062 88.9531 63.9062 88.4844 63.3594C88.0938 62.8125 88.0938 62.0312 88.6406 61.5625L96.2969 55L88.6406 48.5156C88.0938 48.0469 88.0938 47.2656 88.4844 46.7188ZM98.25 62.5H110.75C111.375 62.5 112 63.125 112 63.75C112 64.4531 111.375 65 110.75 65H98.25C97.5469 65 97 64.4531 97 63.75C97 63.125 97.5469 62.5 98.25 62.5Z" fill="#76B900"/>
<rect y="107" width="200" height="4" fill="#76B900"/>
<defs>
<linearGradient id="paint0_linear_28_47" x1="100" y1="0" x2="100" y2="116.769" gradientUnits="userSpaceOnUse">
<stop stop-color="#76B900" stop-opacity="0.2"/>
<stop offset="0.65" stop-color="#76B900" stop-opacity="0.02"/>
</linearGradient>
</defs>
</svg>
