<svg width="200" height="111" viewBox="0 0 200 111" fill="none" xmlns="http://www.w3.org/2000/svg">
<rect width="200" height="110" fill="white"/>
<rect width="200" height="110" fill="url(#paint0_linear_28_47)"/>
<path d="M110.75 42H88.25C86.9844 42 86 43.0547 86 44.25V66.75C86 68.0156 86.9844 69 88.25 69H110.75C111.945 69 113 68.0156 113 66.75V44.25C113 43.0547 111.945 42 110.75 42ZM88.25 39.75H110.75C113.211 39.75 115.25 41.7891 115.25 44.25V66.75C115.25 69.2812 113.211 71.25 110.75 71.25H88.25C85.7188 71.25 83.75 69.2812 83.75 66.75V44.25C83.75 41.7891 85.7188 39.75 88.25 39.75ZM89.5859 48.0469C90.0078 47.5547 90.7109 47.5547 91.2031 47.9062L99.0781 54.6562C99.3594 54.8672 99.5 55.2188 99.5 55.5703C99.5 55.8516 99.3594 56.2031 99.0781 56.4141L91.2031 63.1641C90.7109 63.5156 90.0078 63.5156 89.5859 63.0234C89.2344 62.5312 89.2344 61.8281 89.7266 61.4062L96.6172 55.5L89.7266 49.6641C89.2344 49.2422 89.2344 48.5391 89.5859 48.0469ZM98.375 62.25H109.625C110.188 62.25 110.75 62.8125 110.75 63.375C110.75 64.0078 110.188 64.5 109.625 64.5H98.375C97.7422 64.5 97.25 64.0078 97.25 63.375C97.25 62.8125 97.7422 62.25 98.375 62.25Z" fill="#76B900"/>
<rect y="108" width="200" height="3" fill="#76B900"/>
<defs>
<linearGradient id="paint0_linear_28_47" x1="100" y1="0" x2="100" y2="110" gradientUnits="userSpaceOnUse">
<stop stop-color="#76B900" stop-opacity="0.2"/>
<stop offset="0.555" stop-color="#76B900" stop-opacity="0"/>
<stop offset="0.995" stop-color="white" stop-opacity="0.02"/>
</linearGradient>
</defs>
</svg>
